<?xml version="1.0" standalone="no"?>
<!DOCTYPE svg PUBLIC "-//W3C//DTD SVG 20010904//EN"
 "http://www.w3.org/TR/2001/REC-SVG-20010904/DTD/svg10.dtd">
<svg version="1.0" xmlns="http://www.w3.org/2000/svg"
 width="340.000000pt" height="340.000000pt" viewBox="0 0 340.000000 340.000000"
 preserveAspectRatio="xMidYMid meet">
<metadata>
Created by potrace 1.14, written by Peter Selinger 2001-2017
</metadata>
<g transform="translate(0.000000,340.000000) scale(0.100000,-0.100000)"
fill="#000000" stroke="none">
<path d="M1408 3395 c-2 -2 -19 -7 -38 -10 -95 -16 -238 -117 -297 -210 -31
-49 -32 -50 -83 -35 -153 45 -318 23 -378 -49 -50 -61 -73 -197 -46 -275 8
-21 14 -39 14 -40 0 0 -24 -1 -52 0 -184 4 -346 -92 -423 -251 -49 -98 -64
-176 -61 -305 2 -100 5 -114 35 -175 25 -50 45 -75 79 -98 25 -18 60 -48 79
-67 34 -34 34 -35 11 -41 -137 -37 -211 -176 -171 -324 27 -99 71 -166 145
-222 85 -65 221 -207 248 -260 14 -26 28 -52 32 -58 4 -5 35 -47 69 -93 33
-45 101 -119 152 -165 50 -45 163 -153 251 -240 239 -234 376 -327 584 -397
169 -56 248 -68 437 -66 226 3 352 31 542 121 306 144 535 394 659 721 23 62
49 156 58 209 21 129 23 118 -33 172 -28 27 -54 47 -58 44 -3 -3 -4 -1 0 4 3
6 18 12 34 13 15 1 37 4 48 6 11 3 23 5 26 5 9 1 2 106 -12 196 -13 85 -50
216 -78 280 -25 55 -26 65 -8 65 45 0 134 67 165 125 27 48 23 182 -7 275 -45
135 -82 187 -266 374 -93 95 -192 198 -219 230 -54 64 -106 101 -175 124 -49
16 -189 142 -217 194 -41 78 -134 120 -269 120 -100 1 -191 -19 -268 -58 l-49
-25 -46 46 c-90 90 -195 136 -323 141 -48 2 -88 1 -91 -1z m555 -2299 c-12
-22 -83 -76 -135 -102 -82 -42 -194 -57 -295 -40 -42 8 -53 22 -53 74 0 17 6
22 28 23 15 0 36 2 47 5 11 2 43 6 70 9 28 3 79 10 115 16 36 6 88 13 115 16
28 3 52 7 54 9 2 2 17 4 33 4 22 0 27 -3 21 -14z"/>
</g>
</svg>
