<svg xmlns="http://www.w3.org/2000/svg" viewBox="0 0 110.66 113.05"><defs><style>.cls-1{fill:#232253;}.cls-2{fill:#fff;stroke-miterlimit:10;}.cls-2,.cls-3{stroke:#232253;}.cls-3{fill:none;stroke-linecap:round;stroke-linejoin:round;}</style></defs><title>Asset 11</title><g id="Layer_2" data-name="Layer 2"><g id="Layer_4" data-name="Layer 4"><path class="cls-1" d="M81.12,77.54a16.29,16.29,0,0,1-5.74,13.72c-5.38,4.47-12.56,4.37-17.8,1.82a17.33,17.33,0,0,1-9.64-14.59l21.92-3,38-5.79v-.1a43.16,43.16,0,1,0-.15,3.94ZM76.56,53.17c1.91,0,3.49,2.5,3.52,5.63s-1.5,5.67-3.41,5.69-3.49-2.5-3.51-5.63S74.65,53.18,76.56,53.17ZM46.13,62.26c0-3.13,1.5-5.68,3.41-5.7s3.48,2.51,3.51,5.63-1.49,5.68-3.4,5.7S46.16,65.39,46.13,62.26Z"/><path class="cls-1" d="M26.35,81.28a6.22,6.22,0,0,1-4,2.17c-3.89.27-6.55-4.33-6.88-4.93-.24-.43-3.59-6.63.16-11,2.06-2.4,5.72-3.6,8.47-2.51C29.27,67.11,30.12,77,26.35,81.28Z"/><path class="cls-1" d="M22.74,62.32a9.76,9.76,0,0,1-6.21-1.86C12.87,57.61,13,52.62,13,50.28c0-1.53.41-10.38,7.75-14.58A15.91,15.91,0,0,1,31.34,34a11,11,0,0,1-1.21-5.53,8.35,8.35,0,0,1,2-5.59c2.37-2.43,6.11-2.1,8.61-1.89a17.73,17.73,0,0,1,5.45,1.38,16.29,16.29,0,0,1,4-5.38,15.48,15.48,0,0,1,23.13,2.65,17.89,17.89,0,0,1,7.72-3c1-.14,7.94-1,10.91,2.76a6.91,6.91,0,0,1,1.16,2.32,7.38,7.38,0,0,1-.77,5.32,13.11,13.11,0,0,1,7-.25c7.13,1.8,9.67,9.45,10.07,10.67.84,2.52,2.67,8-.64,11.74-3.11,3.46-8.44,2.73-9.09,2.63A42.58,42.58,0,0,0,82,41.59c-17.61-5-33.69,3.85-42.54,8.69A83.53,83.53,0,0,0,22.74,62.32Z"/><path class="cls-1" d="M80.62,77a16.29,16.29,0,0,1-5.74,13.72c-5.38,4.47-12.56,4.37-17.8,1.82A17.33,17.33,0,0,1,47.44,78l21.92-3,38-5.79v-.1a43.16,43.16,0,1,0-.15,3.94ZM76.06,52.67c1.91,0,3.49,2.5,3.52,5.63S78.08,64,76.17,64s-3.49-2.5-3.51-5.63S74.15,52.68,76.06,52.67ZM45.63,61.76c0-3.13,1.5-5.68,3.41-5.7s3.48,2.51,3.51,5.63-1.49,5.68-3.4,5.7S45.66,64.89,45.63,61.76Z"/><path class="cls-1" d="M25.85,80.78a6.22,6.22,0,0,1-4,2.17c-3.89.27-6.55-4.33-6.88-4.93-.24-.43-3.59-6.63.16-11,2.06-2.4,5.72-3.6,8.47-2.51C28.77,66.61,29.62,76.51,25.85,80.78Z"/><path class="cls-1" d="M22.24,61.82A9.76,9.76,0,0,1,16,60c-3.66-2.85-3.56-7.84-3.52-10.18,0-1.53.41-10.38,7.75-14.58a15.91,15.91,0,0,1,10.58-1.68A11,11,0,0,1,29.63,28a8.35,8.35,0,0,1,2-5.59C34,20,37.73,20.3,40.23,20.51a17.73,17.73,0,0,1,5.45,1.38,16.29,16.29,0,0,1,4-5.38,15.48,15.48,0,0,1,23.13,2.65,17.89,17.89,0,0,1,7.72-3c1-.14,7.94-1,10.91,2.76a6.91,6.91,0,0,1,1.16,2.32,7.38,7.38,0,0,1-.77,5.32,13.11,13.11,0,0,1,7-.25C106,28.13,108.5,35.78,108.9,37c.84,2.52,2.67,8-.64,11.74-3.11,3.46-8.44,2.73-9.09,2.63A42.58,42.58,0,0,0,81.46,41.09c-17.61-5-33.69,3.85-42.54,8.69A83.53,83.53,0,0,0,22.24,61.82Z"/><path class="cls-1" d="M80.12,76.54a16.29,16.29,0,0,1-5.74,13.72c-5.38,4.47-12.56,4.37-17.8,1.82a17.33,17.33,0,0,1-9.64-14.59l21.92-3,38-5.79v-.1a43.16,43.16,0,1,0-.15,3.94ZM75.56,52.17c1.91,0,3.49,2.5,3.52,5.63s-1.5,5.67-3.41,5.69-3.49-2.5-3.51-5.63S73.65,52.18,75.56,52.17ZM45.13,61.26c0-3.13,1.5-5.68,3.41-5.7s3.48,2.51,3.51,5.63-1.49,5.68-3.4,5.7S45.16,64.39,45.13,61.26Z"/><path class="cls-1" d="M25.35,80.28a6.22,6.22,0,0,1-4,2.17c-3.89.27-6.55-4.33-6.88-4.93-.24-.43-3.59-6.63.16-11,2.06-2.4,5.72-3.6,8.47-2.51C28.27,66.11,29.12,76,25.35,80.28Z"/><path class="cls-1" d="M21.74,61.32a9.76,9.76,0,0,1-6.21-1.86C11.87,56.61,12,51.62,12,49.28c0-1.53.41-10.38,7.75-14.58A15.91,15.91,0,0,1,30.34,33a11,11,0,0,1-1.21-5.53,8.35,8.35,0,0,1,2-5.59c2.37-2.43,6.11-2.1,8.61-1.89a17.73,17.73,0,0,1,5.45,1.38,16.29,16.29,0,0,1,4-5.38,15.48,15.48,0,0,1,23.13,2.65,17.89,17.89,0,0,1,7.72-3c1-.14,7.94-1,10.91,2.76a6.91,6.91,0,0,1,1.16,2.32,7.38,7.38,0,0,1-.77,5.32,13.11,13.11,0,0,1,7-.25c7.13,1.8,9.67,9.45,10.07,10.67.84,2.52,2.67,8-.64,11.74-3.11,3.46-8.44,2.73-9.09,2.63A42.58,42.58,0,0,0,81,40.59c-17.61-5-33.69,3.85-42.54,8.69A83.53,83.53,0,0,0,21.74,61.32Z"/><path class="cls-1" d="M79.62,76a16.29,16.29,0,0,1-5.74,13.72c-5.38,4.47-12.56,4.37-17.8,1.82A17.33,17.33,0,0,1,46.44,77l21.92-3,38-5.79v-.1a43.16,43.16,0,1,0-.15,3.94ZM75.06,51.67c1.91,0,3.49,2.5,3.52,5.63S77.08,63,75.17,63s-3.49-2.5-3.51-5.63S73.15,51.68,75.06,51.67ZM44.63,60.76c0-3.13,1.5-5.68,3.41-5.7s3.48,2.51,3.51,5.63-1.49,5.68-3.4,5.7S44.66,63.89,44.63,60.76Z"/><path class="cls-1" d="M24.85,79.78a6.22,6.22,0,0,1-4,2.17c-3.89.27-6.55-4.33-6.88-4.93-.24-.43-3.59-6.63.16-11,2.06-2.4,5.72-3.6,8.47-2.51C27.77,65.61,28.62,75.51,24.85,79.78Z"/><path class="cls-1" d="M21.24,60.82A9.76,9.76,0,0,1,15,59c-3.66-2.85-3.56-7.84-3.52-10.18,0-1.53.41-10.38,7.75-14.58a15.91,15.91,0,0,1,10.58-1.68A11,11,0,0,1,28.63,27a8.35,8.35,0,0,1,2-5.59C33,19,36.73,19.3,39.23,19.51a17.73,17.73,0,0,1,5.45,1.38,16.29,16.29,0,0,1,4-5.38,15.48,15.48,0,0,1,23.13,2.65,17.89,17.89,0,0,1,7.72-3c1-.14,7.94-1,10.91,2.76a6.91,6.91,0,0,1,1.16,2.32,7.38,7.38,0,0,1-.77,5.32,13.11,13.11,0,0,1,7-.25C105,27.13,107.5,34.78,107.9,36c.84,2.52,2.67,8-.64,11.74-3.11,3.46-8.44,2.73-9.09,2.63A42.58,42.58,0,0,0,80.46,40.09c-17.61-5-33.69,3.85-42.54,8.69A83.53,83.53,0,0,0,21.24,60.82Z"/><path class="cls-1" d="M79.12,75.54a16.29,16.29,0,0,1-5.74,13.72c-5.38,4.47-12.56,4.37-17.8,1.82a17.33,17.33,0,0,1-9.64-14.59l21.92-3,38-5.79v-.1a43.16,43.16,0,1,0-.15,3.94ZM74.56,51.17c1.91,0,3.49,2.5,3.52,5.63s-1.5,5.67-3.41,5.69-3.49-2.5-3.51-5.63S72.65,51.18,74.56,51.17ZM44.13,60.26c0-3.13,1.5-5.68,3.41-5.7s3.48,2.51,3.51,5.63-1.49,5.68-3.4,5.7S44.16,63.39,44.13,60.26Z"/><path class="cls-1" d="M24.35,79.28a6.22,6.22,0,0,1-4,2.17c-3.89.27-6.55-4.33-6.88-4.93-.24-.43-3.59-6.63.16-11,2.06-2.4,5.72-3.6,8.47-2.51C27.27,65.11,28.12,75,24.35,79.28Z"/><path class="cls-1" d="M20.74,60.32a9.76,9.76,0,0,1-6.21-1.86C10.87,55.61,11,50.62,11,48.28c0-1.53.41-10.38,7.75-14.58A15.91,15.91,0,0,1,29.34,32a11,11,0,0,1-1.21-5.53,8.35,8.35,0,0,1,2-5.59c2.37-2.43,6.11-2.1,8.61-1.89a17.73,17.73,0,0,1,5.45,1.38,16.29,16.29,0,0,1,4-5.38,15.48,15.48,0,0,1,23.13,2.65,17.89,17.89,0,0,1,7.72-3c1-.14,7.94-1,10.91,2.76a6.91,6.91,0,0,1,1.16,2.32,7.38,7.38,0,0,1-.77,5.32,13.11,13.11,0,0,1,7-.25c7.13,1.8,9.67,9.45,10.07,10.67.84,2.52,2.67,8-.64,11.74-3.11,3.46-8.44,2.73-9.09,2.63A42.58,42.58,0,0,0,80,39.59c-17.61-5-33.69,3.85-42.54,8.69A83.53,83.53,0,0,0,20.74,60.32Z"/><path class="cls-1" d="M78.62,75a16.29,16.29,0,0,1-5.74,13.72c-5.38,4.47-12.56,4.37-17.8,1.82A17.33,17.33,0,0,1,45.44,76l21.92-3,38-5.79v-.1a43.16,43.16,0,1,0-.15,3.94ZM74.06,50.67c1.91,0,3.49,2.5,3.52,5.63S76.08,62,74.17,62s-3.49-2.5-3.51-5.63S72.15,50.68,74.06,50.67ZM43.63,59.76c0-3.13,1.5-5.68,3.41-5.7s3.48,2.51,3.51,5.63-1.49,5.68-3.4,5.7S43.66,62.89,43.63,59.76Z"/><path class="cls-1" d="M23.85,78.78a6.22,6.22,0,0,1-4,2.17c-3.89.27-6.55-4.33-6.88-4.93-.24-.43-3.59-6.63.16-11,2.06-2.4,5.72-3.6,8.47-2.51C26.77,64.61,27.62,74.51,23.85,78.78Z"/><path class="cls-1" d="M20.24,59.82A9.76,9.76,0,0,1,14,58c-3.66-2.85-3.56-7.84-3.52-10.18,0-1.53.41-10.38,7.75-14.58a15.91,15.91,0,0,1,10.58-1.68A11,11,0,0,1,27.63,26a8.35,8.35,0,0,1,2-5.59C32,18,35.73,18.3,38.23,18.51a17.73,17.73,0,0,1,5.45,1.38,16.29,16.29,0,0,1,4-5.38,15.48,15.48,0,0,1,23.13,2.65,17.89,17.89,0,0,1,7.72-3c1-.14,7.94-1,10.91,2.76a6.91,6.91,0,0,1,1.16,2.32,7.38,7.38,0,0,1-.77,5.32,13.11,13.11,0,0,1,7-.25C104,26.13,106.5,33.78,106.9,35c.84,2.52,2.67,8-.64,11.74-3.11,3.46-8.44,2.73-9.09,2.63A42.58,42.58,0,0,0,79.46,39.09c-17.61-5-33.69,3.85-42.54,8.69A83.53,83.53,0,0,0,20.24,59.82Z"/><path class="cls-1" d="M78.12,74.54a16.29,16.29,0,0,1-5.74,13.72c-5.38,4.47-12.56,4.37-17.8,1.82a17.33,17.33,0,0,1-9.64-14.59l21.92-3,38-5.79v-.1a43.16,43.16,0,1,0-.15,3.94ZM73.56,50.17c1.91,0,3.49,2.5,3.52,5.63s-1.5,5.67-3.41,5.69-3.49-2.5-3.51-5.63S71.65,50.18,73.56,50.17ZM43.13,59.26c0-3.13,1.5-5.68,3.41-5.7s3.48,2.51,3.51,5.63-1.49,5.68-3.4,5.7S43.16,62.39,43.13,59.26Z"/><path class="cls-1" d="M23.35,78.28a6.22,6.22,0,0,1-4,2.17c-3.89.27-6.55-4.33-6.88-4.93-.24-.43-3.59-6.63.16-11,2.06-2.4,5.72-3.6,8.47-2.51C26.27,64.11,27.12,74,23.35,78.28Z"/><path class="cls-1" d="M19.74,59.32a9.76,9.76,0,0,1-6.21-1.86C9.87,54.61,10,49.62,10,47.28c0-1.53.41-10.38,7.75-14.58A15.91,15.91,0,0,1,28.34,31a11,11,0,0,1-1.21-5.53,8.35,8.35,0,0,1,2-5.59c2.37-2.43,6.11-2.1,8.61-1.89a17.73,17.73,0,0,1,5.45,1.38,16.29,16.29,0,0,1,4-5.38,15.48,15.48,0,0,1,23.13,2.65,17.89,17.89,0,0,1,7.72-3c1-.14,7.94-1,10.91,2.76a6.91,6.91,0,0,1,1.16,2.32,7.38,7.38,0,0,1-.77,5.32,13.11,13.11,0,0,1,7-.25c7.13,1.8,9.67,9.45,10.07,10.67.84,2.52,2.67,8-.64,11.74-3.11,3.46-8.44,2.73-9.09,2.63A42.58,42.58,0,0,0,79,38.59c-17.61-5-33.69,3.85-42.54,8.69A83.53,83.53,0,0,0,19.74,59.32Z"/><path class="cls-1" d="M77.62,74a16.29,16.29,0,0,1-5.74,13.72c-5.38,4.47-12.56,4.37-17.8,1.82A17.33,17.33,0,0,1,44.44,75l21.92-3,38-5.79v-.1a43.16,43.16,0,1,0-.15,3.94ZM73.06,49.67c1.91,0,3.49,2.5,3.52,5.63S75.08,61,73.17,61s-3.49-2.5-3.51-5.63S71.15,49.68,73.06,49.67ZM42.63,58.76c0-3.13,1.5-5.68,3.41-5.7s3.48,2.51,3.51,5.63-1.49,5.68-3.4,5.7S42.66,61.89,42.63,58.76Z"/><path class="cls-1" d="M22.85,77.78a6.22,6.22,0,0,1-4,2.17c-3.89.27-6.55-4.33-6.88-4.93-.24-.43-3.59-6.63.16-11,2.06-2.4,5.72-3.6,8.47-2.51C25.77,63.61,26.62,73.51,22.85,77.78Z"/><path class="cls-1" d="M19.24,58.82A9.76,9.76,0,0,1,13,57c-3.66-2.85-3.56-7.84-3.52-10.18,0-1.53.41-10.38,7.75-14.58a15.91,15.91,0,0,1,10.58-1.68A11,11,0,0,1,26.63,25a8.35,8.35,0,0,1,2-5.59C31,17,34.73,17.3,37.23,17.51a17.73,17.73,0,0,1,5.45,1.38,16.29,16.29,0,0,1,4-5.38,15.48,15.48,0,0,1,23.13,2.65,17.89,17.89,0,0,1,7.72-3c1-.14,7.94-1,10.91,2.76a6.91,6.91,0,0,1,1.16,2.32,7.38,7.38,0,0,1-.77,5.32,13.11,13.11,0,0,1,7-.25C103,25.13,105.5,32.78,105.9,34c.84,2.52,2.67,8-.64,11.74-3.11,3.46-8.44,2.73-9.09,2.63A42.58,42.58,0,0,0,78.46,38.09c-17.61-5-33.69,3.85-42.54,8.69A83.53,83.53,0,0,0,19.24,58.82Z"/><path class="cls-1" d="M77.12,73.54a16.29,16.29,0,0,1-5.74,13.72c-5.38,4.47-12.56,4.37-17.8,1.82a17.33,17.33,0,0,1-9.64-14.59l21.92-3,38-5.79v-.1a43.16,43.16,0,1,0-.15,3.94ZM72.56,49.17c1.91,0,3.49,2.5,3.52,5.63s-1.5,5.67-3.41,5.69-3.49-2.5-3.51-5.63S70.65,49.18,72.56,49.17ZM42.13,58.26c0-3.13,1.5-5.68,3.41-5.7s3.48,2.51,3.51,5.63-1.49,5.68-3.4,5.7S42.16,61.39,42.13,58.26Z"/><path class="cls-1" d="M22.35,77.28a6.22,6.22,0,0,1-4,2.17c-3.89.27-6.55-4.33-6.88-4.93-.24-.43-3.59-6.63.16-11,2.06-2.4,5.72-3.6,8.47-2.51C25.27,63.11,26.12,73,22.35,77.28Z"/><path class="cls-1" d="M18.74,58.32a9.76,9.76,0,0,1-6.21-1.86C8.87,53.61,9,48.62,9,46.28c0-1.53.41-10.38,7.75-14.58A15.91,15.91,0,0,1,27.34,30a11,11,0,0,1-1.21-5.53,8.35,8.35,0,0,1,2-5.59c2.37-2.43,6.11-2.1,8.61-1.89a17.73,17.73,0,0,1,5.45,1.38,16.29,16.29,0,0,1,4-5.38,15.48,15.48,0,0,1,23.13,2.65,17.89,17.89,0,0,1,7.72-3c1-.14,7.94-1,10.91,2.76a6.91,6.91,0,0,1,1.16,2.32,7.38,7.38,0,0,1-.77,5.32,13.11,13.11,0,0,1,7-.25c7.13,1.8,9.67,9.45,10.07,10.67.84,2.52,2.67,8-.64,11.74-3.11,3.46-8.44,2.73-9.09,2.63A42.58,42.58,0,0,0,78,37.59c-17.61-5-33.69,3.85-42.54,8.69A83.53,83.53,0,0,0,18.74,58.32Z"/><path class="cls-1" d="M76.62,73a16.29,16.29,0,0,1-5.74,13.72c-5.38,4.47-12.56,4.37-17.8,1.82A17.33,17.33,0,0,1,43.44,74l21.92-3,38-5.79v-.1a43.16,43.16,0,1,0-.15,3.94ZM72.06,48.67c1.91,0,3.49,2.5,3.52,5.63S74.08,60,72.17,60s-3.49-2.5-3.51-5.63S70.15,48.68,72.06,48.67ZM41.63,57.76c0-3.13,1.5-5.68,3.41-5.7s3.48,2.51,3.51,5.63-1.49,5.68-3.4,5.7S41.66,60.89,41.63,57.76Z"/><path class="cls-1" d="M21.85,76.78a6.22,6.22,0,0,1-4,2.17c-3.89.27-6.55-4.33-6.88-4.93-.24-.43-3.59-6.63.16-11,2.06-2.4,5.72-3.6,8.47-2.51C24.77,62.61,25.62,72.51,21.85,76.78Z"/><path class="cls-1" d="M18.24,57.82A9.76,9.76,0,0,1,12,56c-3.66-2.85-3.56-7.84-3.52-10.18,0-1.53.41-10.38,7.75-14.58a15.91,15.91,0,0,1,10.58-1.68A11,11,0,0,1,25.63,24a8.35,8.35,0,0,1,2-5.59C30,16,33.73,16.3,36.23,16.51a17.73,17.73,0,0,1,5.45,1.38,16.29,16.29,0,0,1,4-5.38,15.48,15.48,0,0,1,23.13,2.65,17.89,17.89,0,0,1,7.72-3c1-.14,7.94-1,10.91,2.76a6.91,6.91,0,0,1,1.16,2.32,7.38,7.38,0,0,1-.77,5.32,13.11,13.11,0,0,1,7-.25C102,24.13,104.5,31.78,104.9,33c.84,2.52,2.67,8-.64,11.74-3.11,3.46-8.44,2.73-9.09,2.63A42.58,42.58,0,0,0,77.46,37.09c-17.61-5-33.69,3.85-42.54,8.69A83.53,83.53,0,0,0,18.24,57.82Z"/><path class="cls-1" d="M76.12,72.54a16.29,16.29,0,0,1-5.74,13.72c-5.38,4.47-12.56,4.37-17.8,1.82a17.33,17.33,0,0,1-9.64-14.59l21.92-3,38-5.79v-.1a43.16,43.16,0,1,0-.15,3.94ZM71.56,48.17c1.91,0,3.49,2.5,3.52,5.63s-1.5,5.67-3.41,5.69-3.49-2.5-3.51-5.63S69.65,48.18,71.56,48.17ZM41.13,57.26c0-3.13,1.5-5.68,3.41-5.7s3.48,2.51,3.51,5.63-1.49,5.68-3.4,5.7S41.16,60.39,41.13,57.26Z"/><path class="cls-1" d="M21.35,76.28a6.22,6.22,0,0,1-4,2.17c-3.89.27-6.55-4.33-6.88-4.93-.24-.43-3.59-6.63.16-11,2.06-2.4,5.72-3.6,8.47-2.51C24.27,62.11,25.12,72,21.35,76.28Z"/><path class="cls-1" d="M17.74,57.32a9.76,9.76,0,0,1-6.21-1.86C7.87,52.61,8,47.62,8,45.28c0-1.53.41-10.38,7.75-14.58A15.91,15.91,0,0,1,26.34,29a11,11,0,0,1-1.21-5.53,8.35,8.35,0,0,1,2-5.59c2.37-2.43,6.11-2.1,8.61-1.89a17.73,17.73,0,0,1,5.45,1.38,16.29,16.29,0,0,1,4-5.38,15.48,15.48,0,0,1,23.13,2.65,17.89,17.89,0,0,1,7.72-3c1-.14,7.94-1,10.91,2.76a6.91,6.91,0,0,1,1.16,2.32,7.38,7.38,0,0,1-.77,5.32,13.11,13.11,0,0,1,7-.25c7.13,1.8,9.67,9.45,10.07,10.67.84,2.52,2.67,8-.64,11.74-3.11,3.46-8.44,2.73-9.09,2.63A42.58,42.58,0,0,0,77,36.59c-17.61-5-33.69,3.85-42.54,8.69A83.53,83.53,0,0,0,17.74,57.32Z"/><path class="cls-1" d="M75.62,72a16.29,16.29,0,0,1-5.74,13.72c-5.38,4.47-12.56,4.37-17.8,1.82A17.33,17.33,0,0,1,42.44,73l21.92-3,38-5.79v-.1a43.16,43.16,0,1,0-.15,3.94ZM71.06,47.67c1.91,0,3.49,2.5,3.52,5.63S73.08,59,71.17,59s-3.49-2.5-3.51-5.63S69.15,47.68,71.06,47.67ZM40.63,56.76c0-3.13,1.5-5.68,3.41-5.7s3.48,2.51,3.51,5.63-1.49,5.68-3.4,5.7S40.66,59.89,40.63,56.76Z"/><path class="cls-1" d="M20.85,75.78a6.22,6.22,0,0,1-4,2.17c-3.89.27-6.55-4.33-6.88-4.93-.24-.43-3.59-6.63.16-11,2.06-2.4,5.72-3.6,8.47-2.51C23.77,61.61,24.62,71.51,20.85,75.78Z"/><path class="cls-1" d="M17.24,56.82A9.76,9.76,0,0,1,11,55c-3.66-2.85-3.56-7.84-3.52-10.18,0-1.53.41-10.38,7.75-14.58a15.91,15.91,0,0,1,10.58-1.68A11,11,0,0,1,24.63,23a8.35,8.35,0,0,1,2-5.59C29,15,32.73,15.3,35.23,15.51a17.73,17.73,0,0,1,5.45,1.38,16.29,16.29,0,0,1,4-5.38,15.48,15.48,0,0,1,23.13,2.65,17.89,17.89,0,0,1,7.72-3c1-.14,7.94-1,10.91,2.76a6.91,6.91,0,0,1,1.16,2.32,7.38,7.38,0,0,1-.77,5.32,13.11,13.11,0,0,1,7-.25C101,23.13,103.5,30.78,103.9,32c.84,2.52,2.67,8-.64,11.74-3.11,3.46-8.44,2.73-9.09,2.63A42.58,42.58,0,0,0,76.46,36.09c-17.61-5-33.69,3.85-42.54,8.69A83.53,83.53,0,0,0,17.24,56.82Z"/><path class="cls-1" d="M75.12,71.54a16.29,16.29,0,0,1-5.74,13.72c-5.38,4.47-12.56,4.37-17.8,1.82a17.33,17.33,0,0,1-9.64-14.59l21.92-3,38-5.79v-.1a43.16,43.16,0,1,0-.15,3.94ZM70.56,47.17c1.91,0,3.49,2.5,3.52,5.63s-1.5,5.67-3.41,5.69-3.49-2.5-3.51-5.63S68.65,47.18,70.56,47.17ZM40.13,56.26c0-3.13,1.5-5.68,3.41-5.7s3.48,2.51,3.51,5.63-1.49,5.68-3.4,5.7S40.16,59.39,40.13,56.26Z"/><path class="cls-1" d="M20.35,75.28a6.22,6.22,0,0,1-4,2.17c-3.89.27-6.55-4.33-6.88-4.93-.24-.43-3.59-6.63.16-11,2.06-2.4,5.72-3.6,8.47-2.51C23.27,61.11,24.12,71,20.35,75.28Z"/><path class="cls-1" d="M16.74,56.32a9.76,9.76,0,0,1-6.21-1.86C6.87,51.61,7,46.62,7,44.28c0-1.53.41-10.38,7.75-14.58A15.91,15.91,0,0,1,25.34,28a11,11,0,0,1-1.21-5.53,8.35,8.35,0,0,1,2-5.59c2.37-2.43,6.11-2.1,8.61-1.89a17.73,17.73,0,0,1,5.45,1.38,16.29,16.29,0,0,1,4-5.38,15.48,15.48,0,0,1,23.13,2.65,17.89,17.89,0,0,1,7.72-3c1-.14,7.94-1,10.91,2.76a6.91,6.91,0,0,1,1.16,2.32,7.38,7.38,0,0,1-.77,5.32,13.11,13.11,0,0,1,7-.25c7.13,1.8,9.67,9.45,10.07,10.67.84,2.52,2.67,8-.64,11.74-3.11,3.46-8.44,2.73-9.09,2.63A42.58,42.58,0,0,0,76,35.59c-17.61-5-33.69,3.85-42.54,8.69A83.53,83.53,0,0,0,16.74,56.32Z"/><path class="cls-1" d="M74.62,71a16.29,16.29,0,0,1-5.74,13.72c-5.38,4.47-12.56,4.37-17.8,1.82A17.33,17.33,0,0,1,41.44,72l21.92-3,38-5.79v-.1a43.16,43.16,0,1,0-.15,3.94ZM70.06,46.67c1.91,0,3.49,2.5,3.52,5.63S72.08,58,70.17,58s-3.49-2.5-3.51-5.63S68.15,46.68,70.06,46.67ZM39.63,55.76c0-3.13,1.5-5.68,3.41-5.7s3.48,2.51,3.51,5.63-1.49,5.68-3.4,5.7S39.66,58.89,39.63,55.76Z"/><path class="cls-1" d="M19.85,74.78a6.22,6.22,0,0,1-4,2.17c-3.89.27-6.55-4.33-6.88-4.93-.24-.43-3.59-6.63.16-11,2.06-2.4,5.72-3.6,8.47-2.51C22.77,60.61,23.62,70.51,19.85,74.78Z"/><path class="cls-1" d="M16.24,55.82A9.76,9.76,0,0,1,10,54c-3.66-2.85-3.56-7.84-3.52-10.18,0-1.53.41-10.38,7.75-14.58a15.91,15.91,0,0,1,10.58-1.68A11,11,0,0,1,23.63,22a8.35,8.35,0,0,1,2-5.59C28,14,31.73,14.3,34.23,14.51a17.73,17.73,0,0,1,5.45,1.38,16.29,16.29,0,0,1,4-5.38,15.48,15.48,0,0,1,23.13,2.65,17.89,17.89,0,0,1,7.72-3c1-.14,7.94-1,10.91,2.76a6.91,6.91,0,0,1,1.16,2.32,7.38,7.38,0,0,1-.77,5.32,13.11,13.11,0,0,1,7-.25C100,22.13,102.5,29.78,102.9,31c.84,2.52,2.67,8-.64,11.74-3.11,3.46-8.44,2.73-9.09,2.63A42.58,42.58,0,0,0,75.46,35.09c-17.61-5-33.69,3.85-42.54,8.69A83.53,83.53,0,0,0,16.24,55.82Z"/><path class="cls-1" d="M74.12,70.54a16.29,16.29,0,0,1-5.74,13.72c-5.38,4.47-12.56,4.37-17.8,1.82a17.33,17.33,0,0,1-9.64-14.59l21.92-3,38-5.79v-.1a43.16,43.16,0,1,0-.15,3.94ZM69.56,46.17c1.91,0,3.49,2.5,3.52,5.63s-1.5,5.67-3.41,5.69-3.49-2.5-3.51-5.63S67.65,46.18,69.56,46.17ZM39.13,55.26c0-3.13,1.5-5.68,3.41-5.7s3.48,2.51,3.51,5.63-1.49,5.68-3.4,5.7S39.16,58.39,39.13,55.26Z"/><path class="cls-1" d="M19.35,74.28a6.22,6.22,0,0,1-4,2.17c-3.89.27-6.55-4.33-6.88-4.93-.24-.43-3.59-6.63.16-11,2.06-2.4,5.72-3.6,8.47-2.51C22.27,60.11,23.12,70,19.35,74.28Z"/><path class="cls-1" d="M15.74,55.32a9.76,9.76,0,0,1-6.21-1.86C5.87,50.61,6,45.62,6,43.28c0-1.53.41-10.38,7.75-14.58A15.91,15.91,0,0,1,24.34,27a11,11,0,0,1-1.21-5.53,8.35,8.35,0,0,1,2-5.59c2.37-2.43,6.11-2.1,8.61-1.89a17.73,17.73,0,0,1,5.45,1.38,16.29,16.29,0,0,1,4-5.38,15.48,15.48,0,0,1,23.13,2.65,17.89,17.89,0,0,1,7.72-3c1-.14,7.94-1,10.91,2.76a6.91,6.91,0,0,1,1.16,2.32,7.38,7.38,0,0,1-.77,5.32,13.11,13.11,0,0,1,7-.25c7.13,1.8,9.67,9.45,10.07,10.67.84,2.52,2.67,8-.64,11.74-3.11,3.46-8.44,2.73-9.09,2.63A42.58,42.58,0,0,0,75,34.59c-17.61-5-33.69,3.85-42.54,8.69A83.53,83.53,0,0,0,15.74,55.32Z"/><path class="cls-1" d="M73.62,70a16.29,16.29,0,0,1-5.74,13.72c-5.38,4.47-12.56,4.37-17.8,1.82A17.33,17.33,0,0,1,40.44,71l21.92-3,38-5.79v-.1a43.16,43.16,0,1,0-.15,3.94ZM69.06,45.67c1.91,0,3.49,2.5,3.52,5.63S71.08,57,69.17,57s-3.49-2.5-3.51-5.63S67.15,45.68,69.06,45.67ZM38.63,54.76c0-3.13,1.5-5.68,3.41-5.7s3.48,2.51,3.51,5.63-1.49,5.68-3.4,5.7S38.66,57.89,38.63,54.76Z"/><path class="cls-1" d="M18.85,73.78a6.22,6.22,0,0,1-4,2.17c-3.89.27-6.55-4.33-6.88-4.93-.24-.43-3.59-6.63.16-11,2.06-2.4,5.72-3.6,8.47-2.51C21.77,59.61,22.62,69.51,18.85,73.78Z"/><path class="cls-1" d="M15.24,54.82A9.76,9.76,0,0,1,9,53c-3.66-2.85-3.56-7.84-3.52-10.18,0-1.53.41-10.38,7.75-14.58a15.91,15.91,0,0,1,10.58-1.68A11,11,0,0,1,22.63,21a8.35,8.35,0,0,1,2-5.59C27,13,30.73,13.3,33.23,13.51a17.73,17.73,0,0,1,5.45,1.38,16.29,16.29,0,0,1,4-5.38,15.48,15.48,0,0,1,23.13,2.65,17.89,17.89,0,0,1,7.72-3c1-.14,7.94-1,10.91,2.76a6.91,6.91,0,0,1,1.16,2.32,7.38,7.38,0,0,1-.77,5.32,13.11,13.11,0,0,1,7-.25C99,21.13,101.5,28.78,101.9,30c.84,2.52,2.67,8-.64,11.74-3.11,3.46-8.44,2.73-9.09,2.63A42.58,42.58,0,0,0,74.46,34.09c-17.61-5-33.69,3.85-42.54,8.69A83.53,83.53,0,0,0,15.24,54.82Z"/><path class="cls-1" d="M73.12,69.54a16.29,16.29,0,0,1-5.74,13.72c-5.38,4.47-12.56,4.37-17.8,1.82a17.33,17.33,0,0,1-9.64-14.59l21.92-3,38-5.79v-.1a43.16,43.16,0,1,0-.15,3.94ZM68.56,45.17c1.91,0,3.49,2.5,3.52,5.63s-1.5,5.67-3.41,5.69-3.49-2.5-3.51-5.63S66.65,45.18,68.56,45.17ZM38.13,54.26c0-3.13,1.5-5.68,3.41-5.7s3.48,2.51,3.51,5.63-1.49,5.68-3.4,5.7S38.16,57.39,38.13,54.26Z"/><path class="cls-1" d="M18.35,73.28a6.22,6.22,0,0,1-4,2.17c-3.89.27-6.55-4.33-6.88-4.93-.24-.43-3.59-6.63.16-11,2.06-2.4,5.72-3.6,8.47-2.51C21.27,59.11,22.12,69,18.35,73.28Z"/><path class="cls-1" d="M14.74,54.32a9.76,9.76,0,0,1-6.21-1.86C4.87,49.61,5,44.62,5,42.28c0-1.53.41-10.38,7.75-14.58A15.91,15.91,0,0,1,23.34,26a11,11,0,0,1-1.21-5.53,8.35,8.35,0,0,1,2-5.59c2.37-2.43,6.11-2.1,8.61-1.89a17.73,17.73,0,0,1,5.45,1.38,16.29,16.29,0,0,1,4-5.38,15.48,15.48,0,0,1,23.13,2.65,17.89,17.89,0,0,1,7.72-3c1-.14,7.94-1,10.91,2.76a6.91,6.91,0,0,1,1.16,2.32,7.38,7.38,0,0,1-.77,5.32,13.11,13.11,0,0,1,7-.25c7.13,1.8,9.67,9.45,10.07,10.67.84,2.52,2.67,8-.64,11.74-3.11,3.46-8.44,2.73-9.09,2.63A42.58,42.58,0,0,0,74,33.59c-17.61-5-33.69,3.85-42.54,8.69A83.53,83.53,0,0,0,14.74,54.32Z"/><path class="cls-1" d="M72.62,69a16.29,16.29,0,0,1-5.74,13.72c-5.38,4.47-12.56,4.37-17.8,1.82A17.33,17.33,0,0,1,39.44,70l21.92-3,38-5.79v-.1A43.16,43.16,0,1,0,99.21,65ZM68.06,44.67c1.91,0,3.49,2.5,3.52,5.63S70.08,56,68.17,56s-3.49-2.5-3.51-5.63S66.15,44.68,68.06,44.67ZM37.63,53.76c0-3.13,1.5-5.68,3.41-5.7s3.48,2.51,3.51,5.63-1.49,5.68-3.4,5.7S37.66,56.89,37.63,53.76Z"/><path class="cls-1" d="M17.85,72.78a6.22,6.22,0,0,1-4,2.17c-3.89.27-6.55-4.33-6.88-4.93-.24-.43-3.59-6.63.16-11,2.06-2.4,5.72-3.6,8.47-2.51C20.77,58.61,21.62,68.51,17.85,72.78Z"/><path class="cls-1" d="M14.24,53.82A9.76,9.76,0,0,1,8,52c-3.66-2.85-3.56-7.84-3.52-10.18,0-1.53.41-10.38,7.75-14.58a15.91,15.91,0,0,1,10.58-1.68A11,11,0,0,1,21.63,20a8.35,8.35,0,0,1,2-5.59C26,12,29.73,12.3,32.23,12.51a17.73,17.73,0,0,1,5.45,1.38,16.29,16.29,0,0,1,4-5.38,15.48,15.48,0,0,1,23.13,2.65,17.89,17.89,0,0,1,7.72-3c1-.14,7.94-1,10.91,2.76a6.91,6.91,0,0,1,1.16,2.32,7.38,7.38,0,0,1-.77,5.32,13.11,13.11,0,0,1,7-.25C98,20.13,100.5,27.78,100.9,29c.84,2.52,2.67,8-.64,11.74-3.11,3.46-8.44,2.73-9.09,2.63A42.58,42.58,0,0,0,73.46,33.09c-17.61-5-33.69,3.85-42.54,8.69A83.53,83.53,0,0,0,14.24,53.82Z"/><path class="cls-1" d="M72.12,68.54a16.29,16.29,0,0,1-5.74,13.72c-5.38,4.47-12.56,4.37-17.8,1.82a17.33,17.33,0,0,1-9.64-14.59l21.92-3,38-5.79v-.1a43.16,43.16,0,1,0-.15,3.94ZM67.56,44.17c1.91,0,3.49,2.5,3.52,5.63s-1.5,5.67-3.41,5.69-3.49-2.5-3.51-5.63S65.65,44.18,67.56,44.17ZM37.13,53.26c0-3.13,1.5-5.68,3.41-5.7s3.48,2.51,3.51,5.63-1.49,5.68-3.4,5.7S37.16,56.39,37.13,53.26Z"/><path class="cls-1" d="M17.35,72.28a6.22,6.22,0,0,1-4,2.17c-3.89.27-6.55-4.33-6.88-4.93-.24-.43-3.59-6.63.16-11,2.06-2.4,5.72-3.6,8.47-2.51C20.27,58.11,21.12,68,17.35,72.28Z"/><path class="cls-1" d="M13.74,53.32a9.76,9.76,0,0,1-6.21-1.86C3.87,48.61,4,43.62,4,41.28c0-1.53.41-10.38,7.75-14.58A15.91,15.91,0,0,1,22.34,25a11,11,0,0,1-1.21-5.53,8.35,8.35,0,0,1,2-5.59c2.37-2.43,6.11-2.1,8.61-1.89a17.73,17.73,0,0,1,5.45,1.38,16.29,16.29,0,0,1,4-5.38,15.48,15.48,0,0,1,23.13,2.65,17.89,17.89,0,0,1,7.72-3c1-.14,7.94-1,10.91,2.76a6.91,6.91,0,0,1,1.16,2.32,7.38,7.38,0,0,1-.77,5.32,13.11,13.11,0,0,1,7-.25c7.13,1.8,9.67,9.45,10.07,10.67.84,2.52,2.67,8-.64,11.74-3.11,3.46-8.44,2.73-9.09,2.63A42.58,42.58,0,0,0,73,32.59c-17.61-5-33.69,3.85-42.54,8.69A83.53,83.53,0,0,0,13.74,53.32Z"/><path class="cls-1" d="M71.62,68a16.29,16.29,0,0,1-5.74,13.72c-5.38,4.47-12.56,4.37-17.8,1.82A17.33,17.33,0,0,1,38.44,69l21.92-3,38-5.79v-.1A43.16,43.16,0,1,0,98.21,64ZM67.06,43.67c1.91,0,3.49,2.5,3.52,5.63S69.08,55,67.17,55s-3.49-2.5-3.51-5.63S65.15,43.68,67.06,43.67ZM36.63,52.76c0-3.13,1.5-5.68,3.41-5.7s3.48,2.51,3.51,5.63-1.49,5.68-3.4,5.7S36.66,55.89,36.63,52.76Z"/><path class="cls-1" d="M16.85,71.78a6.22,6.22,0,0,1-4,2.17c-3.89.27-6.55-4.33-6.88-4.93-.24-.43-3.59-6.63.16-11,2.06-2.4,5.72-3.6,8.47-2.51C19.77,57.61,20.62,67.51,16.85,71.78Z"/><path class="cls-1" d="M13.24,52.82A9.76,9.76,0,0,1,7,51c-3.66-2.85-3.56-7.84-3.52-10.18,0-1.53.41-10.38,7.75-14.58a15.91,15.91,0,0,1,10.58-1.68A11,11,0,0,1,20.63,19a8.35,8.35,0,0,1,2-5.59C25,11,28.73,11.3,31.23,11.51a17.73,17.73,0,0,1,5.45,1.38,16.29,16.29,0,0,1,4-5.38,15.48,15.48,0,0,1,23.13,2.65,17.89,17.89,0,0,1,7.72-3c1-.14,7.94-1,10.91,2.76a6.91,6.91,0,0,1,1.16,2.32,7.38,7.38,0,0,1-.77,5.32,13.11,13.11,0,0,1,7-.25C97,19.13,99.5,26.78,99.9,28c.84,2.52,2.67,8-.64,11.74-3.11,3.46-8.44,2.73-9.09,2.63A42.58,42.58,0,0,0,72.46,32.09c-17.61-5-33.69,3.85-42.54,8.69A83.53,83.53,0,0,0,13.24,52.82Z"/><path class="cls-1" d="M71.12,67.54a16.29,16.29,0,0,1-5.74,13.72c-5.38,4.47-12.56,4.37-17.8,1.82a17.33,17.33,0,0,1-9.64-14.59l21.92-3,38-5.79v-.1a43.16,43.16,0,1,0-.15,3.94ZM66.56,43.17c1.91,0,3.49,2.5,3.52,5.63s-1.5,5.67-3.41,5.69-3.49-2.5-3.51-5.63S64.65,43.18,66.56,43.17ZM36.13,52.26c0-3.13,1.5-5.68,3.41-5.7s3.48,2.51,3.51,5.63-1.49,5.68-3.4,5.7S36.16,55.39,36.13,52.26Z"/><path class="cls-1" d="M16.35,71.28a6.22,6.22,0,0,1-4,2.17c-3.89.27-6.55-4.33-6.88-4.93-.24-.43-3.59-6.63.16-11,2.06-2.4,5.72-3.6,8.47-2.51C19.27,57.11,20.12,67,16.35,71.28Z"/><path class="cls-1" d="M12.74,52.32a9.76,9.76,0,0,1-6.21-1.86C2.87,47.61,3,42.62,3,40.28c0-1.53.41-10.38,7.75-14.58A15.91,15.91,0,0,1,21.34,24a11,11,0,0,1-1.21-5.53,8.35,8.35,0,0,1,2-5.59c2.37-2.43,6.11-2.1,8.61-1.89a17.73,17.73,0,0,1,5.45,1.38,16.29,16.29,0,0,1,4-5.38,16,16,0,0,1,12-3.93A16.07,16.07,0,0,1,63.28,9.66a17.89,17.89,0,0,1,7.72-3c1-.14,7.94-1,10.91,2.76a6.91,6.91,0,0,1,1.16,2.32,7.38,7.38,0,0,1-.77,5.32,13.11,13.11,0,0,1,7-.25C96.46,18.63,99,26.28,99.4,27.5c.84,2.52,2.67,8-.64,11.74-3.11,3.46-8.44,2.73-9.09,2.63A42.58,42.58,0,0,0,72,31.59c-17.61-4.95-33.69,3.85-42.54,8.69A83.53,83.53,0,0,0,12.74,52.32Z"/><path class="cls-1" d="M70.62,67a16.29,16.29,0,0,1-5.74,13.72c-5.38,4.47-12.56,4.37-17.8,1.82A17.33,17.33,0,0,1,37.44,68l21.92-3,38-5.79v-.1A43.16,43.16,0,1,0,97.21,63ZM66.06,42.67c1.91,0,3.49,2.5,3.52,5.63S68.08,54,66.17,54s-3.49-2.5-3.51-5.63S64.15,42.68,66.06,42.67ZM35.63,51.76c0-3.13,1.5-5.68,3.41-5.7s3.48,2.51,3.51,5.63-1.49,5.68-3.4,5.7S35.66,54.89,35.63,51.76Z"/><path class="cls-1" d="M15.85,70.78a6.22,6.22,0,0,1-4,2.17c-3.89.27-6.55-4.33-6.88-4.93-.24-.43-3.59-6.63.16-11,2.06-2.4,5.72-3.6,8.47-2.51C18.77,56.61,19.62,66.51,15.85,70.78Z"/><path class="cls-1" d="M12.24,51.82A9.76,9.76,0,0,1,6,50c-3.66-2.85-3.56-7.84-3.52-10.18,0-1.53.41-10.38,7.75-14.58a15.91,15.91,0,0,1,10.58-1.68A11,11,0,0,1,19.63,18a8.35,8.35,0,0,1,2-5.59C24,10,27.73,10.3,30.23,10.51a17.73,17.73,0,0,1,5.45,1.38,16.29,16.29,0,0,1,4-5.38,16,16,0,0,1,12-3.93A16.07,16.07,0,0,1,62.78,9.16a17.89,17.89,0,0,1,7.72-3c1-.14,7.94-1,10.91,2.76a6.91,6.91,0,0,1,1.16,2.32,7.38,7.38,0,0,1-.77,5.32,13.11,13.11,0,0,1,7-.25C96,18.13,98.5,25.78,98.9,27c.84,2.52,2.67,8-.64,11.74-3.11,3.46-8.44,2.73-9.09,2.63A42.58,42.58,0,0,0,71.46,31.09c-17.61-4.95-33.69,3.85-42.54,8.69A83.53,83.53,0,0,0,12.24,51.82Z"/><path class="cls-1" d="M70.12,66.54a16.29,16.29,0,0,1-5.74,13.72c-5.38,4.47-12.56,4.37-17.8,1.82a17.33,17.33,0,0,1-9.64-14.59l21.92-3,38-5.79v-.1a43.16,43.16,0,1,0-.15,3.94ZM65.56,42.17c1.91,0,3.49,2.5,3.52,5.63s-1.5,5.67-3.41,5.69-3.49-2.5-3.51-5.63S63.65,42.18,65.56,42.17ZM35.13,51.26c0-3.13,1.5-5.68,3.41-5.7s3.48,2.51,3.51,5.63-1.49,5.68-3.4,5.7S35.16,54.39,35.13,51.26Z"/><path class="cls-1" d="M15.35,70.28a6.22,6.22,0,0,1-4,2.17c-3.89.27-6.55-4.33-6.88-4.93-.24-.43-3.59-6.63.16-11,2.06-2.4,5.72-3.6,8.47-2.51C18.27,56.11,19.12,66,15.35,70.28Z"/><path class="cls-1" d="M11.74,51.32a9.76,9.76,0,0,1-6.21-1.86C1.87,46.61,2,41.62,2,39.28c0-1.53.41-10.38,7.75-14.58A15.91,15.91,0,0,1,20.34,23a11,11,0,0,1-1.21-5.53,8.35,8.35,0,0,1,2-5.59c2.37-2.43,6.11-2.1,8.61-1.89a17.73,17.73,0,0,1,5.45,1.38,16.29,16.29,0,0,1,4-5.38,16,16,0,0,1,12-3.93A16.07,16.07,0,0,1,62.28,8.66a17.89,17.89,0,0,1,7.72-3c1-.14,7.94-1,10.91,2.76a6.91,6.91,0,0,1,1.16,2.32,7.38,7.38,0,0,1-.77,5.32,13.11,13.11,0,0,1,7-.25C95.46,17.63,98,25.28,98.4,26.5c.84,2.52,2.67,8-.64,11.74-3.11,3.46-8.44,2.73-9.09,2.63A42.58,42.58,0,0,0,71,30.59c-17.61-4.95-33.69,3.85-42.54,8.69A83.53,83.53,0,0,0,11.74,51.32Z"/><path class="cls-1" d="M69.62,66a16.29,16.29,0,0,1-5.74,13.72c-5.38,4.47-12.56,4.37-17.8,1.82A17.33,17.33,0,0,1,36.44,67l21.92-3,38-5.79v-.1A43.16,43.16,0,1,0,96.21,62ZM65.06,41.67c1.91,0,3.49,2.5,3.52,5.63S67.08,53,65.17,53s-3.49-2.5-3.51-5.63S63.15,41.68,65.06,41.67ZM34.63,50.76c0-3.13,1.5-5.68,3.41-5.7s3.48,2.51,3.51,5.63-1.49,5.68-3.4,5.7S34.66,53.89,34.63,50.76Z"/><path class="cls-1" d="M14.85,69.78a6.22,6.22,0,0,1-4,2.17c-3.89.27-6.55-4.33-6.88-4.93-.24-.43-3.59-6.63.16-11,2.06-2.4,5.72-3.6,8.47-2.51C17.77,55.61,18.62,65.51,14.85,69.78Z"/><path class="cls-1" d="M11.24,50.82A9.76,9.76,0,0,1,5,49c-3.66-2.85-3.56-7.84-3.52-10.18,0-1.53.41-10.38,7.75-14.58a15.91,15.91,0,0,1,10.58-1.68A11,11,0,0,1,18.63,17a8.35,8.35,0,0,1,2-5.59C23,9,26.73,9.3,29.23,9.51a17.73,17.73,0,0,1,5.45,1.38,16.29,16.29,0,0,1,4-5.38,16,16,0,0,1,12-3.93A16.07,16.07,0,0,1,61.78,8.16a17.89,17.89,0,0,1,7.72-3c1-.14,7.94-1,10.91,2.76a6.91,6.91,0,0,1,1.16,2.32,7.38,7.38,0,0,1-.77,5.32,13.11,13.11,0,0,1,7-.25C95,17.13,97.5,24.78,97.9,26c.84,2.52,2.67,8-.64,11.74-3.11,3.46-8.44,2.73-9.09,2.63A42.58,42.58,0,0,0,70.46,30.09c-17.61-4.95-33.69,3.85-42.54,8.69A83.53,83.53,0,0,0,11.24,50.82Z"/><path class="cls-1" d="M69.12,65.54a16.29,16.29,0,0,1-5.74,13.72c-5.38,4.47-12.56,4.37-17.8,1.82a17.33,17.33,0,0,1-9.64-14.59l21.92-3,38-5.79v-.1a43.16,43.16,0,1,0-.15,3.94ZM64.56,41.17c1.91,0,3.49,2.5,3.52,5.63s-1.5,5.67-3.41,5.69-3.49-2.5-3.51-5.63S62.65,41.18,64.56,41.17ZM34.13,50.26c0-3.13,1.5-5.68,3.41-5.7s3.48,2.51,3.51,5.63-1.49,5.68-3.4,5.7S34.16,53.39,34.13,50.26Z"/><path class="cls-1" d="M14.35,69.28a6.22,6.22,0,0,1-4,2.17c-3.89.27-6.55-4.33-6.88-4.93-.24-.43-3.59-6.63.16-11,2.06-2.4,5.72-3.6,8.47-2.51C17.27,55.11,18.12,65,14.35,69.28Z"/><path class="cls-1" d="M10.74,50.32a9.76,9.76,0,0,1-6.21-1.86C.87,45.61,1,40.62,1,38.28c0-1.53.41-10.38,7.75-14.58A15.91,15.91,0,0,1,19.34,22a11,11,0,0,1-1.21-5.53,8.35,8.35,0,0,1,2-5.59C22.49,8.47,26.23,8.8,28.73,9a17.73,17.73,0,0,1,5.45,1.38,16.29,16.29,0,0,1,4-5.38,16,16,0,0,1,12-3.93A16.07,16.07,0,0,1,61.28,7.66a17.89,17.89,0,0,1,7.72-3c1-.14,7.94-1,10.91,2.76a6.91,6.91,0,0,1,1.16,2.32,7.38,7.38,0,0,1-.77,5.32,13.11,13.11,0,0,1,7-.25C94.46,16.63,97,24.28,97.4,25.5c.84,2.52,2.67,8-.64,11.74-3.11,3.46-8.44,2.73-9.09,2.63A42.58,42.58,0,0,0,70,29.59c-17.61-4.95-33.69,3.85-42.54,8.69A83.53,83.53,0,0,0,10.74,50.32Z"/><path class="cls-1" d="M68.62,65a16.29,16.29,0,0,1-5.74,13.72c-5.38,4.47-12.56,4.37-17.8,1.82A17.33,17.33,0,0,1,35.44,66l21.92-3,38-5.79v-.1A43.16,43.16,0,1,0,95.21,61ZM64.06,40.67c1.91,0,3.49,2.5,3.52,5.63S66.08,52,64.17,52s-3.49-2.5-3.51-5.63S62.15,40.68,64.06,40.67ZM33.63,49.76c0-3.13,1.5-5.68,3.41-5.7s3.48,2.51,3.51,5.63-1.49,5.68-3.4,5.7S33.66,52.89,33.63,49.76Z"/><path class="cls-1" d="M13.85,68.78a6.22,6.22,0,0,1-4,2.17c-3.89.27-6.55-4.33-6.88-4.93-.24-.43-3.59-6.63.16-11,2.06-2.4,5.72-3.6,8.47-2.51C16.77,54.61,17.62,64.51,13.85,68.78Z"/><path class="cls-1" d="M10.24,49.82A9.76,9.76,0,0,1,4,48C.37,45.11.47,40.12.51,37.78c0-1.53.41-10.38,7.75-14.58a15.91,15.91,0,0,1,10.58-1.68A11,11,0,0,1,17.63,16a8.35,8.35,0,0,1,2-5.59C22,8,25.73,8.3,28.23,8.51a17.73,17.73,0,0,1,5.45,1.38,16.29,16.29,0,0,1,4-5.38,16,16,0,0,1,12-3.93A16.07,16.07,0,0,1,60.78,7.16a17.89,17.89,0,0,1,7.72-3c1-.14,7.94-1,10.91,2.76a6.91,6.91,0,0,1,1.16,2.32,7.38,7.38,0,0,1-.77,5.32,13.11,13.11,0,0,1,7-.25C94,16.13,96.5,23.78,96.9,25c.84,2.52,2.67,8-.64,11.74-3.11,3.46-8.44,2.73-9.09,2.63A42.58,42.58,0,0,0,69.46,29.09c-17.61-4.95-33.69,3.85-42.54,8.69A83.53,83.53,0,0,0,10.24,49.82Z"/><path class="cls-2" d="M96.9,25c-.4-1.22-2.94-8.87-10.07-10.67a13.11,13.11,0,0,0-7,.25,7.38,7.38,0,0,0,.77-5.32,6.91,6.91,0,0,0-1.16-2.32c-3-3.8-9.87-2.9-10.91-2.76a17.89,17.89,0,0,0-7.72,3A16.07,16.07,0,0,0,49.67.58a16,16,0,0,0-12,3.93,16.29,16.29,0,0,0-4,5.38,17.73,17.73,0,0,0-5.45-1.38C25.73,8.3,22,8,19.62,10.4a8.35,8.35,0,0,0-2,5.59,11,11,0,0,0,1.21,5.53A15.91,15.91,0,0,0,8.26,23.2C.92,27.4.54,36.25.51,37.78.47,40.12.37,45.11,4,48a9.49,9.49,0,0,0,5.82,1.86c-.13.76-.25,1.53-.34,2.31A8.53,8.53,0,0,0,3.1,55c-3.75,4.35-.4,10.55-.16,11,.33.6,3,5.2,6.88,4.93a4.7,4.7,0,0,0,1.4-.31,43.1,43.1,0,0,0,84-9.65L68.62,65a16.29,16.29,0,0,1-5.74,13.72c-5.38,4.47-12.56,4.37-17.8,1.82A17.33,17.33,0,0,1,35.44,66l21.92-3,38-5.79v-.1a43,43,0,0,0-4-17.75,8.5,8.5,0,0,0,4.91-2.56C99.57,33.05,97.74,27.52,96.9,25ZM37.15,55.39c-1.92,0-3.49-2.5-3.52-5.63s1.5-5.68,3.41-5.7,3.48,2.51,3.51,5.63S39.06,55.37,37.15,55.39Zm27-3.4c-1.91,0-3.49-2.5-3.51-5.63s1.49-5.68,3.4-5.69,3.49,2.5,3.52,5.63S66.08,52,64.17,52Z"/><path class="cls-3" d="M9.83,50a41.76,41.76,0,0,1,14-19c7.82-5.85,15.54-7.15,21-8,5.19-.81,18.94-2.73,33,5a47.94,47.94,0,0,1,15,13"/></g></g></svg>