<svg xmlns="http://www.w3.org/2000/svg" viewBox="0 0 238.83 113.05"><defs><style>.cls-1{fill:#232253;}.cls-2,.cls-4{fill:#fff;}.cls-2,.cls-3{stroke:#232253;}.cls-2{stroke-miterlimit:10;}.cls-3{fill:none;stroke-linecap:round;stroke-linejoin:round;}</style></defs><title>Asset 10</title><g id="Layer_2" data-name="Layer 2"><g id="Layer_4" data-name="Layer 4"><path class="cls-1" d="M81.12,77.54a16.29,16.29,0,0,1-5.74,13.72c-5.38,4.47-12.56,4.37-17.8,1.82a17.33,17.33,0,0,1-9.64-14.59l21.92-3,38-5.79v-.1a43.16,43.16,0,1,0-.15,3.94ZM76.56,53.17c1.91,0,3.49,2.5,3.52,5.63s-1.5,5.67-3.41,5.69-3.49-2.5-3.51-5.63S74.65,53.18,76.56,53.17ZM46.13,62.26c0-3.13,1.5-5.68,3.41-5.7s3.48,2.51,3.51,5.63-1.49,5.68-3.4,5.7S46.16,65.39,46.13,62.26Z"/><path class="cls-1" d="M26.35,81.28a6.22,6.22,0,0,1-4,2.17c-3.89.27-6.55-4.33-6.88-4.93-.24-.43-3.59-6.63.16-11,2.06-2.4,5.72-3.6,8.47-2.51C29.27,67.11,30.12,77,26.35,81.28Z"/><path class="cls-1" d="M22.74,62.32a9.76,9.76,0,0,1-6.21-1.86C12.87,57.61,13,52.62,13,50.28c0-1.53.41-10.38,7.75-14.58A15.91,15.91,0,0,1,31.34,34a11,11,0,0,1-1.21-5.53,8.35,8.35,0,0,1,2-5.59c2.37-2.43,6.11-2.1,8.61-1.89a17.73,17.73,0,0,1,5.45,1.38,16.29,16.29,0,0,1,4-5.38,15.48,15.48,0,0,1,23.13,2.65,17.89,17.89,0,0,1,7.72-3c1-.14,7.94-1,10.91,2.76a6.91,6.91,0,0,1,1.16,2.32,7.38,7.38,0,0,1-.77,5.32,13.11,13.11,0,0,1,7-.25c7.13,1.8,9.67,9.45,10.07,10.67.84,2.52,2.67,8-.64,11.74-3.11,3.46-8.44,2.73-9.09,2.63A42.58,42.58,0,0,0,82,41.59c-17.61-5-33.69,3.85-42.54,8.69A83.53,83.53,0,0,0,22.74,62.32Z"/><path class="cls-1" d="M80.62,77a16.29,16.29,0,0,1-5.74,13.72c-5.38,4.47-12.56,4.37-17.8,1.82A17.33,17.33,0,0,1,47.44,78l21.92-3,38-5.79v-.1a43.16,43.16,0,1,0-.15,3.94ZM76.06,52.67c1.91,0,3.49,2.5,3.52,5.63S78.08,64,76.17,64s-3.49-2.5-3.51-5.63S74.15,52.68,76.06,52.67ZM45.63,61.76c0-3.13,1.5-5.68,3.41-5.7s3.48,2.51,3.51,5.63-1.49,5.68-3.4,5.7S45.66,64.89,45.63,61.76Z"/><path class="cls-1" d="M25.85,80.78a6.22,6.22,0,0,1-4,2.17c-3.89.27-6.55-4.33-6.88-4.93-.24-.43-3.59-6.63.16-11,2.06-2.4,5.72-3.6,8.47-2.51C28.77,66.61,29.62,76.51,25.85,80.78Z"/><path class="cls-1" d="M22.24,61.82A9.76,9.76,0,0,1,16,60c-3.66-2.85-3.56-7.84-3.52-10.18,0-1.53.41-10.38,7.75-14.58a15.91,15.91,0,0,1,10.58-1.68A11,11,0,0,1,29.63,28a8.35,8.35,0,0,1,2-5.59C34,20,37.73,20.3,40.23,20.51a17.73,17.73,0,0,1,5.45,1.38,16.29,16.29,0,0,1,4-5.38,15.48,15.48,0,0,1,23.13,2.65,17.89,17.89,0,0,1,7.72-3c1-.14,7.94-1,10.91,2.76a6.91,6.91,0,0,1,1.16,2.32,7.38,7.38,0,0,1-.77,5.32,13.11,13.11,0,0,1,7-.25C106,28.13,108.5,35.78,108.9,37c.84,2.52,2.67,8-.64,11.74-3.11,3.46-8.44,2.73-9.09,2.63A42.58,42.58,0,0,0,81.46,41.09c-17.61-5-33.69,3.85-42.54,8.69A83.53,83.53,0,0,0,22.24,61.82Z"/><path class="cls-1" d="M80.12,76.54a16.29,16.29,0,0,1-5.74,13.72c-5.38,4.47-12.56,4.37-17.8,1.82a17.33,17.33,0,0,1-9.64-14.59l21.92-3,38-5.79v-.1a43.16,43.16,0,1,0-.15,3.94ZM75.56,52.17c1.91,0,3.49,2.5,3.52,5.63s-1.5,5.67-3.41,5.69-3.49-2.5-3.51-5.63S73.65,52.18,75.56,52.17ZM45.13,61.26c0-3.13,1.5-5.68,3.41-5.7s3.48,2.51,3.51,5.63-1.49,5.68-3.4,5.7S45.16,64.39,45.13,61.26Z"/><path class="cls-1" d="M25.35,80.28a6.22,6.22,0,0,1-4,2.17c-3.89.27-6.55-4.33-6.88-4.93-.24-.43-3.59-6.63.16-11,2.06-2.4,5.72-3.6,8.47-2.51C28.27,66.11,29.12,76,25.35,80.28Z"/><path class="cls-1" d="M21.74,61.32a9.76,9.76,0,0,1-6.21-1.86C11.87,56.61,12,51.62,12,49.28c0-1.53.41-10.38,7.75-14.58A15.91,15.91,0,0,1,30.34,33a11,11,0,0,1-1.21-5.53,8.35,8.35,0,0,1,2-5.59c2.37-2.43,6.11-2.1,8.61-1.89a17.73,17.73,0,0,1,5.45,1.38,16.29,16.29,0,0,1,4-5.38,15.48,15.48,0,0,1,23.13,2.65,17.89,17.89,0,0,1,7.72-3c1-.14,7.94-1,10.91,2.76a6.91,6.91,0,0,1,1.16,2.32,7.38,7.38,0,0,1-.77,5.32,13.11,13.11,0,0,1,7-.25c7.13,1.8,9.67,9.45,10.07,10.67.84,2.52,2.67,8-.64,11.74-3.11,3.46-8.44,2.73-9.09,2.63A42.58,42.58,0,0,0,81,40.59c-17.61-5-33.69,3.85-42.54,8.69A83.53,83.53,0,0,0,21.74,61.32Z"/><path class="cls-1" d="M79.62,76a16.29,16.29,0,0,1-5.74,13.72c-5.38,4.47-12.56,4.37-17.8,1.82A17.33,17.33,0,0,1,46.44,77l21.92-3,38-5.79v-.1a43.16,43.16,0,1,0-.15,3.94ZM75.06,51.67c1.91,0,3.49,2.5,3.52,5.63S77.08,63,75.17,63s-3.49-2.5-3.51-5.63S73.15,51.68,75.06,51.67ZM44.63,60.76c0-3.13,1.5-5.68,3.41-5.7s3.48,2.51,3.51,5.63-1.49,5.68-3.4,5.7S44.66,63.89,44.63,60.76Z"/><path class="cls-1" d="M24.85,79.78a6.22,6.22,0,0,1-4,2.17c-3.89.27-6.55-4.33-6.88-4.93-.24-.43-3.59-6.63.16-11,2.06-2.4,5.72-3.6,8.47-2.51C27.77,65.61,28.62,75.51,24.85,79.78Z"/><path class="cls-1" d="M21.24,60.82A9.76,9.76,0,0,1,15,59c-3.66-2.85-3.56-7.84-3.52-10.18,0-1.53.41-10.38,7.75-14.58a15.91,15.91,0,0,1,10.58-1.68A11,11,0,0,1,28.63,27a8.35,8.35,0,0,1,2-5.59C33,19,36.73,19.3,39.23,19.51a17.73,17.73,0,0,1,5.45,1.38,16.29,16.29,0,0,1,4-5.38,15.48,15.48,0,0,1,23.13,2.65,17.89,17.89,0,0,1,7.72-3c1-.14,7.94-1,10.91,2.76a6.91,6.91,0,0,1,1.16,2.32,7.38,7.38,0,0,1-.77,5.32,13.11,13.11,0,0,1,7-.25C105,27.13,107.5,34.78,107.9,36c.84,2.52,2.67,8-.64,11.74-3.11,3.46-8.44,2.73-9.09,2.63A42.58,42.58,0,0,0,80.46,40.09c-17.61-5-33.69,3.85-42.54,8.69A83.53,83.53,0,0,0,21.24,60.82Z"/><path class="cls-1" d="M79.12,75.54a16.29,16.29,0,0,1-5.74,13.72c-5.38,4.47-12.56,4.37-17.8,1.82a17.33,17.33,0,0,1-9.64-14.59l21.92-3,38-5.79v-.1a43.16,43.16,0,1,0-.15,3.94ZM74.56,51.17c1.91,0,3.49,2.5,3.52,5.63s-1.5,5.67-3.41,5.69-3.49-2.5-3.51-5.63S72.65,51.18,74.56,51.17ZM44.13,60.26c0-3.13,1.5-5.68,3.41-5.7s3.48,2.51,3.51,5.63-1.49,5.68-3.4,5.7S44.16,63.39,44.13,60.26Z"/><path class="cls-1" d="M24.35,79.28a6.22,6.22,0,0,1-4,2.17c-3.89.27-6.55-4.33-6.88-4.93-.24-.43-3.59-6.63.16-11,2.06-2.4,5.72-3.6,8.47-2.51C27.27,65.11,28.12,75,24.35,79.28Z"/><path class="cls-1" d="M20.74,60.32a9.76,9.76,0,0,1-6.21-1.86C10.87,55.61,11,50.62,11,48.28c0-1.53.41-10.38,7.75-14.58A15.91,15.91,0,0,1,29.34,32a11,11,0,0,1-1.21-5.53,8.35,8.35,0,0,1,2-5.59c2.37-2.43,6.11-2.1,8.61-1.89a17.73,17.73,0,0,1,5.45,1.38,16.29,16.29,0,0,1,4-5.38,15.48,15.48,0,0,1,23.13,2.65,17.89,17.89,0,0,1,7.72-3c1-.14,7.94-1,10.91,2.76a6.91,6.91,0,0,1,1.16,2.32,7.38,7.38,0,0,1-.77,5.32,13.11,13.11,0,0,1,7-.25c7.13,1.8,9.67,9.45,10.07,10.67.84,2.52,2.67,8-.64,11.74-3.11,3.46-8.44,2.73-9.09,2.63A42.58,42.58,0,0,0,80,39.59c-17.61-5-33.69,3.85-42.54,8.69A83.53,83.53,0,0,0,20.74,60.32Z"/><path class="cls-1" d="M78.62,75a16.29,16.29,0,0,1-5.74,13.72c-5.38,4.47-12.56,4.37-17.8,1.82A17.33,17.33,0,0,1,45.44,76l21.92-3,38-5.79v-.1a43.16,43.16,0,1,0-.15,3.94ZM74.06,50.67c1.91,0,3.49,2.5,3.52,5.63S76.08,62,74.17,62s-3.49-2.5-3.51-5.63S72.15,50.68,74.06,50.67ZM43.63,59.76c0-3.13,1.5-5.68,3.41-5.7s3.48,2.51,3.51,5.63-1.49,5.68-3.4,5.7S43.66,62.89,43.63,59.76Z"/><path class="cls-1" d="M23.85,78.78a6.22,6.22,0,0,1-4,2.17c-3.89.27-6.55-4.33-6.88-4.93-.24-.43-3.59-6.63.16-11,2.06-2.4,5.72-3.6,8.47-2.51C26.77,64.61,27.62,74.51,23.85,78.78Z"/><path class="cls-1" d="M20.24,59.82A9.76,9.76,0,0,1,14,58c-3.66-2.85-3.56-7.84-3.52-10.18,0-1.53.41-10.38,7.75-14.58a15.91,15.91,0,0,1,10.58-1.68A11,11,0,0,1,27.63,26a8.35,8.35,0,0,1,2-5.59C32,18,35.73,18.3,38.23,18.51a17.73,17.73,0,0,1,5.45,1.38,16.29,16.29,0,0,1,4-5.38,15.48,15.48,0,0,1,23.13,2.65,17.89,17.89,0,0,1,7.72-3c1-.14,7.94-1,10.91,2.76a6.91,6.91,0,0,1,1.16,2.32,7.38,7.38,0,0,1-.77,5.32,13.11,13.11,0,0,1,7-.25C104,26.13,106.5,33.78,106.9,35c.84,2.52,2.67,8-.64,11.74-3.11,3.46-8.44,2.73-9.09,2.63A42.58,42.58,0,0,0,79.46,39.09c-17.61-5-33.69,3.85-42.54,8.69A83.53,83.53,0,0,0,20.24,59.82Z"/><path class="cls-1" d="M78.12,74.54a16.29,16.29,0,0,1-5.74,13.72c-5.38,4.47-12.56,4.37-17.8,1.82a17.33,17.33,0,0,1-9.64-14.59l21.92-3,38-5.79v-.1a43.16,43.16,0,1,0-.15,3.94ZM73.56,50.17c1.91,0,3.49,2.5,3.52,5.63s-1.5,5.67-3.41,5.69-3.49-2.5-3.51-5.63S71.65,50.18,73.56,50.17ZM43.13,59.26c0-3.13,1.5-5.68,3.41-5.7s3.48,2.51,3.51,5.63-1.49,5.68-3.4,5.7S43.16,62.39,43.13,59.26Z"/><path class="cls-1" d="M23.35,78.28a6.22,6.22,0,0,1-4,2.17c-3.89.27-6.55-4.33-6.88-4.93-.24-.43-3.59-6.63.16-11,2.06-2.4,5.72-3.6,8.47-2.51C26.27,64.11,27.12,74,23.35,78.28Z"/><path class="cls-1" d="M19.74,59.32a9.76,9.76,0,0,1-6.21-1.86C9.87,54.61,10,49.62,10,47.28c0-1.53.41-10.38,7.75-14.58A15.91,15.91,0,0,1,28.34,31a11,11,0,0,1-1.21-5.53,8.35,8.35,0,0,1,2-5.59c2.37-2.43,6.11-2.1,8.61-1.89a17.73,17.73,0,0,1,5.45,1.38,16.29,16.29,0,0,1,4-5.38,15.48,15.48,0,0,1,23.13,2.65,17.89,17.89,0,0,1,7.72-3c1-.14,7.94-1,10.91,2.76a6.91,6.91,0,0,1,1.16,2.32,7.38,7.38,0,0,1-.77,5.32,13.11,13.11,0,0,1,7-.25c7.13,1.8,9.67,9.45,10.07,10.67.84,2.52,2.67,8-.64,11.74-3.11,3.46-8.44,2.73-9.09,2.63A42.58,42.58,0,0,0,79,38.59c-17.61-5-33.69,3.85-42.54,8.69A83.53,83.53,0,0,0,19.74,59.32Z"/><path class="cls-1" d="M77.62,74a16.29,16.29,0,0,1-5.74,13.72c-5.38,4.47-12.56,4.37-17.8,1.82A17.33,17.33,0,0,1,44.44,75l21.92-3,38-5.79v-.1a43.16,43.16,0,1,0-.15,3.94ZM73.06,49.67c1.91,0,3.49,2.5,3.52,5.63S75.08,61,73.17,61s-3.49-2.5-3.51-5.63S71.15,49.68,73.06,49.67ZM42.63,58.76c0-3.13,1.5-5.68,3.41-5.7s3.48,2.51,3.51,5.63-1.49,5.68-3.4,5.7S42.66,61.89,42.63,58.76Z"/><path class="cls-1" d="M22.85,77.78a6.22,6.22,0,0,1-4,2.17c-3.89.27-6.55-4.33-6.88-4.93-.24-.43-3.59-6.63.16-11,2.06-2.4,5.72-3.6,8.47-2.51C25.77,63.61,26.62,73.51,22.85,77.78Z"/><path class="cls-1" d="M19.24,58.82A9.76,9.76,0,0,1,13,57c-3.66-2.85-3.56-7.84-3.52-10.18,0-1.53.41-10.38,7.75-14.58a15.91,15.91,0,0,1,10.58-1.68A11,11,0,0,1,26.63,25a8.35,8.35,0,0,1,2-5.59C31,17,34.73,17.3,37.23,17.51a17.73,17.73,0,0,1,5.45,1.38,16.29,16.29,0,0,1,4-5.38,15.48,15.48,0,0,1,23.13,2.65,17.89,17.89,0,0,1,7.72-3c1-.14,7.94-1,10.91,2.76a6.91,6.91,0,0,1,1.16,2.32,7.38,7.38,0,0,1-.77,5.32,13.11,13.11,0,0,1,7-.25C103,25.13,105.5,32.78,105.9,34c.84,2.52,2.67,8-.64,11.74-3.11,3.46-8.44,2.73-9.09,2.63A42.58,42.58,0,0,0,78.46,38.09c-17.61-5-33.69,3.85-42.54,8.69A83.53,83.53,0,0,0,19.24,58.82Z"/><path class="cls-1" d="M77.12,73.54a16.29,16.29,0,0,1-5.74,13.72c-5.38,4.47-12.56,4.37-17.8,1.82a17.33,17.33,0,0,1-9.64-14.59l21.92-3,38-5.79v-.1a43.16,43.16,0,1,0-.15,3.94ZM72.56,49.17c1.91,0,3.49,2.5,3.52,5.63s-1.5,5.67-3.41,5.69-3.49-2.5-3.51-5.63S70.65,49.18,72.56,49.17ZM42.13,58.26c0-3.13,1.5-5.68,3.41-5.7s3.48,2.51,3.51,5.63-1.49,5.68-3.4,5.7S42.16,61.39,42.13,58.26Z"/><path class="cls-1" d="M22.35,77.28a6.22,6.22,0,0,1-4,2.17c-3.89.27-6.55-4.33-6.88-4.93-.24-.43-3.59-6.63.16-11,2.06-2.4,5.72-3.6,8.47-2.51C25.27,63.11,26.12,73,22.35,77.28Z"/><path class="cls-1" d="M18.74,58.32a9.76,9.76,0,0,1-6.21-1.86C8.87,53.61,9,48.62,9,46.28c0-1.53.41-10.38,7.75-14.58A15.91,15.91,0,0,1,27.34,30a11,11,0,0,1-1.21-5.53,8.35,8.35,0,0,1,2-5.59c2.37-2.43,6.11-2.1,8.61-1.89a17.73,17.73,0,0,1,5.45,1.38,16.29,16.29,0,0,1,4-5.38,15.48,15.48,0,0,1,23.13,2.65,17.89,17.89,0,0,1,7.72-3c1-.14,7.94-1,10.91,2.76a6.91,6.91,0,0,1,1.16,2.32,7.38,7.38,0,0,1-.77,5.32,13.11,13.11,0,0,1,7-.25c7.13,1.8,9.67,9.45,10.07,10.67.84,2.52,2.67,8-.64,11.74-3.11,3.46-8.44,2.73-9.09,2.63A42.58,42.58,0,0,0,78,37.59c-17.61-5-33.69,3.85-42.54,8.69A83.53,83.53,0,0,0,18.74,58.32Z"/><path class="cls-1" d="M76.62,73a16.29,16.29,0,0,1-5.74,13.72c-5.38,4.47-12.56,4.37-17.8,1.82A17.33,17.33,0,0,1,43.44,74l21.92-3,38-5.79v-.1a43.16,43.16,0,1,0-.15,3.94ZM72.06,48.67c1.91,0,3.49,2.5,3.52,5.63S74.08,60,72.17,60s-3.49-2.5-3.51-5.63S70.15,48.68,72.06,48.67ZM41.63,57.76c0-3.13,1.5-5.68,3.41-5.7s3.48,2.51,3.51,5.63-1.49,5.68-3.4,5.7S41.66,60.89,41.63,57.76Z"/><path class="cls-1" d="M21.85,76.78a6.22,6.22,0,0,1-4,2.17c-3.89.27-6.55-4.33-6.88-4.93-.24-.43-3.59-6.63.16-11,2.06-2.4,5.72-3.6,8.47-2.51C24.77,62.61,25.62,72.51,21.85,76.78Z"/><path class="cls-1" d="M18.24,57.82A9.76,9.76,0,0,1,12,56c-3.66-2.85-3.56-7.84-3.52-10.18,0-1.53.41-10.38,7.75-14.58a15.91,15.91,0,0,1,10.58-1.68A11,11,0,0,1,25.63,24a8.35,8.35,0,0,1,2-5.59C30,16,33.73,16.3,36.23,16.51a17.73,17.73,0,0,1,5.45,1.38,16.29,16.29,0,0,1,4-5.38,15.48,15.48,0,0,1,23.13,2.65,17.89,17.89,0,0,1,7.72-3c1-.14,7.94-1,10.91,2.76a6.91,6.91,0,0,1,1.16,2.32,7.38,7.38,0,0,1-.77,5.32,13.11,13.11,0,0,1,7-.25C102,24.13,104.5,31.78,104.9,33c.84,2.52,2.67,8-.64,11.74-3.11,3.46-8.44,2.73-9.09,2.63A42.58,42.58,0,0,0,77.46,37.09c-17.61-5-33.69,3.85-42.54,8.69A83.53,83.53,0,0,0,18.24,57.82Z"/><path class="cls-1" d="M76.12,72.54a16.29,16.29,0,0,1-5.74,13.72c-5.38,4.47-12.56,4.37-17.8,1.82a17.33,17.33,0,0,1-9.64-14.59l21.92-3,38-5.79v-.1a43.16,43.16,0,1,0-.15,3.94ZM71.56,48.17c1.91,0,3.49,2.5,3.52,5.63s-1.5,5.67-3.41,5.69-3.49-2.5-3.51-5.63S69.65,48.18,71.56,48.17ZM41.13,57.26c0-3.13,1.5-5.68,3.41-5.7s3.48,2.51,3.51,5.63-1.49,5.68-3.4,5.7S41.16,60.39,41.13,57.26Z"/><path class="cls-1" d="M21.35,76.28a6.22,6.22,0,0,1-4,2.17c-3.89.27-6.55-4.33-6.88-4.93-.24-.43-3.59-6.63.16-11,2.06-2.4,5.72-3.6,8.47-2.51C24.27,62.11,25.12,72,21.35,76.28Z"/><path class="cls-1" d="M17.74,57.32a9.76,9.76,0,0,1-6.21-1.86C7.87,52.61,8,47.62,8,45.28c0-1.53.41-10.38,7.75-14.58A15.91,15.91,0,0,1,26.34,29a11,11,0,0,1-1.21-5.53,8.35,8.35,0,0,1,2-5.59c2.37-2.43,6.11-2.1,8.61-1.89a17.73,17.73,0,0,1,5.45,1.38,16.29,16.29,0,0,1,4-5.38,15.48,15.48,0,0,1,23.13,2.65,17.89,17.89,0,0,1,7.72-3c1-.14,7.94-1,10.91,2.76a6.91,6.91,0,0,1,1.16,2.32,7.38,7.38,0,0,1-.77,5.32,13.11,13.11,0,0,1,7-.25c7.13,1.8,9.67,9.45,10.07,10.67.84,2.52,2.67,8-.64,11.74-3.11,3.46-8.44,2.73-9.09,2.63A42.58,42.58,0,0,0,77,36.59c-17.61-5-33.69,3.85-42.54,8.69A83.53,83.53,0,0,0,17.74,57.32Z"/><path class="cls-1" d="M75.62,72a16.29,16.29,0,0,1-5.74,13.72c-5.38,4.47-12.56,4.37-17.8,1.82A17.33,17.33,0,0,1,42.44,73l21.92-3,38-5.79v-.1a43.16,43.16,0,1,0-.15,3.94ZM71.06,47.67c1.91,0,3.49,2.5,3.52,5.63S73.08,59,71.17,59s-3.49-2.5-3.51-5.63S69.15,47.68,71.06,47.67ZM40.63,56.76c0-3.13,1.5-5.68,3.41-5.7s3.48,2.51,3.51,5.63-1.49,5.68-3.4,5.7S40.66,59.89,40.63,56.76Z"/><path class="cls-1" d="M20.85,75.78a6.22,6.22,0,0,1-4,2.17c-3.89.27-6.55-4.33-6.88-4.93-.24-.43-3.59-6.63.16-11,2.06-2.4,5.72-3.6,8.47-2.51C23.77,61.61,24.62,71.51,20.85,75.78Z"/><path class="cls-1" d="M17.24,56.82A9.76,9.76,0,0,1,11,55c-3.66-2.85-3.56-7.84-3.52-10.18,0-1.53.41-10.38,7.75-14.58a15.91,15.91,0,0,1,10.58-1.68A11,11,0,0,1,24.63,23a8.35,8.35,0,0,1,2-5.59C29,15,32.73,15.3,35.23,15.51a17.73,17.73,0,0,1,5.45,1.38,16.29,16.29,0,0,1,4-5.38,15.48,15.48,0,0,1,23.13,2.65,17.89,17.89,0,0,1,7.72-3c1-.14,7.94-1,10.91,2.76a6.91,6.91,0,0,1,1.16,2.32,7.38,7.38,0,0,1-.77,5.32,13.11,13.11,0,0,1,7-.25C101,23.13,103.5,30.78,103.9,32c.84,2.52,2.67,8-.64,11.74-3.11,3.46-8.44,2.73-9.09,2.63A42.58,42.58,0,0,0,76.46,36.09c-17.61-5-33.69,3.85-42.54,8.69A83.53,83.53,0,0,0,17.24,56.82Z"/><path class="cls-1" d="M75.12,71.54a16.29,16.29,0,0,1-5.74,13.72c-5.38,4.47-12.56,4.37-17.8,1.82a17.33,17.33,0,0,1-9.64-14.59l21.92-3,38-5.79v-.1a43.16,43.16,0,1,0-.15,3.94ZM70.56,47.17c1.91,0,3.49,2.5,3.52,5.63s-1.5,5.67-3.41,5.69-3.49-2.5-3.51-5.63S68.65,47.18,70.56,47.17ZM40.13,56.26c0-3.13,1.5-5.68,3.41-5.7s3.48,2.51,3.51,5.63-1.49,5.68-3.4,5.7S40.16,59.39,40.13,56.26Z"/><path class="cls-1" d="M20.35,75.28a6.22,6.22,0,0,1-4,2.17c-3.89.27-6.55-4.33-6.88-4.93-.24-.43-3.59-6.63.16-11,2.06-2.4,5.72-3.6,8.47-2.51C23.27,61.11,24.12,71,20.35,75.28Z"/><path class="cls-1" d="M16.74,56.32a9.76,9.76,0,0,1-6.21-1.86C6.87,51.61,7,46.62,7,44.28c0-1.53.41-10.38,7.75-14.58A15.91,15.91,0,0,1,25.34,28a11,11,0,0,1-1.21-5.53,8.35,8.35,0,0,1,2-5.59c2.37-2.43,6.11-2.1,8.61-1.89a17.73,17.73,0,0,1,5.45,1.38,16.29,16.29,0,0,1,4-5.38,15.48,15.48,0,0,1,23.13,2.65,17.89,17.89,0,0,1,7.72-3c1-.14,7.94-1,10.91,2.76a6.91,6.91,0,0,1,1.16,2.32,7.38,7.38,0,0,1-.77,5.32,13.11,13.11,0,0,1,7-.25c7.13,1.8,9.67,9.45,10.07,10.67.84,2.52,2.67,8-.64,11.74-3.11,3.46-8.44,2.73-9.09,2.63A42.58,42.58,0,0,0,76,35.59c-17.61-5-33.69,3.85-42.54,8.69A83.53,83.53,0,0,0,16.74,56.32Z"/><path class="cls-1" d="M74.62,71a16.29,16.29,0,0,1-5.74,13.72c-5.38,4.47-12.56,4.37-17.8,1.82A17.33,17.33,0,0,1,41.44,72l21.92-3,38-5.79v-.1a43.16,43.16,0,1,0-.15,3.94ZM70.06,46.67c1.91,0,3.49,2.5,3.52,5.63S72.08,58,70.17,58s-3.49-2.5-3.51-5.63S68.15,46.68,70.06,46.67ZM39.63,55.76c0-3.13,1.5-5.68,3.41-5.7s3.48,2.51,3.51,5.63-1.49,5.68-3.4,5.7S39.66,58.89,39.63,55.76Z"/><path class="cls-1" d="M19.85,74.78a6.22,6.22,0,0,1-4,2.17c-3.89.27-6.55-4.33-6.88-4.93-.24-.43-3.59-6.63.16-11,2.06-2.4,5.72-3.6,8.47-2.51C22.77,60.61,23.62,70.51,19.85,74.78Z"/><path class="cls-1" d="M16.24,55.82A9.76,9.76,0,0,1,10,54c-3.66-2.85-3.56-7.84-3.52-10.18,0-1.53.41-10.38,7.75-14.58a15.91,15.91,0,0,1,10.58-1.68A11,11,0,0,1,23.63,22a8.35,8.35,0,0,1,2-5.59C28,14,31.73,14.3,34.23,14.51a17.73,17.73,0,0,1,5.45,1.38,16.29,16.29,0,0,1,4-5.38,15.48,15.48,0,0,1,23.13,2.65,17.89,17.89,0,0,1,7.72-3c1-.14,7.94-1,10.91,2.76a6.91,6.91,0,0,1,1.16,2.32,7.38,7.38,0,0,1-.77,5.32,13.11,13.11,0,0,1,7-.25C100,22.13,102.5,29.78,102.9,31c.84,2.52,2.67,8-.64,11.74-3.11,3.46-8.44,2.73-9.09,2.63A42.58,42.58,0,0,0,75.46,35.09c-17.61-5-33.69,3.85-42.54,8.69A83.53,83.53,0,0,0,16.24,55.82Z"/><path class="cls-1" d="M74.12,70.54a16.29,16.29,0,0,1-5.74,13.72c-5.38,4.47-12.56,4.37-17.8,1.82a17.33,17.33,0,0,1-9.64-14.59l21.92-3,38-5.79v-.1a43.16,43.16,0,1,0-.15,3.94ZM69.56,46.17c1.91,0,3.49,2.5,3.52,5.63s-1.5,5.67-3.41,5.69-3.49-2.5-3.51-5.63S67.65,46.18,69.56,46.17ZM39.13,55.26c0-3.13,1.5-5.68,3.41-5.7s3.48,2.51,3.51,5.63-1.49,5.68-3.4,5.7S39.16,58.39,39.13,55.26Z"/><path class="cls-1" d="M19.35,74.28a6.22,6.22,0,0,1-4,2.17c-3.89.27-6.55-4.33-6.88-4.93-.24-.43-3.59-6.63.16-11,2.06-2.4,5.72-3.6,8.47-2.51C22.27,60.11,23.12,70,19.35,74.28Z"/><path class="cls-1" d="M15.74,55.32a9.76,9.76,0,0,1-6.21-1.86C5.87,50.61,6,45.62,6,43.28c0-1.53.41-10.38,7.75-14.58A15.91,15.91,0,0,1,24.34,27a11,11,0,0,1-1.21-5.53,8.35,8.35,0,0,1,2-5.59c2.37-2.43,6.11-2.1,8.61-1.89a17.73,17.73,0,0,1,5.45,1.38,16.29,16.29,0,0,1,4-5.38,15.48,15.48,0,0,1,23.13,2.65,17.89,17.89,0,0,1,7.72-3c1-.14,7.94-1,10.91,2.76a6.91,6.91,0,0,1,1.16,2.32,7.38,7.38,0,0,1-.77,5.32,13.11,13.11,0,0,1,7-.25c7.13,1.8,9.67,9.45,10.07,10.67.84,2.52,2.67,8-.64,11.74-3.11,3.46-8.44,2.73-9.09,2.63A42.58,42.58,0,0,0,75,34.59c-17.61-5-33.69,3.85-42.54,8.69A83.53,83.53,0,0,0,15.74,55.32Z"/><path class="cls-1" d="M73.62,70a16.29,16.29,0,0,1-5.74,13.72c-5.38,4.47-12.56,4.37-17.8,1.82A17.33,17.33,0,0,1,40.44,71l21.92-3,38-5.79v-.1a43.16,43.16,0,1,0-.15,3.94ZM69.06,45.67c1.91,0,3.49,2.5,3.52,5.63S71.08,57,69.17,57s-3.49-2.5-3.51-5.63S67.15,45.68,69.06,45.67ZM38.63,54.76c0-3.13,1.5-5.68,3.41-5.7s3.48,2.51,3.51,5.63-1.49,5.68-3.4,5.7S38.66,57.89,38.63,54.76Z"/><path class="cls-1" d="M18.85,73.78a6.22,6.22,0,0,1-4,2.17c-3.89.27-6.55-4.33-6.88-4.93-.24-.43-3.59-6.63.16-11,2.06-2.4,5.72-3.6,8.47-2.51C21.77,59.61,22.62,69.51,18.85,73.78Z"/><path class="cls-1" d="M15.24,54.82A9.76,9.76,0,0,1,9,53c-3.66-2.85-3.56-7.84-3.52-10.18,0-1.53.41-10.38,7.75-14.58a15.91,15.91,0,0,1,10.58-1.68A11,11,0,0,1,22.63,21a8.35,8.35,0,0,1,2-5.59C27,13,30.73,13.3,33.23,13.51a17.73,17.73,0,0,1,5.45,1.38,16.29,16.29,0,0,1,4-5.38,15.48,15.48,0,0,1,23.13,2.65,17.89,17.89,0,0,1,7.72-3c1-.14,7.94-1,10.91,2.76a6.91,6.91,0,0,1,1.16,2.32,7.38,7.38,0,0,1-.77,5.32,13.11,13.11,0,0,1,7-.25C99,21.13,101.5,28.78,101.9,30c.84,2.52,2.67,8-.64,11.74-3.11,3.46-8.44,2.73-9.09,2.63A42.58,42.58,0,0,0,74.46,34.09c-17.61-5-33.69,3.85-42.54,8.69A83.53,83.53,0,0,0,15.24,54.82Z"/><path class="cls-1" d="M73.12,69.54a16.29,16.29,0,0,1-5.74,13.72c-5.38,4.47-12.56,4.37-17.8,1.82a17.33,17.33,0,0,1-9.64-14.59l21.92-3,38-5.79v-.1a43.16,43.16,0,1,0-.15,3.94ZM68.56,45.17c1.91,0,3.49,2.5,3.52,5.63s-1.5,5.67-3.41,5.69-3.49-2.5-3.51-5.63S66.65,45.18,68.56,45.17ZM38.13,54.26c0-3.13,1.5-5.68,3.41-5.7s3.48,2.51,3.51,5.63-1.49,5.68-3.4,5.7S38.16,57.39,38.13,54.26Z"/><path class="cls-1" d="M18.35,73.28a6.22,6.22,0,0,1-4,2.17c-3.89.27-6.55-4.33-6.88-4.93-.24-.43-3.59-6.63.16-11,2.06-2.4,5.72-3.6,8.47-2.51C21.27,59.11,22.12,69,18.35,73.28Z"/><path class="cls-1" d="M14.74,54.32a9.76,9.76,0,0,1-6.21-1.86C4.87,49.61,5,44.62,5,42.28c0-1.53.41-10.38,7.75-14.58A15.91,15.91,0,0,1,23.34,26a11,11,0,0,1-1.21-5.53,8.35,8.35,0,0,1,2-5.59c2.37-2.43,6.11-2.1,8.61-1.89a17.73,17.73,0,0,1,5.45,1.38,16.29,16.29,0,0,1,4-5.38,15.48,15.48,0,0,1,23.13,2.65,17.89,17.89,0,0,1,7.72-3c1-.14,7.94-1,10.91,2.76a6.91,6.91,0,0,1,1.16,2.32,7.38,7.38,0,0,1-.77,5.32,13.11,13.11,0,0,1,7-.25c7.13,1.8,9.67,9.45,10.07,10.67.84,2.52,2.67,8-.64,11.74-3.11,3.46-8.44,2.73-9.09,2.63A42.58,42.58,0,0,0,74,33.59c-17.61-5-33.69,3.85-42.54,8.69A83.53,83.53,0,0,0,14.74,54.32Z"/><path class="cls-1" d="M72.62,69a16.29,16.29,0,0,1-5.74,13.72c-5.38,4.47-12.56,4.37-17.8,1.82A17.33,17.33,0,0,1,39.44,70l21.92-3,38-5.79v-.1A43.16,43.16,0,1,0,99.21,65ZM68.06,44.67c1.91,0,3.49,2.5,3.52,5.63S70.08,56,68.17,56s-3.49-2.5-3.51-5.63S66.15,44.68,68.06,44.67ZM37.63,53.76c0-3.13,1.5-5.68,3.41-5.7s3.48,2.51,3.51,5.63-1.49,5.68-3.4,5.7S37.66,56.89,37.63,53.76Z"/><path class="cls-1" d="M17.85,72.78a6.22,6.22,0,0,1-4,2.17c-3.89.27-6.55-4.33-6.88-4.93-.24-.43-3.59-6.63.16-11,2.06-2.4,5.72-3.6,8.47-2.51C20.77,58.61,21.62,68.51,17.85,72.78Z"/><path class="cls-1" d="M14.24,53.82A9.76,9.76,0,0,1,8,52c-3.66-2.85-3.56-7.84-3.52-10.18,0-1.53.41-10.38,7.75-14.58a15.91,15.91,0,0,1,10.58-1.68A11,11,0,0,1,21.63,20a8.35,8.35,0,0,1,2-5.59C26,12,29.73,12.3,32.23,12.51a17.73,17.73,0,0,1,5.45,1.38,16.29,16.29,0,0,1,4-5.38,15.48,15.48,0,0,1,23.13,2.65,17.89,17.89,0,0,1,7.72-3c1-.14,7.94-1,10.91,2.76a6.91,6.91,0,0,1,1.16,2.32,7.38,7.38,0,0,1-.77,5.32,13.11,13.11,0,0,1,7-.25C98,20.13,100.5,27.78,100.9,29c.84,2.52,2.67,8-.64,11.74-3.11,3.46-8.44,2.73-9.09,2.63A42.58,42.58,0,0,0,73.46,33.09c-17.61-5-33.69,3.85-42.54,8.69A83.53,83.53,0,0,0,14.24,53.82Z"/><path class="cls-1" d="M72.12,68.54a16.29,16.29,0,0,1-5.74,13.72c-5.38,4.47-12.56,4.37-17.8,1.82a17.33,17.33,0,0,1-9.64-14.59l21.92-3,38-5.79v-.1a43.16,43.16,0,1,0-.15,3.94ZM67.56,44.17c1.91,0,3.49,2.5,3.52,5.63s-1.5,5.67-3.41,5.69-3.49-2.5-3.51-5.63S65.65,44.18,67.56,44.17ZM37.13,53.26c0-3.13,1.5-5.68,3.41-5.7s3.48,2.51,3.51,5.63-1.49,5.68-3.4,5.7S37.16,56.39,37.13,53.26Z"/><path class="cls-1" d="M17.35,72.28a6.22,6.22,0,0,1-4,2.17c-3.89.27-6.55-4.33-6.88-4.93-.24-.43-3.59-6.63.16-11,2.06-2.4,5.72-3.6,8.47-2.51C20.27,58.11,21.12,68,17.35,72.28Z"/><path class="cls-1" d="M13.74,53.32a9.76,9.76,0,0,1-6.21-1.86C3.87,48.61,4,43.62,4,41.28c0-1.53.41-10.38,7.75-14.58A15.91,15.91,0,0,1,22.34,25a11,11,0,0,1-1.21-5.53,8.35,8.35,0,0,1,2-5.59c2.37-2.43,6.11-2.1,8.61-1.89a17.73,17.73,0,0,1,5.45,1.38,16.29,16.29,0,0,1,4-5.38,15.48,15.48,0,0,1,23.13,2.65,17.89,17.89,0,0,1,7.72-3c1-.14,7.94-1,10.91,2.76a6.91,6.91,0,0,1,1.16,2.32,7.38,7.38,0,0,1-.77,5.32,13.11,13.11,0,0,1,7-.25c7.13,1.8,9.67,9.45,10.07,10.67.84,2.52,2.67,8-.64,11.74-3.11,3.46-8.44,2.73-9.09,2.63A42.58,42.58,0,0,0,73,32.59c-17.61-5-33.69,3.85-42.54,8.69A83.53,83.53,0,0,0,13.74,53.32Z"/><path class="cls-1" d="M71.62,68a16.29,16.29,0,0,1-5.74,13.72c-5.38,4.47-12.56,4.37-17.8,1.82A17.33,17.33,0,0,1,38.44,69l21.92-3,38-5.79v-.1A43.16,43.16,0,1,0,98.21,64ZM67.06,43.67c1.91,0,3.49,2.5,3.52,5.63S69.08,55,67.17,55s-3.49-2.5-3.51-5.63S65.15,43.68,67.06,43.67ZM36.63,52.76c0-3.13,1.5-5.68,3.41-5.7s3.48,2.51,3.51,5.63-1.49,5.68-3.4,5.7S36.66,55.89,36.63,52.76Z"/><path class="cls-1" d="M16.85,71.78a6.22,6.22,0,0,1-4,2.17c-3.89.27-6.55-4.33-6.88-4.93-.24-.43-3.59-6.63.16-11,2.06-2.4,5.72-3.6,8.47-2.51C19.77,57.61,20.62,67.51,16.85,71.78Z"/><path class="cls-1" d="M13.24,52.82A9.76,9.76,0,0,1,7,51c-3.66-2.85-3.56-7.84-3.52-10.18,0-1.53.41-10.38,7.75-14.58a15.91,15.91,0,0,1,10.58-1.68A11,11,0,0,1,20.63,19a8.35,8.35,0,0,1,2-5.59C25,11,28.73,11.3,31.23,11.51a17.73,17.73,0,0,1,5.45,1.38,16.29,16.29,0,0,1,4-5.38,15.48,15.48,0,0,1,23.13,2.65,17.89,17.89,0,0,1,7.72-3c1-.14,7.94-1,10.91,2.76a6.91,6.91,0,0,1,1.16,2.32,7.38,7.38,0,0,1-.77,5.32,13.11,13.11,0,0,1,7-.25C97,19.13,99.5,26.78,99.9,28c.84,2.52,2.67,8-.64,11.74-3.11,3.46-8.44,2.73-9.09,2.63A42.58,42.58,0,0,0,72.46,32.09c-17.61-5-33.69,3.85-42.54,8.69A83.53,83.53,0,0,0,13.24,52.82Z"/><path class="cls-1" d="M71.12,67.54a16.29,16.29,0,0,1-5.74,13.72c-5.38,4.47-12.56,4.37-17.8,1.82a17.33,17.33,0,0,1-9.64-14.59l21.92-3,38-5.79v-.1a43.16,43.16,0,1,0-.15,3.94ZM66.56,43.17c1.91,0,3.49,2.5,3.52,5.63s-1.5,5.67-3.41,5.69-3.49-2.5-3.51-5.63S64.65,43.18,66.56,43.17ZM36.13,52.26c0-3.13,1.5-5.68,3.41-5.7s3.48,2.51,3.51,5.63-1.49,5.68-3.4,5.7S36.16,55.39,36.13,52.26Z"/><path class="cls-1" d="M16.35,71.28a6.22,6.22,0,0,1-4,2.17c-3.89.27-6.55-4.33-6.88-4.93-.24-.43-3.59-6.63.16-11,2.06-2.4,5.72-3.6,8.47-2.51C19.27,57.11,20.12,67,16.35,71.28Z"/><path class="cls-1" d="M12.74,52.32a9.76,9.76,0,0,1-6.21-1.86C2.87,47.61,3,42.62,3,40.28c0-1.53.41-10.38,7.75-14.58A15.91,15.91,0,0,1,21.34,24a11,11,0,0,1-1.21-5.53,8.35,8.35,0,0,1,2-5.59c2.37-2.43,6.11-2.1,8.61-1.89a17.73,17.73,0,0,1,5.45,1.38,16.29,16.29,0,0,1,4-5.38,16,16,0,0,1,12-3.93A16.07,16.07,0,0,1,63.28,9.66a17.89,17.89,0,0,1,7.72-3c1-.14,7.94-1,10.91,2.76a6.91,6.91,0,0,1,1.16,2.32,7.38,7.38,0,0,1-.77,5.32,13.11,13.11,0,0,1,7-.25C96.46,18.63,99,26.28,99.4,27.5c.84,2.52,2.67,8-.64,11.74-3.11,3.46-8.44,2.73-9.09,2.63A42.58,42.58,0,0,0,72,31.59c-17.61-4.95-33.69,3.85-42.54,8.69A83.53,83.53,0,0,0,12.74,52.32Z"/><path class="cls-1" d="M70.62,67a16.29,16.29,0,0,1-5.74,13.72c-5.38,4.47-12.56,4.37-17.8,1.82A17.33,17.33,0,0,1,37.44,68l21.92-3,38-5.79v-.1A43.16,43.16,0,1,0,97.21,63ZM66.06,42.67c1.91,0,3.49,2.5,3.52,5.63S68.08,54,66.17,54s-3.49-2.5-3.51-5.63S64.15,42.68,66.06,42.67ZM35.63,51.76c0-3.13,1.5-5.68,3.41-5.7s3.48,2.51,3.51,5.63-1.49,5.68-3.4,5.7S35.66,54.89,35.63,51.76Z"/><path class="cls-1" d="M15.85,70.78a6.22,6.22,0,0,1-4,2.17c-3.89.27-6.55-4.33-6.88-4.93-.24-.43-3.59-6.63.16-11,2.06-2.4,5.72-3.6,8.47-2.51C18.77,56.61,19.62,66.51,15.85,70.78Z"/><path class="cls-1" d="M12.24,51.82A9.76,9.76,0,0,1,6,50c-3.66-2.85-3.56-7.84-3.52-10.18,0-1.53.41-10.38,7.75-14.58a15.91,15.91,0,0,1,10.58-1.68A11,11,0,0,1,19.63,18a8.35,8.35,0,0,1,2-5.59C24,10,27.73,10.3,30.23,10.51a17.73,17.73,0,0,1,5.45,1.38,16.29,16.29,0,0,1,4-5.38,16,16,0,0,1,12-3.93A16.07,16.07,0,0,1,62.78,9.16a17.89,17.89,0,0,1,7.72-3c1-.14,7.94-1,10.91,2.76a6.91,6.91,0,0,1,1.16,2.32,7.38,7.38,0,0,1-.77,5.32,13.11,13.11,0,0,1,7-.25C96,18.13,98.5,25.78,98.9,27c.84,2.52,2.67,8-.64,11.74-3.11,3.46-8.44,2.73-9.09,2.63A42.58,42.58,0,0,0,71.46,31.09c-17.61-4.95-33.69,3.85-42.54,8.69A83.53,83.53,0,0,0,12.24,51.82Z"/><path class="cls-1" d="M70.12,66.54a16.29,16.29,0,0,1-5.74,13.72c-5.38,4.47-12.56,4.37-17.8,1.82a17.33,17.33,0,0,1-9.64-14.59l21.92-3,38-5.79v-.1a43.16,43.16,0,1,0-.15,3.94ZM65.56,42.17c1.91,0,3.49,2.5,3.52,5.63s-1.5,5.67-3.41,5.69-3.49-2.5-3.51-5.63S63.65,42.18,65.56,42.17ZM35.13,51.26c0-3.13,1.5-5.68,3.41-5.7s3.48,2.51,3.51,5.63-1.49,5.68-3.4,5.7S35.16,54.39,35.13,51.26Z"/><path class="cls-1" d="M15.35,70.28a6.22,6.22,0,0,1-4,2.17c-3.89.27-6.55-4.33-6.88-4.93-.24-.43-3.59-6.63.16-11,2.06-2.4,5.72-3.6,8.47-2.51C18.27,56.11,19.12,66,15.35,70.28Z"/><path class="cls-1" d="M11.74,51.32a9.76,9.76,0,0,1-6.21-1.86C1.87,46.61,2,41.62,2,39.28c0-1.53.41-10.38,7.75-14.58A15.91,15.91,0,0,1,20.34,23a11,11,0,0,1-1.21-5.53,8.35,8.35,0,0,1,2-5.59c2.37-2.43,6.11-2.1,8.61-1.89a17.73,17.73,0,0,1,5.45,1.38,16.29,16.29,0,0,1,4-5.38,16,16,0,0,1,12-3.93A16.07,16.07,0,0,1,62.28,8.66a17.89,17.89,0,0,1,7.72-3c1-.14,7.94-1,10.91,2.76a6.91,6.91,0,0,1,1.16,2.32,7.38,7.38,0,0,1-.77,5.32,13.11,13.11,0,0,1,7-.25C95.46,17.63,98,25.28,98.4,26.5c.84,2.52,2.67,8-.64,11.74-3.11,3.46-8.44,2.73-9.09,2.63A42.58,42.58,0,0,0,71,30.59c-17.61-4.95-33.69,3.85-42.54,8.69A83.53,83.53,0,0,0,11.74,51.32Z"/><path class="cls-1" d="M69.62,66a16.29,16.29,0,0,1-5.74,13.72c-5.38,4.47-12.56,4.37-17.8,1.82A17.33,17.33,0,0,1,36.44,67l21.92-3,38-5.79v-.1A43.16,43.16,0,1,0,96.21,62ZM65.06,41.67c1.91,0,3.49,2.5,3.52,5.63S67.08,53,65.17,53s-3.49-2.5-3.51-5.63S63.15,41.68,65.06,41.67ZM34.63,50.76c0-3.13,1.5-5.68,3.41-5.7s3.48,2.51,3.51,5.63-1.49,5.68-3.4,5.7S34.66,53.89,34.63,50.76Z"/><path class="cls-1" d="M14.85,69.78a6.22,6.22,0,0,1-4,2.17c-3.89.27-6.55-4.33-6.88-4.93-.24-.43-3.59-6.63.16-11,2.06-2.4,5.72-3.6,8.47-2.51C17.77,55.61,18.62,65.51,14.85,69.78Z"/><path class="cls-1" d="M11.24,50.82A9.76,9.76,0,0,1,5,49c-3.66-2.85-3.56-7.84-3.52-10.18,0-1.53.41-10.38,7.75-14.58a15.91,15.91,0,0,1,10.58-1.68A11,11,0,0,1,18.63,17a8.35,8.35,0,0,1,2-5.59C23,9,26.73,9.3,29.23,9.51a17.73,17.73,0,0,1,5.45,1.38,16.29,16.29,0,0,1,4-5.38,16,16,0,0,1,12-3.93A16.07,16.07,0,0,1,61.78,8.16a17.89,17.89,0,0,1,7.72-3c1-.14,7.94-1,10.91,2.76a6.91,6.91,0,0,1,1.16,2.32,7.38,7.38,0,0,1-.77,5.32,13.11,13.11,0,0,1,7-.25C95,17.13,97.5,24.78,97.9,26c.84,2.52,2.67,8-.64,11.74-3.11,3.46-8.44,2.73-9.09,2.63A42.58,42.58,0,0,0,70.46,30.09c-17.61-4.95-33.69,3.85-42.54,8.69A83.53,83.53,0,0,0,11.24,50.82Z"/><path class="cls-1" d="M69.12,65.54a16.29,16.29,0,0,1-5.74,13.72c-5.38,4.47-12.56,4.37-17.8,1.82a17.33,17.33,0,0,1-9.64-14.59l21.92-3,38-5.79v-.1a43.16,43.16,0,1,0-.15,3.94ZM64.56,41.17c1.91,0,3.49,2.5,3.52,5.63s-1.5,5.67-3.41,5.69-3.49-2.5-3.51-5.63S62.65,41.18,64.56,41.17ZM34.13,50.26c0-3.13,1.5-5.68,3.41-5.7s3.48,2.51,3.51,5.63-1.49,5.68-3.4,5.7S34.16,53.39,34.13,50.26Z"/><path class="cls-1" d="M14.35,69.28a6.22,6.22,0,0,1-4,2.17c-3.89.27-6.55-4.33-6.88-4.93-.24-.43-3.59-6.63.16-11,2.06-2.4,5.72-3.6,8.47-2.51C17.27,55.11,18.12,65,14.35,69.28Z"/><path class="cls-1" d="M10.74,50.32a9.76,9.76,0,0,1-6.21-1.86C.87,45.61,1,40.62,1,38.28c0-1.53.41-10.38,7.75-14.58A15.91,15.91,0,0,1,19.34,22a11,11,0,0,1-1.21-5.53,8.35,8.35,0,0,1,2-5.59C22.49,8.47,26.23,8.8,28.73,9a17.73,17.73,0,0,1,5.45,1.38,16.29,16.29,0,0,1,4-5.38,16,16,0,0,1,12-3.93A16.07,16.07,0,0,1,61.28,7.66a17.89,17.89,0,0,1,7.72-3c1-.14,7.94-1,10.91,2.76a6.91,6.91,0,0,1,1.16,2.32,7.38,7.38,0,0,1-.77,5.32,13.11,13.11,0,0,1,7-.25C94.46,16.63,97,24.28,97.4,25.5c.84,2.52,2.67,8-.64,11.74-3.11,3.46-8.44,2.73-9.09,2.63A42.58,42.58,0,0,0,70,29.59c-17.61-4.95-33.69,3.85-42.54,8.69A83.53,83.53,0,0,0,10.74,50.32Z"/><path class="cls-1" d="M68.62,65a16.29,16.29,0,0,1-5.74,13.72c-5.38,4.47-12.56,4.37-17.8,1.82A17.33,17.33,0,0,1,35.44,66l21.92-3,38-5.79v-.1A43.16,43.16,0,1,0,95.21,61ZM64.06,40.67c1.91,0,3.49,2.5,3.52,5.63S66.08,52,64.17,52s-3.49-2.5-3.51-5.63S62.15,40.68,64.06,40.67ZM33.63,49.76c0-3.13,1.5-5.68,3.41-5.7s3.48,2.51,3.51,5.63-1.49,5.68-3.4,5.7S33.66,52.89,33.63,49.76Z"/><path class="cls-1" d="M13.85,68.78a6.22,6.22,0,0,1-4,2.17c-3.89.27-6.55-4.33-6.88-4.93-.24-.43-3.59-6.63.16-11,2.06-2.4,5.72-3.6,8.47-2.51C16.77,54.61,17.62,64.51,13.85,68.78Z"/><path class="cls-1" d="M10.24,49.82A9.76,9.76,0,0,1,4,48C.37,45.11.47,40.12.51,37.78c0-1.53.41-10.38,7.75-14.58a15.91,15.91,0,0,1,10.58-1.68A11,11,0,0,1,17.63,16a8.35,8.35,0,0,1,2-5.59C22,8,25.73,8.3,28.23,8.51a17.73,17.73,0,0,1,5.45,1.38,16.29,16.29,0,0,1,4-5.38,16,16,0,0,1,12-3.93A16.07,16.07,0,0,1,60.78,7.16a17.89,17.89,0,0,1,7.72-3c1-.14,7.94-1,10.91,2.76a6.91,6.91,0,0,1,1.16,2.32,7.38,7.38,0,0,1-.77,5.32,13.11,13.11,0,0,1,7-.25C94,16.13,96.5,23.78,96.9,25c.84,2.52,2.67,8-.64,11.74-3.11,3.46-8.44,2.73-9.09,2.63A42.58,42.58,0,0,0,69.46,29.09c-17.61-4.95-33.69,3.85-42.54,8.69A83.53,83.53,0,0,0,10.24,49.82Z"/><path class="cls-2" d="M96.9,25c-.4-1.22-2.94-8.87-10.07-10.67a13.11,13.11,0,0,0-7,.25,7.38,7.38,0,0,0,.77-5.32,6.91,6.91,0,0,0-1.16-2.32c-3-3.8-9.87-2.9-10.91-2.76a17.89,17.89,0,0,0-7.72,3A16.07,16.07,0,0,0,49.67.58a16,16,0,0,0-12,3.93,16.29,16.29,0,0,0-4,5.38,17.73,17.73,0,0,0-5.45-1.38C25.73,8.3,22,8,19.62,10.4a8.35,8.35,0,0,0-2,5.59,11,11,0,0,0,1.21,5.53A15.91,15.91,0,0,0,8.26,23.2C.92,27.4.54,36.25.51,37.78.47,40.12.37,45.11,4,48a9.49,9.49,0,0,0,5.82,1.86c-.13.76-.25,1.53-.34,2.31A8.53,8.53,0,0,0,3.1,55c-3.75,4.35-.4,10.55-.16,11,.33.6,3,5.2,6.88,4.93a4.7,4.7,0,0,0,1.4-.31,43.1,43.1,0,0,0,84-9.65L68.62,65a16.29,16.29,0,0,1-5.74,13.72c-5.38,4.47-12.56,4.37-17.8,1.82A17.33,17.33,0,0,1,35.44,66l21.92-3,38-5.79v-.1a43,43,0,0,0-4-17.75,8.5,8.5,0,0,0,4.91-2.56C99.57,33.05,97.74,27.52,96.9,25ZM37.15,55.39c-1.92,0-3.49-2.5-3.52-5.63s1.5-5.68,3.41-5.7,3.48,2.51,3.51,5.63S39.06,55.37,37.15,55.39Zm27-3.4c-1.91,0-3.49-2.5-3.51-5.63s1.49-5.68,3.4-5.69,3.49,2.5,3.52,5.63S66.08,52,64.17,52Z"/><path class="cls-3" d="M9.83,50a41.76,41.76,0,0,1,14-19c7.82-5.85,15.54-7.15,21-8,5.19-.81,18.94-2.73,33,5a47.94,47.94,0,0,1,15,13"/><path class="cls-1" d="M114.56,60.18a22.68,22.68,0,0,1,8.28-9.36,21.6,21.6,0,0,1,11.7-3.28,20.1,20.1,0,0,1,9.69,2.25,16.57,16.57,0,0,1,6.41,5.89h0A7.39,7.39,0,0,1,158,48.29h1.22a7.39,7.39,0,0,1,7.39,7.39V93.12a7.39,7.39,0,0,1-7.39,7.39H158a7.39,7.39,0,0,1-7.39-7.39h0a17.38,17.38,0,0,1-6.5,5.9,20.21,20.21,0,0,1-9.69,2.24,21.23,21.23,0,0,1-11.61-3.32,22.94,22.94,0,0,1-8.28-9.45,31.48,31.48,0,0,1-3-14.18A31.14,31.14,0,0,1,114.56,60.18ZM147.32,65a11.26,11.26,0,0,0-16.19,0q-3.33,3.42-3.32,9.41t3.32,9.5a10.71,10.71,0,0,0,8.09,3.51,10.83,10.83,0,0,0,8.1-3.46q3.31-3.47,3.32-9.46T147.32,65Z"/><path class="cls-1" d="M182,106.45a20.63,20.63,0,0,1-8.42-6.41l-.07-.08a5.69,5.69,0,0,1,4.62-9h3.85a5.8,5.8,0,0,1,4.87,2.71,6.58,6.58,0,0,0,1.61,1.69A8.92,8.92,0,0,0,193.93,97a7.88,7.88,0,0,0,4.63-1.17,3.58,3.58,0,0,0,1.64-3,3.5,3.5,0,0,0-2.34-3.32,46.71,46.71,0,0,0-7.58-2.39,69.69,69.69,0,0,1-9.36-2.76,16.19,16.19,0,0,1-6.46-4.59q-2.72-3.14-2.71-8.47a14.36,14.36,0,0,1,2.48-8.19,16.62,16.62,0,0,1,7.3-5.84A27.83,27.83,0,0,1,193,55.07q9.82,0,15.49,4.87A18.59,18.59,0,0,1,212,64a5.76,5.76,0,0,1-4.82,8.89h-3.05a5.84,5.84,0,0,1-4.91-2.76,6.42,6.42,0,0,0-1.41-1.54A8.27,8.27,0,0,0,192.52,67a7.28,7.28,0,0,0-4.3,1.08,3.42,3.42,0,0,0-1.5,2.94,3.6,3.6,0,0,0,2.39,3.37,38.13,38.13,0,0,0,7.44,2.25,80.76,80.76,0,0,1,9.45,3,16.18,16.18,0,0,1,6.41,4.68,13.28,13.28,0,0,1,2.86,8.65,13.71,13.71,0,0,1-2.58,8.19,17,17,0,0,1-7.39,5.66,28.18,28.18,0,0,1-11.19,2.06A30,30,0,0,1,182,106.45Z"/><path class="cls-1" d="M222.5,50.46a8,8,0,0,1-2.67-6.13,8.15,8.15,0,0,1,2.67-6.23,9.72,9.72,0,0,1,6.88-2.48,9.59,9.59,0,0,1,6.78,2.48,8.15,8.15,0,0,1,2.67,6.23,8,8,0,0,1-2.67,6.13,9.59,9.59,0,0,1-6.78,2.48A9.72,9.72,0,0,1,222.5,50.46Zm14.83,15.91v36.22a8,8,0,0,1-8,8h0a8,8,0,0,1-8-8V66.37a8,8,0,0,1,8-8h0A8,8,0,0,1,237.33,66.37Z"/><path class="cls-1" d="M114.06,59.68a22.68,22.68,0,0,1,8.28-9.36A21.6,21.6,0,0,1,134,47a20.1,20.1,0,0,1,9.69,2.25,16.57,16.57,0,0,1,6.41,5.89h0a7.39,7.39,0,0,1,7.39-7.39h1.22a7.39,7.39,0,0,1,7.39,7.39V92.62a7.39,7.39,0,0,1-7.39,7.39h-1.22a7.39,7.39,0,0,1-7.39-7.39h0a17.38,17.38,0,0,1-6.5,5.9,20.21,20.21,0,0,1-9.69,2.24,21.23,21.23,0,0,1-11.61-3.32A22.94,22.94,0,0,1,114.06,88a31.48,31.48,0,0,1-3-14.18A31.14,31.14,0,0,1,114.06,59.68Zm32.76,4.77a11.26,11.26,0,0,0-16.19,0q-3.33,3.42-3.32,9.41t3.32,9.5a10.71,10.71,0,0,0,8.09,3.51,10.83,10.83,0,0,0,8.1-3.46q3.31-3.47,3.32-9.46T146.82,64.45Z"/><path class="cls-1" d="M181.45,106A20.63,20.63,0,0,1,173,99.54l-.07-.08a5.69,5.69,0,0,1,4.62-9h3.85a5.8,5.8,0,0,1,4.87,2.71,6.58,6.58,0,0,0,1.61,1.69,8.92,8.92,0,0,0,5.52,1.68,7.88,7.88,0,0,0,4.63-1.17,3.58,3.58,0,0,0,1.64-3A3.5,3.5,0,0,0,197.36,89a46.71,46.71,0,0,0-7.58-2.39,69.69,69.69,0,0,1-9.36-2.76A16.19,16.19,0,0,1,174,79.23q-2.72-3.14-2.71-8.47a14.36,14.36,0,0,1,2.48-8.19,16.62,16.62,0,0,1,7.3-5.84,27.83,27.83,0,0,1,11.46-2.16q9.82,0,15.49,4.87a18.59,18.59,0,0,1,3.52,4,5.76,5.76,0,0,1-4.82,8.89h-3.05a5.84,5.84,0,0,1-4.91-2.76,6.42,6.42,0,0,0-1.41-1.54A8.27,8.27,0,0,0,192,66.46a7.28,7.28,0,0,0-4.3,1.08,3.42,3.42,0,0,0-1.5,2.94,3.6,3.6,0,0,0,2.39,3.37,38.13,38.13,0,0,0,7.44,2.25,80.76,80.76,0,0,1,9.45,3,16.18,16.18,0,0,1,6.41,4.68,13.28,13.28,0,0,1,2.86,8.65,13.71,13.71,0,0,1-2.58,8.19,17,17,0,0,1-7.39,5.66,28.18,28.18,0,0,1-11.19,2.06A30,30,0,0,1,181.45,106Z"/><path class="cls-1" d="M222,50a8,8,0,0,1-2.67-6.13A8.15,8.15,0,0,1,222,37.6a9.72,9.72,0,0,1,6.88-2.48,9.59,9.59,0,0,1,6.78,2.48,8.15,8.15,0,0,1,2.67,6.23A8,8,0,0,1,235.66,50a9.59,9.59,0,0,1-6.78,2.48A9.72,9.72,0,0,1,222,50Zm14.83,15.91v36.22a8,8,0,0,1-8,8h0a8,8,0,0,1-8-8V65.87a8,8,0,0,1,8-8h0A8,8,0,0,1,236.83,65.87Z"/><path class="cls-1" d="M113.56,59.18a22.68,22.68,0,0,1,8.28-9.36,21.6,21.6,0,0,1,11.7-3.28,20.1,20.1,0,0,1,9.69,2.25,16.57,16.57,0,0,1,6.41,5.89h0A7.39,7.39,0,0,1,157,47.29h1.22a7.39,7.39,0,0,1,7.39,7.39V92.12a7.39,7.39,0,0,1-7.39,7.39H157a7.39,7.39,0,0,1-7.39-7.39h0a17.38,17.38,0,0,1-6.5,5.9,20.21,20.21,0,0,1-9.69,2.24,21.23,21.23,0,0,1-11.61-3.32,22.94,22.94,0,0,1-8.28-9.45,31.48,31.48,0,0,1-3-14.18A31.14,31.14,0,0,1,113.56,59.18ZM146.32,64a11.26,11.26,0,0,0-16.19-.05q-3.33,3.42-3.32,9.41t3.32,9.5a10.71,10.71,0,0,0,8.09,3.51,10.83,10.83,0,0,0,8.1-3.46q3.31-3.47,3.32-9.46T146.32,64Z"/><path class="cls-1" d="M181,105.45A20.63,20.63,0,0,1,172.53,99l-.07-.08a5.69,5.69,0,0,1,4.62-9h3.85a5.8,5.8,0,0,1,4.87,2.71,6.58,6.58,0,0,0,1.61,1.69A8.92,8.92,0,0,0,192.93,96a7.88,7.88,0,0,0,4.63-1.17,3.58,3.58,0,0,0,1.64-3,3.5,3.5,0,0,0-2.34-3.32,46.71,46.71,0,0,0-7.58-2.39,69.69,69.69,0,0,1-9.36-2.76,16.19,16.19,0,0,1-6.46-4.59q-2.72-3.14-2.71-8.47a14.36,14.36,0,0,1,2.48-8.19,16.62,16.62,0,0,1,7.3-5.84A27.83,27.83,0,0,1,192,54.07q9.82,0,15.49,4.87A18.59,18.59,0,0,1,211,63a5.76,5.76,0,0,1-4.82,8.89h-3.05a5.84,5.84,0,0,1-4.91-2.76,6.42,6.42,0,0,0-1.41-1.54A8.27,8.27,0,0,0,191.52,66a7.28,7.28,0,0,0-4.3,1.08,3.42,3.42,0,0,0-1.5,2.94,3.6,3.6,0,0,0,2.39,3.37,38.13,38.13,0,0,0,7.44,2.25,80.76,80.76,0,0,1,9.45,3,16.18,16.18,0,0,1,6.41,4.68,13.28,13.28,0,0,1,2.86,8.65,13.71,13.71,0,0,1-2.58,8.19,17,17,0,0,1-7.39,5.66,28.18,28.18,0,0,1-11.19,2.06A30,30,0,0,1,181,105.45Z"/><path class="cls-1" d="M221.5,49.46a8,8,0,0,1-2.67-6.13,8.15,8.15,0,0,1,2.67-6.23,9.72,9.72,0,0,1,6.88-2.48,9.59,9.59,0,0,1,6.78,2.48,8.15,8.15,0,0,1,2.67,6.23,8,8,0,0,1-2.67,6.13,9.59,9.59,0,0,1-6.78,2.48A9.72,9.72,0,0,1,221.5,49.46Zm14.83,15.91v36.22a8,8,0,0,1-8,8h0a8,8,0,0,1-8-8V65.37a8,8,0,0,1,8-8h0A8,8,0,0,1,236.33,65.37Z"/><path class="cls-1" d="M113.06,58.68a22.68,22.68,0,0,1,8.28-9.36A21.6,21.6,0,0,1,133,46a20.1,20.1,0,0,1,9.69,2.25,16.57,16.57,0,0,1,6.41,5.89h0a7.39,7.39,0,0,1,7.39-7.39h1.22a7.39,7.39,0,0,1,7.39,7.39V91.62A7.39,7.39,0,0,1,157.75,99h-1.22a7.39,7.39,0,0,1-7.39-7.39h0a17.38,17.38,0,0,1-6.5,5.9A20.21,20.21,0,0,1,133,99.76a21.23,21.23,0,0,1-11.61-3.32A22.94,22.94,0,0,1,113.06,87a31.48,31.48,0,0,1-3-14.18A31.14,31.14,0,0,1,113.06,58.68Zm32.76,4.77a11.26,11.26,0,0,0-16.19-.05q-3.33,3.42-3.32,9.41t3.32,9.5a10.71,10.71,0,0,0,8.09,3.51,10.83,10.83,0,0,0,8.1-3.46q3.31-3.47,3.32-9.46T145.82,63.45Z"/><path class="cls-1" d="M180.45,105A20.63,20.63,0,0,1,172,98.54l-.07-.08a5.69,5.69,0,0,1,4.62-9h3.85a5.8,5.8,0,0,1,4.87,2.71,6.58,6.58,0,0,0,1.61,1.69,8.92,8.92,0,0,0,5.52,1.68,7.88,7.88,0,0,0,4.63-1.17,3.58,3.58,0,0,0,1.64-3A3.5,3.5,0,0,0,196.36,88a46.71,46.71,0,0,0-7.58-2.39,69.69,69.69,0,0,1-9.36-2.76A16.19,16.19,0,0,1,173,78.23q-2.72-3.14-2.71-8.47a14.36,14.36,0,0,1,2.48-8.19,16.62,16.62,0,0,1,7.3-5.84,27.83,27.83,0,0,1,11.46-2.16q9.82,0,15.49,4.87a18.59,18.59,0,0,1,3.52,4,5.76,5.76,0,0,1-4.82,8.89h-3.05a5.84,5.84,0,0,1-4.91-2.76,6.42,6.42,0,0,0-1.41-1.54A8.27,8.27,0,0,0,191,65.46a7.28,7.28,0,0,0-4.3,1.08,3.42,3.42,0,0,0-1.5,2.94,3.6,3.6,0,0,0,2.39,3.37,38.13,38.13,0,0,0,7.44,2.25,80.76,80.76,0,0,1,9.45,3,16.18,16.18,0,0,1,6.41,4.68,13.28,13.28,0,0,1,2.86,8.65,13.71,13.71,0,0,1-2.58,8.19,17,17,0,0,1-7.39,5.66,28.18,28.18,0,0,1-11.19,2.06A30,30,0,0,1,180.45,105Z"/><path class="cls-1" d="M221,49a8,8,0,0,1-2.67-6.13A8.15,8.15,0,0,1,221,36.6a9.72,9.72,0,0,1,6.88-2.48,9.59,9.59,0,0,1,6.78,2.48,8.15,8.15,0,0,1,2.67,6.23A8,8,0,0,1,234.66,49a9.59,9.59,0,0,1-6.78,2.48A9.72,9.72,0,0,1,221,49Zm14.83,15.91v36.22a8,8,0,0,1-8,8h0a8,8,0,0,1-8-8V64.87a8,8,0,0,1,8-8h0A8,8,0,0,1,235.83,64.87Z"/><path class="cls-1" d="M112.56,58.18a22.68,22.68,0,0,1,8.28-9.36,21.6,21.6,0,0,1,11.7-3.28,20.1,20.1,0,0,1,9.69,2.25,16.57,16.57,0,0,1,6.41,5.89h0A7.39,7.39,0,0,1,156,46.29h1.22a7.39,7.39,0,0,1,7.39,7.39V91.12a7.39,7.39,0,0,1-7.39,7.39H156a7.39,7.39,0,0,1-7.39-7.39h0a17.38,17.38,0,0,1-6.5,5.9,20.21,20.21,0,0,1-9.69,2.24,21.23,21.23,0,0,1-11.61-3.32,22.94,22.94,0,0,1-8.28-9.45,31.48,31.48,0,0,1-3-14.18A31.14,31.14,0,0,1,112.56,58.18ZM145.32,63a11.26,11.26,0,0,0-16.19-.05q-3.33,3.42-3.32,9.41t3.32,9.5a10.71,10.71,0,0,0,8.09,3.51,10.83,10.83,0,0,0,8.1-3.46q3.31-3.47,3.32-9.46T145.32,63Z"/><path class="cls-1" d="M180,104.45A20.63,20.63,0,0,1,171.53,98l-.07-.08a5.69,5.69,0,0,1,4.62-9h3.85a5.8,5.8,0,0,1,4.87,2.71,6.58,6.58,0,0,0,1.61,1.69A8.92,8.92,0,0,0,191.93,95a7.88,7.88,0,0,0,4.63-1.17,3.58,3.58,0,0,0,1.64-3,3.5,3.5,0,0,0-2.34-3.32,46.71,46.71,0,0,0-7.58-2.39,69.69,69.69,0,0,1-9.36-2.76,16.19,16.19,0,0,1-6.46-4.59q-2.72-3.14-2.71-8.47a14.36,14.36,0,0,1,2.48-8.19,16.62,16.62,0,0,1,7.3-5.84A27.83,27.83,0,0,1,191,53.07q9.82,0,15.49,4.87A18.59,18.59,0,0,1,210,62a5.76,5.76,0,0,1-4.82,8.89h-3.05a5.84,5.84,0,0,1-4.91-2.76,6.42,6.42,0,0,0-1.41-1.54A8.27,8.27,0,0,0,190.52,65a7.28,7.28,0,0,0-4.3,1.08,3.42,3.42,0,0,0-1.5,2.94,3.6,3.6,0,0,0,2.39,3.37,38.13,38.13,0,0,0,7.44,2.25,80.76,80.76,0,0,1,9.45,3,16.18,16.18,0,0,1,6.41,4.68,13.28,13.28,0,0,1,2.86,8.65,13.71,13.71,0,0,1-2.58,8.19,17,17,0,0,1-7.39,5.66,28.18,28.18,0,0,1-11.19,2.06A30,30,0,0,1,180,104.45Z"/><path class="cls-1" d="M220.5,48.46a8,8,0,0,1-2.67-6.13,8.15,8.15,0,0,1,2.67-6.23,9.72,9.72,0,0,1,6.88-2.48,9.59,9.59,0,0,1,6.78,2.48,8.15,8.15,0,0,1,2.67,6.23,8,8,0,0,1-2.67,6.13,9.59,9.59,0,0,1-6.78,2.48A9.72,9.72,0,0,1,220.5,48.46Zm14.83,15.91v36.22a8,8,0,0,1-8,8h0a8,8,0,0,1-8-8V64.37a8,8,0,0,1,8-8h0A8,8,0,0,1,235.33,64.37Z"/><path class="cls-1" d="M112.06,57.68a22.68,22.68,0,0,1,8.28-9.36A21.6,21.6,0,0,1,132,45a20.1,20.1,0,0,1,9.69,2.25,16.57,16.57,0,0,1,6.41,5.89h0a7.39,7.39,0,0,1,7.39-7.39h1.22a7.39,7.39,0,0,1,7.39,7.39V90.62A7.39,7.39,0,0,1,156.75,98h-1.22a7.39,7.39,0,0,1-7.39-7.39h0a17.38,17.38,0,0,1-6.5,5.9A20.21,20.21,0,0,1,132,98.76a21.23,21.23,0,0,1-11.61-3.32A22.94,22.94,0,0,1,112.06,86a31.48,31.48,0,0,1-3-14.18A31.14,31.14,0,0,1,112.06,57.68Zm32.76,4.77a11.26,11.26,0,0,0-16.19-.05q-3.33,3.42-3.32,9.41t3.32,9.5a10.71,10.71,0,0,0,8.09,3.51,10.83,10.83,0,0,0,8.1-3.46q3.31-3.47,3.32-9.46T144.82,62.45Z"/><path class="cls-1" d="M179.45,104A20.63,20.63,0,0,1,171,97.54l-.07-.08a5.69,5.69,0,0,1,4.62-9h3.85a5.8,5.8,0,0,1,4.87,2.71,6.58,6.58,0,0,0,1.61,1.69,8.92,8.92,0,0,0,5.52,1.68,7.88,7.88,0,0,0,4.63-1.17,3.58,3.58,0,0,0,1.64-3A3.5,3.5,0,0,0,195.36,87a46.71,46.71,0,0,0-7.58-2.39,69.69,69.69,0,0,1-9.36-2.76A16.19,16.19,0,0,1,172,77.23q-2.72-3.14-2.71-8.47a14.36,14.36,0,0,1,2.48-8.19,16.62,16.62,0,0,1,7.3-5.84,27.83,27.83,0,0,1,11.46-2.16q9.82,0,15.49,4.87a18.59,18.59,0,0,1,3.52,4,5.76,5.76,0,0,1-4.82,8.89h-3.05a5.84,5.84,0,0,1-4.91-2.76,6.42,6.42,0,0,0-1.41-1.54A8.27,8.27,0,0,0,190,64.46a7.28,7.28,0,0,0-4.3,1.08,3.42,3.42,0,0,0-1.5,2.94,3.6,3.6,0,0,0,2.39,3.37,38.13,38.13,0,0,0,7.44,2.25,80.76,80.76,0,0,1,9.45,3,16.18,16.18,0,0,1,6.41,4.68,13.28,13.28,0,0,1,2.86,8.65,13.71,13.71,0,0,1-2.58,8.19,17,17,0,0,1-7.39,5.66,28.18,28.18,0,0,1-11.19,2.06A30,30,0,0,1,179.45,104Z"/><path class="cls-1" d="M220,48a8,8,0,0,1-2.67-6.13A8.15,8.15,0,0,1,220,35.6a9.72,9.72,0,0,1,6.88-2.48,9.59,9.59,0,0,1,6.78,2.48,8.15,8.15,0,0,1,2.67,6.23A8,8,0,0,1,233.66,48a9.59,9.59,0,0,1-6.78,2.48A9.72,9.72,0,0,1,220,48Zm14.83,15.91v36.22a8,8,0,0,1-8,8h0a8,8,0,0,1-8-8V63.87a8,8,0,0,1,8-8h0A8,8,0,0,1,234.83,63.87Z"/><path class="cls-1" d="M111.56,57.18a22.68,22.68,0,0,1,8.28-9.36,21.6,21.6,0,0,1,11.7-3.28,20.1,20.1,0,0,1,9.69,2.25,16.57,16.57,0,0,1,6.41,5.89h0A7.39,7.39,0,0,1,155,45.29h1.22a7.39,7.39,0,0,1,7.39,7.39V90.12a7.39,7.39,0,0,1-7.39,7.39H155a7.39,7.39,0,0,1-7.39-7.39h0a17.38,17.38,0,0,1-6.5,5.9,20.21,20.21,0,0,1-9.69,2.24,21.23,21.23,0,0,1-11.61-3.32,22.94,22.94,0,0,1-8.28-9.45,31.48,31.48,0,0,1-3-14.18A31.14,31.14,0,0,1,111.56,57.18ZM144.32,62a11.26,11.26,0,0,0-16.19-.05q-3.33,3.42-3.32,9.41t3.32,9.5a10.71,10.71,0,0,0,8.09,3.51,10.83,10.83,0,0,0,8.1-3.46q3.31-3.47,3.32-9.46T144.32,62Z"/><path class="cls-1" d="M179,103.45A20.63,20.63,0,0,1,170.53,97l-.07-.08a5.69,5.69,0,0,1,4.62-9h3.85a5.8,5.8,0,0,1,4.87,2.71,6.58,6.58,0,0,0,1.61,1.69A8.92,8.92,0,0,0,190.93,94a7.88,7.88,0,0,0,4.63-1.17,3.58,3.58,0,0,0,1.64-3,3.5,3.5,0,0,0-2.34-3.32,46.71,46.71,0,0,0-7.58-2.39,69.69,69.69,0,0,1-9.36-2.76,16.19,16.19,0,0,1-6.46-4.59q-2.72-3.14-2.71-8.47a14.36,14.36,0,0,1,2.48-8.19,16.62,16.62,0,0,1,7.3-5.84A27.83,27.83,0,0,1,190,52.07q9.82,0,15.49,4.87A18.59,18.59,0,0,1,209,61a5.76,5.76,0,0,1-4.82,8.89h-3.05a5.84,5.84,0,0,1-4.91-2.76,6.42,6.42,0,0,0-1.41-1.54A8.27,8.27,0,0,0,189.52,64a7.28,7.28,0,0,0-4.3,1.08,3.42,3.42,0,0,0-1.5,2.94,3.6,3.6,0,0,0,2.39,3.37,38.13,38.13,0,0,0,7.44,2.25,80.76,80.76,0,0,1,9.45,3,16.18,16.18,0,0,1,6.41,4.68,13.28,13.28,0,0,1,2.86,8.65,13.71,13.71,0,0,1-2.58,8.19,17,17,0,0,1-7.39,5.66,28.18,28.18,0,0,1-11.19,2.06A30,30,0,0,1,179,103.45Z"/><path class="cls-1" d="M219.5,47.46a8,8,0,0,1-2.67-6.13,8.15,8.15,0,0,1,2.67-6.23,9.72,9.72,0,0,1,6.88-2.48,9.59,9.59,0,0,1,6.78,2.48,8.15,8.15,0,0,1,2.67,6.23,8,8,0,0,1-2.67,6.13,9.59,9.59,0,0,1-6.78,2.48A9.72,9.72,0,0,1,219.5,47.46Zm14.83,15.91V99.59a8,8,0,0,1-8,8h0a8,8,0,0,1-8-8V63.37a8,8,0,0,1,8-8h0A8,8,0,0,1,234.33,63.37Z"/><path class="cls-1" d="M111.06,56.68a22.68,22.68,0,0,1,8.28-9.36A21.6,21.6,0,0,1,131,44a20.1,20.1,0,0,1,9.69,2.25,16.57,16.57,0,0,1,6.41,5.89h0a7.39,7.39,0,0,1,7.39-7.39h1.22a7.39,7.39,0,0,1,7.39,7.39V89.62A7.39,7.39,0,0,1,155.75,97h-1.22a7.39,7.39,0,0,1-7.39-7.39h0a17.38,17.38,0,0,1-6.5,5.9A20.21,20.21,0,0,1,131,97.76a21.23,21.23,0,0,1-11.61-3.32A22.94,22.94,0,0,1,111.06,85a31.48,31.48,0,0,1-3-14.18A31.14,31.14,0,0,1,111.06,56.68Zm32.76,4.77a11.26,11.26,0,0,0-16.19-.05q-3.33,3.42-3.32,9.41t3.32,9.5a10.71,10.71,0,0,0,8.09,3.51,10.83,10.83,0,0,0,8.1-3.46q3.31-3.47,3.32-9.46T143.82,61.45Z"/><path class="cls-1" d="M178.45,103A20.63,20.63,0,0,1,170,96.54l-.07-.08a5.69,5.69,0,0,1,4.62-9h3.85a5.8,5.8,0,0,1,4.87,2.71,6.58,6.58,0,0,0,1.61,1.69,8.92,8.92,0,0,0,5.52,1.68,7.88,7.88,0,0,0,4.63-1.17,3.58,3.58,0,0,0,1.64-3A3.5,3.5,0,0,0,194.36,86a46.71,46.71,0,0,0-7.58-2.39,69.69,69.69,0,0,1-9.36-2.76A16.19,16.19,0,0,1,171,76.23q-2.72-3.14-2.71-8.47a14.36,14.36,0,0,1,2.48-8.19,16.62,16.62,0,0,1,7.3-5.84,27.83,27.83,0,0,1,11.46-2.16q9.82,0,15.49,4.87a18.59,18.59,0,0,1,3.52,4,5.76,5.76,0,0,1-4.82,8.89h-3.05a5.84,5.84,0,0,1-4.91-2.76,6.42,6.42,0,0,0-1.41-1.54A8.27,8.27,0,0,0,189,63.46a7.28,7.28,0,0,0-4.3,1.08,3.42,3.42,0,0,0-1.5,2.94,3.6,3.6,0,0,0,2.39,3.37,38.13,38.13,0,0,0,7.44,2.25,80.76,80.76,0,0,1,9.45,3,16.18,16.18,0,0,1,6.41,4.68,13.28,13.28,0,0,1,2.86,8.65,13.71,13.71,0,0,1-2.58,8.19,17,17,0,0,1-7.39,5.66,28.18,28.18,0,0,1-11.19,2.06A30,30,0,0,1,178.45,103Z"/><path class="cls-1" d="M219,47a8,8,0,0,1-2.67-6.13A8.15,8.15,0,0,1,219,34.6a9.72,9.72,0,0,1,6.88-2.48,9.59,9.59,0,0,1,6.78,2.48,8.15,8.15,0,0,1,2.67,6.23A8,8,0,0,1,232.66,47a9.59,9.59,0,0,1-6.78,2.48A9.72,9.72,0,0,1,219,47Zm14.83,15.91V99.09a8,8,0,0,1-8,8h0a8,8,0,0,1-8-8V62.87a8,8,0,0,1,8-8h0A8,8,0,0,1,233.83,62.87Z"/><path class="cls-1" d="M110.56,56.18a22.68,22.68,0,0,1,8.28-9.36,21.6,21.6,0,0,1,11.7-3.28,20.1,20.1,0,0,1,9.69,2.25,16.57,16.57,0,0,1,6.41,5.89h0A7.39,7.39,0,0,1,154,44.29h1.22a7.39,7.39,0,0,1,7.39,7.39V89.12a7.39,7.39,0,0,1-7.39,7.39H154a7.39,7.39,0,0,1-7.39-7.39h0a17.38,17.38,0,0,1-6.5,5.9,20.21,20.21,0,0,1-9.69,2.24,21.23,21.23,0,0,1-11.61-3.32,22.94,22.94,0,0,1-8.28-9.45,31.48,31.48,0,0,1-3-14.18A31.14,31.14,0,0,1,110.56,56.18ZM143.32,61a11.26,11.26,0,0,0-16.19-.05q-3.33,3.42-3.32,9.41t3.32,9.5a10.71,10.71,0,0,0,8.09,3.51,10.83,10.83,0,0,0,8.1-3.46q3.31-3.47,3.32-9.46T143.32,61Z"/><path class="cls-1" d="M178,102.45A20.63,20.63,0,0,1,169.53,96l-.07-.08a5.69,5.69,0,0,1,4.62-9h3.85a5.8,5.8,0,0,1,4.87,2.71,6.58,6.58,0,0,0,1.61,1.69A8.92,8.92,0,0,0,189.93,93a7.88,7.88,0,0,0,4.63-1.17,3.58,3.58,0,0,0,1.64-3,3.5,3.5,0,0,0-2.34-3.32,46.71,46.71,0,0,0-7.58-2.39,69.69,69.69,0,0,1-9.36-2.76,16.19,16.19,0,0,1-6.46-4.59q-2.72-3.14-2.71-8.47a14.36,14.36,0,0,1,2.48-8.19,16.62,16.62,0,0,1,7.3-5.84A27.83,27.83,0,0,1,189,51.07q9.82,0,15.49,4.87A18.59,18.59,0,0,1,208,60a5.76,5.76,0,0,1-4.82,8.89h-3.05a5.84,5.84,0,0,1-4.91-2.76,6.42,6.42,0,0,0-1.41-1.54A8.27,8.27,0,0,0,188.52,63a7.28,7.28,0,0,0-4.3,1.08,3.42,3.42,0,0,0-1.5,2.94,3.6,3.6,0,0,0,2.39,3.37,38.13,38.13,0,0,0,7.44,2.25,80.76,80.76,0,0,1,9.45,3,16.18,16.18,0,0,1,6.41,4.68,13.28,13.28,0,0,1,2.86,8.65,13.71,13.71,0,0,1-2.58,8.19,17,17,0,0,1-7.39,5.66,28.18,28.18,0,0,1-11.19,2.06A30,30,0,0,1,178,102.45Z"/><path class="cls-1" d="M218.5,46.46a8,8,0,0,1-2.67-6.13,8.15,8.15,0,0,1,2.67-6.23,9.72,9.72,0,0,1,6.88-2.48,9.59,9.59,0,0,1,6.78,2.48,8.15,8.15,0,0,1,2.67,6.23,8,8,0,0,1-2.67,6.13,9.59,9.59,0,0,1-6.78,2.48A9.72,9.72,0,0,1,218.5,46.46Zm14.83,15.91V98.59a8,8,0,0,1-8,8h0a8,8,0,0,1-8-8V62.37a8,8,0,0,1,8-8h0A8,8,0,0,1,233.33,62.37Z"/><path class="cls-1" d="M110.06,55.68a22.68,22.68,0,0,1,8.28-9.36A21.6,21.6,0,0,1,130,43a20.1,20.1,0,0,1,9.69,2.25,16.57,16.57,0,0,1,6.41,5.89h0a7.39,7.39,0,0,1,7.39-7.39h1.22a7.39,7.39,0,0,1,7.39,7.39V88.62A7.39,7.39,0,0,1,154.75,96h-1.22a7.39,7.39,0,0,1-7.39-7.39h0a17.38,17.38,0,0,1-6.5,5.9A20.21,20.21,0,0,1,130,96.76a21.23,21.23,0,0,1-11.61-3.32A22.94,22.94,0,0,1,110.06,84a31.48,31.48,0,0,1-3-14.18A31.14,31.14,0,0,1,110.06,55.68Zm32.76,4.77a11.26,11.26,0,0,0-16.19-.05q-3.33,3.42-3.32,9.41t3.32,9.5a10.71,10.71,0,0,0,8.09,3.51,10.83,10.83,0,0,0,8.1-3.46q3.31-3.47,3.32-9.46T142.82,60.45Z"/><path class="cls-1" d="M177.45,102A20.63,20.63,0,0,1,169,95.54l-.07-.08a5.69,5.69,0,0,1,4.62-9h3.85a5.8,5.8,0,0,1,4.87,2.71,6.58,6.58,0,0,0,1.61,1.69,8.92,8.92,0,0,0,5.52,1.68,7.88,7.88,0,0,0,4.63-1.17,3.58,3.58,0,0,0,1.64-3A3.5,3.5,0,0,0,193.36,85a46.71,46.71,0,0,0-7.58-2.39,69.69,69.69,0,0,1-9.36-2.76A16.19,16.19,0,0,1,170,75.23q-2.72-3.14-2.71-8.47a14.36,14.36,0,0,1,2.48-8.19,16.62,16.62,0,0,1,7.3-5.84,27.83,27.83,0,0,1,11.46-2.16q9.82,0,15.49,4.87a18.59,18.59,0,0,1,3.52,4,5.76,5.76,0,0,1-4.82,8.89h-3.05a5.84,5.84,0,0,1-4.91-2.76,6.42,6.42,0,0,0-1.41-1.54A8.27,8.27,0,0,0,188,62.46a7.28,7.28,0,0,0-4.3,1.08,3.42,3.42,0,0,0-1.5,2.94,3.6,3.6,0,0,0,2.39,3.37,38.13,38.13,0,0,0,7.44,2.25,80.76,80.76,0,0,1,9.45,3,16.18,16.18,0,0,1,6.41,4.68,13.28,13.28,0,0,1,2.86,8.65,13.71,13.71,0,0,1-2.58,8.19,17,17,0,0,1-7.39,5.66,28.18,28.18,0,0,1-11.19,2.06A30,30,0,0,1,177.45,102Z"/><path class="cls-1" d="M218,46a8,8,0,0,1-2.67-6.13A8.15,8.15,0,0,1,218,33.6a9.72,9.72,0,0,1,6.88-2.48,9.59,9.59,0,0,1,6.78,2.48,8.15,8.15,0,0,1,2.67,6.23A8,8,0,0,1,231.66,46a9.59,9.59,0,0,1-6.78,2.48A9.72,9.72,0,0,1,218,46Zm14.83,15.91V98.09a8,8,0,0,1-8,8h0a8,8,0,0,1-8-8V61.87a8,8,0,0,1,8-8h0A8,8,0,0,1,232.83,61.87Z"/><path class="cls-1" d="M109.56,55.18a22.68,22.68,0,0,1,8.28-9.36,21.6,21.6,0,0,1,11.7-3.28,20.1,20.1,0,0,1,9.69,2.25,16.57,16.57,0,0,1,6.41,5.89h0A7.39,7.39,0,0,1,153,43.29h1.22a7.39,7.39,0,0,1,7.39,7.39V88.12a7.39,7.39,0,0,1-7.39,7.39H153a7.39,7.39,0,0,1-7.39-7.39h0a17.38,17.38,0,0,1-6.5,5.9,20.21,20.21,0,0,1-9.69,2.24,21.23,21.23,0,0,1-11.61-3.32,22.94,22.94,0,0,1-8.28-9.45,31.48,31.48,0,0,1-3-14.18A31.14,31.14,0,0,1,109.56,55.18ZM142.32,60a11.26,11.26,0,0,0-16.19-.05q-3.33,3.42-3.32,9.41t3.32,9.5a10.71,10.71,0,0,0,8.09,3.51,10.83,10.83,0,0,0,8.1-3.46q3.31-3.47,3.32-9.46T142.32,60Z"/><path class="cls-1" d="M177,101.45A20.63,20.63,0,0,1,168.53,95l-.07-.08a5.69,5.69,0,0,1,4.62-9h3.85a5.8,5.8,0,0,1,4.87,2.71,6.58,6.58,0,0,0,1.61,1.69A8.92,8.92,0,0,0,188.93,92a7.88,7.88,0,0,0,4.63-1.17,3.58,3.58,0,0,0,1.64-3,3.5,3.5,0,0,0-2.34-3.32,46.71,46.71,0,0,0-7.58-2.39,69.69,69.69,0,0,1-9.36-2.76,16.19,16.19,0,0,1-6.46-4.59q-2.72-3.14-2.71-8.47a14.36,14.36,0,0,1,2.48-8.19,16.62,16.62,0,0,1,7.3-5.84A27.83,27.83,0,0,1,188,50.07q9.82,0,15.49,4.87A18.59,18.59,0,0,1,207,59a5.76,5.76,0,0,1-4.82,8.89h-3.05a5.84,5.84,0,0,1-4.91-2.76,6.42,6.42,0,0,0-1.41-1.54A8.27,8.27,0,0,0,187.52,62a7.28,7.28,0,0,0-4.3,1.08,3.42,3.42,0,0,0-1.5,2.94,3.6,3.6,0,0,0,2.39,3.37,38.13,38.13,0,0,0,7.44,2.25,80.76,80.76,0,0,1,9.45,3,16.18,16.18,0,0,1,6.41,4.68,13.28,13.28,0,0,1,2.86,8.65,13.71,13.71,0,0,1-2.58,8.19,17,17,0,0,1-7.39,5.66,28.18,28.18,0,0,1-11.19,2.06A30,30,0,0,1,177,101.45Z"/><path class="cls-1" d="M217.5,45.46a8,8,0,0,1-2.67-6.13,8.15,8.15,0,0,1,2.67-6.23,9.72,9.72,0,0,1,6.88-2.48,9.59,9.59,0,0,1,6.78,2.48,8.15,8.15,0,0,1,2.67,6.23,8,8,0,0,1-2.67,6.13,9.59,9.59,0,0,1-6.78,2.48A9.72,9.72,0,0,1,217.5,45.46Zm14.83,15.91V97.59a8,8,0,0,1-8,8h0a8,8,0,0,1-8-8V61.37a8,8,0,0,1,8-8h0A8,8,0,0,1,232.33,61.37Z"/><path class="cls-1" d="M109.06,54.68a22.68,22.68,0,0,1,8.28-9.36A21.6,21.6,0,0,1,129,42a20.1,20.1,0,0,1,9.69,2.25,16.57,16.57,0,0,1,6.41,5.89h0a7.39,7.39,0,0,1,7.39-7.39h1.22a7.39,7.39,0,0,1,7.39,7.39V87.62A7.39,7.39,0,0,1,153.75,95h-1.22a7.39,7.39,0,0,1-7.39-7.39h0a17.38,17.38,0,0,1-6.5,5.9A20.21,20.21,0,0,1,129,95.76a21.23,21.23,0,0,1-11.61-3.32A22.94,22.94,0,0,1,109.06,83a31.48,31.48,0,0,1-3-14.18A31.14,31.14,0,0,1,109.06,54.68Zm32.76,4.77a11.26,11.26,0,0,0-16.19-.05q-3.33,3.42-3.32,9.41t3.32,9.5a10.71,10.71,0,0,0,8.09,3.51,10.83,10.83,0,0,0,8.1-3.46q3.31-3.47,3.32-9.46T141.82,59.45Z"/><path class="cls-1" d="M176.45,101A20.63,20.63,0,0,1,168,94.54l-.07-.08a5.69,5.69,0,0,1,4.62-9h3.85a5.8,5.8,0,0,1,4.87,2.71,6.58,6.58,0,0,0,1.61,1.69,8.92,8.92,0,0,0,5.52,1.68,7.88,7.88,0,0,0,4.63-1.17,3.58,3.58,0,0,0,1.64-3A3.5,3.5,0,0,0,192.36,84a46.71,46.71,0,0,0-7.58-2.39,69.69,69.69,0,0,1-9.36-2.76A16.19,16.19,0,0,1,169,74.23q-2.72-3.14-2.71-8.47a14.36,14.36,0,0,1,2.48-8.19,16.62,16.62,0,0,1,7.3-5.84,27.83,27.83,0,0,1,11.46-2.16q9.82,0,15.49,4.87a18.59,18.59,0,0,1,3.52,4,5.76,5.76,0,0,1-4.82,8.89h-3.05a5.84,5.84,0,0,1-4.91-2.76,6.42,6.42,0,0,0-1.41-1.54A8.27,8.27,0,0,0,187,61.46a7.28,7.28,0,0,0-4.3,1.08,3.42,3.42,0,0,0-1.5,2.94,3.6,3.6,0,0,0,2.39,3.37,38.13,38.13,0,0,0,7.44,2.25,80.76,80.76,0,0,1,9.45,3,16.18,16.18,0,0,1,6.41,4.68,13.28,13.28,0,0,1,2.86,8.65,13.71,13.71,0,0,1-2.58,8.19,17,17,0,0,1-7.39,5.66,28.18,28.18,0,0,1-11.19,2.06A30,30,0,0,1,176.45,101Z"/><path class="cls-1" d="M217,45a8,8,0,0,1-2.67-6.13A8.15,8.15,0,0,1,217,32.6a9.72,9.72,0,0,1,6.88-2.48,9.59,9.59,0,0,1,6.78,2.48,8.15,8.15,0,0,1,2.67,6.23A8,8,0,0,1,230.66,45a9.59,9.59,0,0,1-6.78,2.48A9.72,9.72,0,0,1,217,45Zm14.83,15.91V97.09a8,8,0,0,1-8,8h0a8,8,0,0,1-8-8V60.87a8,8,0,0,1,8-8h0A8,8,0,0,1,231.83,60.87Z"/><path class="cls-1" d="M108.56,54.18a22.68,22.68,0,0,1,8.28-9.36,21.6,21.6,0,0,1,11.7-3.28,20.1,20.1,0,0,1,9.69,2.25,16.57,16.57,0,0,1,6.41,5.89h0A7.39,7.39,0,0,1,152,42.29h1.22a7.39,7.39,0,0,1,7.39,7.39V87.12a7.39,7.39,0,0,1-7.39,7.39H152a7.39,7.39,0,0,1-7.39-7.39h0a17.38,17.38,0,0,1-6.5,5.9,20.21,20.21,0,0,1-9.69,2.24,21.23,21.23,0,0,1-11.61-3.32,22.94,22.94,0,0,1-8.28-9.45,31.48,31.48,0,0,1-3-14.18A31.14,31.14,0,0,1,108.56,54.18ZM141.32,59a11.26,11.26,0,0,0-16.19-.05q-3.33,3.42-3.32,9.41t3.32,9.5a10.71,10.71,0,0,0,8.09,3.51,10.83,10.83,0,0,0,8.1-3.46q3.31-3.47,3.32-9.46T141.32,59Z"/><path class="cls-1" d="M176,100.45A20.63,20.63,0,0,1,167.53,94l-.07-.08a5.69,5.69,0,0,1,4.62-9h3.85a5.8,5.8,0,0,1,4.87,2.71,6.58,6.58,0,0,0,1.61,1.69A8.92,8.92,0,0,0,187.93,91a7.88,7.88,0,0,0,4.63-1.17,3.58,3.58,0,0,0,1.64-3,3.5,3.5,0,0,0-2.34-3.32,46.71,46.71,0,0,0-7.58-2.39,69.69,69.69,0,0,1-9.36-2.76,16.19,16.19,0,0,1-6.46-4.59q-2.72-3.14-2.71-8.47a14.36,14.36,0,0,1,2.48-8.19,16.62,16.62,0,0,1,7.3-5.84A27.83,27.83,0,0,1,187,49.07q9.82,0,15.49,4.87A18.59,18.59,0,0,1,206,58a5.76,5.76,0,0,1-4.82,8.89h-3.05a5.84,5.84,0,0,1-4.91-2.76,6.42,6.42,0,0,0-1.41-1.54A8.27,8.27,0,0,0,186.52,61a7.28,7.28,0,0,0-4.3,1.08,3.42,3.42,0,0,0-1.5,2.94,3.6,3.6,0,0,0,2.39,3.37,38.13,38.13,0,0,0,7.44,2.25,80.76,80.76,0,0,1,9.45,3,16.18,16.18,0,0,1,6.41,4.68,13.28,13.28,0,0,1,2.86,8.65,13.71,13.71,0,0,1-2.58,8.19,17,17,0,0,1-7.39,5.66,28.18,28.18,0,0,1-11.19,2.06A30,30,0,0,1,176,100.45Z"/><path class="cls-1" d="M216.5,44.46a8,8,0,0,1-2.67-6.13,8.15,8.15,0,0,1,2.67-6.23,9.72,9.72,0,0,1,6.88-2.48,9.59,9.59,0,0,1,6.78,2.48,8.15,8.15,0,0,1,2.67,6.23,8,8,0,0,1-2.67,6.13,9.59,9.59,0,0,1-6.78,2.48A9.72,9.72,0,0,1,216.5,44.46Zm14.83,15.91V96.59a8,8,0,0,1-8,8h0a8,8,0,0,1-8-8V60.37a8,8,0,0,1,8-8h0A8,8,0,0,1,231.33,60.37Z"/><path class="cls-1" d="M108.06,53.68a22.68,22.68,0,0,1,8.28-9.36A21.6,21.6,0,0,1,128,41a20.1,20.1,0,0,1,9.69,2.25,16.57,16.57,0,0,1,6.41,5.89h0a7.39,7.39,0,0,1,7.39-7.39h1.22a7.39,7.39,0,0,1,7.39,7.39V86.62A7.39,7.39,0,0,1,152.75,94h-1.22a7.39,7.39,0,0,1-7.39-7.39h0a17.38,17.38,0,0,1-6.5,5.9A20.21,20.21,0,0,1,128,94.76a21.23,21.23,0,0,1-11.61-3.32A22.94,22.94,0,0,1,108.06,82a31.48,31.48,0,0,1-3-14.18A31.14,31.14,0,0,1,108.06,53.68Zm32.76,4.77a11.26,11.26,0,0,0-16.19-.05q-3.33,3.42-3.32,9.41t3.32,9.5a10.71,10.71,0,0,0,8.09,3.51,10.83,10.83,0,0,0,8.1-3.46q3.31-3.47,3.32-9.46T140.82,58.45Z"/><path class="cls-1" d="M175.45,100A20.63,20.63,0,0,1,167,93.54l-.07-.08a5.69,5.69,0,0,1,4.62-9h3.85a5.8,5.8,0,0,1,4.87,2.71,6.58,6.58,0,0,0,1.61,1.69,8.92,8.92,0,0,0,5.52,1.68,7.88,7.88,0,0,0,4.63-1.17,3.58,3.58,0,0,0,1.64-3A3.5,3.5,0,0,0,191.36,83a46.71,46.71,0,0,0-7.58-2.39,69.69,69.69,0,0,1-9.36-2.76A16.19,16.19,0,0,1,168,73.23q-2.72-3.14-2.71-8.47a14.36,14.36,0,0,1,2.48-8.19,16.62,16.62,0,0,1,7.3-5.84,27.83,27.83,0,0,1,11.46-2.16q9.82,0,15.49,4.87a18.59,18.59,0,0,1,3.52,4,5.76,5.76,0,0,1-4.82,8.89h-3.05a5.84,5.84,0,0,1-4.91-2.76,6.42,6.42,0,0,0-1.41-1.54A8.27,8.27,0,0,0,186,60.46a7.28,7.28,0,0,0-4.3,1.08,3.42,3.42,0,0,0-1.5,2.94,3.6,3.6,0,0,0,2.39,3.37,38.13,38.13,0,0,0,7.44,2.25,80.76,80.76,0,0,1,9.45,3,16.18,16.18,0,0,1,6.41,4.68,13.28,13.28,0,0,1,2.86,8.65,13.71,13.71,0,0,1-2.58,8.19,17,17,0,0,1-7.39,5.66,28.18,28.18,0,0,1-11.19,2.06A30,30,0,0,1,175.45,100Z"/><path class="cls-1" d="M216,44a8,8,0,0,1-2.67-6.13A8.15,8.15,0,0,1,216,31.6a9.72,9.72,0,0,1,6.88-2.48,9.59,9.59,0,0,1,6.78,2.48,8.15,8.15,0,0,1,2.67,6.23A8,8,0,0,1,229.66,44a9.59,9.59,0,0,1-6.78,2.48A9.72,9.72,0,0,1,216,44Zm14.83,15.91V96.09a8,8,0,0,1-8,8h0a8,8,0,0,1-8-8V59.87a8,8,0,0,1,8-8h0A8,8,0,0,1,230.83,59.87Z"/><path class="cls-1" d="M107.56,53.18a22.68,22.68,0,0,1,8.28-9.36,21.6,21.6,0,0,1,11.7-3.28,20.1,20.1,0,0,1,9.69,2.25,16.57,16.57,0,0,1,6.41,5.89h0A7.39,7.39,0,0,1,151,41.29h1.22a7.39,7.39,0,0,1,7.39,7.39V86.12a7.39,7.39,0,0,1-7.39,7.39H151a7.39,7.39,0,0,1-7.39-7.39h0a17.38,17.38,0,0,1-6.5,5.9,20.21,20.21,0,0,1-9.69,2.24,21.23,21.23,0,0,1-11.61-3.32,22.94,22.94,0,0,1-8.28-9.45,31.48,31.48,0,0,1-3-14.18A31.14,31.14,0,0,1,107.56,53.18ZM140.32,58a11.26,11.26,0,0,0-16.19-.05q-3.33,3.42-3.32,9.41t3.32,9.5a10.71,10.71,0,0,0,8.09,3.51,10.83,10.83,0,0,0,8.1-3.46q3.31-3.47,3.32-9.46T140.32,58Z"/><path class="cls-1" d="M175,99.45A20.63,20.63,0,0,1,166.53,93l-.07-.08a5.69,5.69,0,0,1,4.62-9h3.85a5.8,5.8,0,0,1,4.87,2.71,6.58,6.58,0,0,0,1.61,1.69A8.92,8.92,0,0,0,186.93,90a7.88,7.88,0,0,0,4.63-1.17,3.58,3.58,0,0,0,1.64-3,3.5,3.5,0,0,0-2.34-3.32,46.71,46.71,0,0,0-7.58-2.39,69.69,69.69,0,0,1-9.36-2.76,16.19,16.19,0,0,1-6.46-4.59q-2.72-3.14-2.71-8.47a14.36,14.36,0,0,1,2.48-8.19,16.62,16.62,0,0,1,7.3-5.84A27.83,27.83,0,0,1,186,48.07q9.82,0,15.49,4.87A18.59,18.59,0,0,1,205,57a5.76,5.76,0,0,1-4.82,8.89h-3.05a5.84,5.84,0,0,1-4.91-2.76,6.42,6.42,0,0,0-1.41-1.54A8.27,8.27,0,0,0,185.52,60a7.28,7.28,0,0,0-4.3,1.08,3.42,3.42,0,0,0-1.5,2.94,3.6,3.6,0,0,0,2.39,3.37,38.13,38.13,0,0,0,7.44,2.25,80.76,80.76,0,0,1,9.45,3,16.18,16.18,0,0,1,6.41,4.68,13.28,13.28,0,0,1,2.86,8.65,13.71,13.71,0,0,1-2.58,8.19,17,17,0,0,1-7.39,5.66,28.18,28.18,0,0,1-11.19,2.06A30,30,0,0,1,175,99.45Z"/><path class="cls-1" d="M215.5,43.46a8,8,0,0,1-2.67-6.13,8.15,8.15,0,0,1,2.67-6.23,9.72,9.72,0,0,1,6.88-2.48,9.59,9.59,0,0,1,6.78,2.48,8.15,8.15,0,0,1,2.67,6.23,8,8,0,0,1-2.67,6.13,9.59,9.59,0,0,1-6.78,2.48A9.72,9.72,0,0,1,215.5,43.46Zm14.83,15.91V95.59a8,8,0,0,1-8,8h0a8,8,0,0,1-8-8V59.37a8,8,0,0,1,8-8h0A8,8,0,0,1,230.33,59.37Z"/><path class="cls-1" d="M107.06,52.68a22.68,22.68,0,0,1,8.28-9.36A21.6,21.6,0,0,1,127,40a20.1,20.1,0,0,1,9.69,2.25,16.57,16.57,0,0,1,6.41,5.89h0a7.39,7.39,0,0,1,7.39-7.39h1.22a7.39,7.39,0,0,1,7.39,7.39V85.62A7.39,7.39,0,0,1,151.75,93h-1.22a7.39,7.39,0,0,1-7.39-7.39h0a17.38,17.38,0,0,1-6.5,5.9A20.21,20.21,0,0,1,127,93.76a21.23,21.23,0,0,1-11.61-3.32A22.94,22.94,0,0,1,107.06,81a31.48,31.48,0,0,1-3-14.18A31.14,31.14,0,0,1,107.06,52.68Zm32.76,4.77a11.26,11.26,0,0,0-16.19-.05q-3.33,3.42-3.32,9.41t3.32,9.5a10.71,10.71,0,0,0,8.09,3.51,10.83,10.83,0,0,0,8.1-3.46q3.31-3.47,3.32-9.46T139.82,57.45Z"/><path class="cls-1" d="M174.45,99A20.63,20.63,0,0,1,166,92.54l-.07-.08a5.69,5.69,0,0,1,4.62-9h3.85a5.8,5.8,0,0,1,4.87,2.71,6.58,6.58,0,0,0,1.61,1.69,8.92,8.92,0,0,0,5.52,1.68,7.88,7.88,0,0,0,4.63-1.17,3.58,3.58,0,0,0,1.64-3A3.5,3.5,0,0,0,190.36,82a46.71,46.71,0,0,0-7.58-2.39,69.69,69.69,0,0,1-9.36-2.76A16.19,16.19,0,0,1,167,72.23q-2.72-3.14-2.71-8.47a14.36,14.36,0,0,1,2.48-8.19,16.62,16.62,0,0,1,7.3-5.84,27.83,27.83,0,0,1,11.46-2.16q9.82,0,15.49,4.87a18.59,18.59,0,0,1,3.52,4,5.76,5.76,0,0,1-4.82,8.89h-3.05a5.84,5.84,0,0,1-4.91-2.76,6.42,6.42,0,0,0-1.41-1.54A8.27,8.27,0,0,0,185,59.46a7.28,7.28,0,0,0-4.3,1.08,3.42,3.42,0,0,0-1.5,2.94,3.6,3.6,0,0,0,2.39,3.37,38.13,38.13,0,0,0,7.44,2.25,80.76,80.76,0,0,1,9.45,3,16.18,16.18,0,0,1,6.41,4.68,13.28,13.28,0,0,1,2.86,8.65,13.71,13.71,0,0,1-2.58,8.19,17,17,0,0,1-7.39,5.66,28.18,28.18,0,0,1-11.19,2.06A30,30,0,0,1,174.45,99Z"/><path class="cls-1" d="M215,43a8,8,0,0,1-2.67-6.13A8.15,8.15,0,0,1,215,30.6a9.72,9.72,0,0,1,6.88-2.48,9.59,9.59,0,0,1,6.78,2.48,8.15,8.15,0,0,1,2.67,6.23A8,8,0,0,1,228.66,43a9.59,9.59,0,0,1-6.78,2.48A9.72,9.72,0,0,1,215,43Zm14.83,15.91V95.09a8,8,0,0,1-8,8h0a8,8,0,0,1-8-8V58.87a8,8,0,0,1,8-8h0A8,8,0,0,1,229.83,58.87Z"/><path class="cls-1" d="M106.56,52.18a22.68,22.68,0,0,1,8.28-9.36,21.6,21.6,0,0,1,11.7-3.28,20.1,20.1,0,0,1,9.69,2.25,16.57,16.57,0,0,1,6.41,5.89h0A7.39,7.39,0,0,1,150,40.29h1.22a7.39,7.39,0,0,1,7.39,7.39V85.12a7.39,7.39,0,0,1-7.39,7.39H150a7.39,7.39,0,0,1-7.39-7.39h0a17.38,17.38,0,0,1-6.5,5.9,20.21,20.21,0,0,1-9.69,2.24,21.23,21.23,0,0,1-11.61-3.32,22.94,22.94,0,0,1-8.28-9.45,31.48,31.48,0,0,1-3-14.18A31.14,31.14,0,0,1,106.56,52.18ZM139.32,57a11.26,11.26,0,0,0-16.19-.05q-3.33,3.42-3.32,9.41t3.32,9.5a10.71,10.71,0,0,0,8.09,3.51,10.83,10.83,0,0,0,8.1-3.46q3.31-3.47,3.32-9.46T139.32,57Z"/><path class="cls-1" d="M174,98.45A20.63,20.63,0,0,1,165.53,92l-.07-.08a5.69,5.69,0,0,1,4.62-9h3.85a5.8,5.8,0,0,1,4.87,2.71,6.58,6.58,0,0,0,1.61,1.69A8.92,8.92,0,0,0,185.93,89a7.88,7.88,0,0,0,4.63-1.17,3.58,3.58,0,0,0,1.64-3,3.5,3.5,0,0,0-2.34-3.32,46.71,46.71,0,0,0-7.58-2.39,69.69,69.69,0,0,1-9.36-2.76,16.19,16.19,0,0,1-6.46-4.59q-2.72-3.14-2.71-8.47a14.36,14.36,0,0,1,2.48-8.19,16.62,16.62,0,0,1,7.3-5.84A27.83,27.83,0,0,1,185,47.07q9.82,0,15.49,4.87A18.59,18.59,0,0,1,204,56a5.76,5.76,0,0,1-4.82,8.89h-3.05a5.84,5.84,0,0,1-4.91-2.76,6.42,6.42,0,0,0-1.41-1.54A8.27,8.27,0,0,0,184.52,59a7.28,7.28,0,0,0-4.3,1.08,3.42,3.42,0,0,0-1.5,2.94,3.6,3.6,0,0,0,2.39,3.37,38.13,38.13,0,0,0,7.44,2.25,80.76,80.76,0,0,1,9.45,3,16.18,16.18,0,0,1,6.41,4.68,13.28,13.28,0,0,1,2.86,8.65,13.71,13.71,0,0,1-2.58,8.19,17,17,0,0,1-7.39,5.66,28.18,28.18,0,0,1-11.19,2.06A30,30,0,0,1,174,98.45Z"/><path class="cls-1" d="M214.5,42.46a8,8,0,0,1-2.67-6.13,8.15,8.15,0,0,1,2.67-6.23,9.72,9.72,0,0,1,6.88-2.48,9.59,9.59,0,0,1,6.78,2.48,8.15,8.15,0,0,1,2.67,6.23,8,8,0,0,1-2.67,6.13,9.59,9.59,0,0,1-6.78,2.48A9.72,9.72,0,0,1,214.5,42.46Zm14.83,15.91V94.59a8,8,0,0,1-8,8h0a8,8,0,0,1-8-8V58.37a8,8,0,0,1,8-8h0A8,8,0,0,1,229.33,58.37Z"/><path class="cls-1" d="M106.06,51.68a22.68,22.68,0,0,1,8.28-9.36A21.6,21.6,0,0,1,126,39a20.1,20.1,0,0,1,9.69,2.25,16.57,16.57,0,0,1,6.41,5.89h0a7.39,7.39,0,0,1,7.39-7.39h1.22a7.39,7.39,0,0,1,7.39,7.39V84.62A7.39,7.39,0,0,1,150.75,92h-1.22a7.39,7.39,0,0,1-7.39-7.39h0a17.38,17.38,0,0,1-6.5,5.9A20.21,20.21,0,0,1,126,92.76a21.23,21.23,0,0,1-11.61-3.32A22.94,22.94,0,0,1,106.06,80a31.48,31.48,0,0,1-3-14.18A31.14,31.14,0,0,1,106.06,51.68Zm32.76,4.77a11.26,11.26,0,0,0-16.19-.05q-3.33,3.42-3.32,9.41t3.32,9.5a10.71,10.71,0,0,0,8.09,3.51,10.83,10.83,0,0,0,8.1-3.46q3.31-3.47,3.32-9.46T138.82,56.45Z"/><path class="cls-1" d="M173.45,98A20.63,20.63,0,0,1,165,91.54l-.07-.08a5.69,5.69,0,0,1,4.62-9h3.85a5.8,5.8,0,0,1,4.87,2.71,6.58,6.58,0,0,0,1.61,1.69,8.92,8.92,0,0,0,5.52,1.68,7.88,7.88,0,0,0,4.63-1.17,3.58,3.58,0,0,0,1.64-3A3.5,3.5,0,0,0,189.36,81a46.71,46.71,0,0,0-7.58-2.39,69.69,69.69,0,0,1-9.36-2.76A16.19,16.19,0,0,1,166,71.23q-2.72-3.14-2.71-8.47a14.36,14.36,0,0,1,2.48-8.19,16.62,16.62,0,0,1,7.3-5.84,27.83,27.83,0,0,1,11.46-2.16q9.82,0,15.49,4.87a18.59,18.59,0,0,1,3.52,4,5.76,5.76,0,0,1-4.82,8.89h-3.05a5.84,5.84,0,0,1-4.91-2.76,6.42,6.42,0,0,0-1.41-1.54A8.27,8.27,0,0,0,184,58.46a7.28,7.28,0,0,0-4.3,1.08,3.42,3.42,0,0,0-1.5,2.94,3.6,3.6,0,0,0,2.39,3.37,38.13,38.13,0,0,0,7.44,2.25,80.76,80.76,0,0,1,9.45,3,16.18,16.18,0,0,1,6.41,4.68,13.28,13.28,0,0,1,2.86,8.65,13.71,13.71,0,0,1-2.58,8.19,17,17,0,0,1-7.39,5.66,28.18,28.18,0,0,1-11.19,2.06A30,30,0,0,1,173.45,98Z"/><path class="cls-1" d="M214,42a8,8,0,0,1-2.67-6.13A8.15,8.15,0,0,1,214,29.6a9.72,9.72,0,0,1,6.88-2.48,9.59,9.59,0,0,1,6.78,2.48,8.15,8.15,0,0,1,2.67,6.23A8,8,0,0,1,227.66,42a9.59,9.59,0,0,1-6.78,2.48A9.72,9.72,0,0,1,214,42Zm14.83,15.91V94.09a8,8,0,0,1-8,8h0a8,8,0,0,1-8-8V57.87a8,8,0,0,1,8-8h0A8,8,0,0,1,228.83,57.87Z"/><path class="cls-1" d="M105.56,51.18a22.68,22.68,0,0,1,8.28-9.36,21.6,21.6,0,0,1,11.7-3.28,20.1,20.1,0,0,1,9.69,2.25,16.57,16.57,0,0,1,6.41,5.89h0A7.39,7.39,0,0,1,149,39.29h1.22a7.39,7.39,0,0,1,7.39,7.39V84.12a7.39,7.39,0,0,1-7.39,7.39H149a7.39,7.39,0,0,1-7.39-7.39h0a17.38,17.38,0,0,1-6.5,5.9,20.21,20.21,0,0,1-9.69,2.24,21.23,21.23,0,0,1-11.61-3.32,22.94,22.94,0,0,1-8.28-9.45,31.48,31.48,0,0,1-3-14.18A31.14,31.14,0,0,1,105.56,51.18ZM138.32,56a11.26,11.26,0,0,0-16.19-.05q-3.33,3.42-3.32,9.41t3.32,9.5a10.71,10.71,0,0,0,8.09,3.51,10.83,10.83,0,0,0,8.1-3.46q3.31-3.47,3.32-9.46T138.32,56Z"/><path class="cls-1" d="M173,97.45A20.63,20.63,0,0,1,164.53,91l-.07-.08a5.69,5.69,0,0,1,4.62-9h3.85a5.8,5.8,0,0,1,4.87,2.71,6.58,6.58,0,0,0,1.61,1.69A8.92,8.92,0,0,0,184.93,88a7.88,7.88,0,0,0,4.63-1.17,3.58,3.58,0,0,0,1.64-3,3.5,3.5,0,0,0-2.34-3.32,46.71,46.71,0,0,0-7.58-2.39,69.69,69.69,0,0,1-9.36-2.76,16.19,16.19,0,0,1-6.46-4.59q-2.72-3.14-2.71-8.47a14.36,14.36,0,0,1,2.48-8.19,16.62,16.62,0,0,1,7.3-5.84A27.83,27.83,0,0,1,184,46.07q9.82,0,15.49,4.87A18.59,18.59,0,0,1,203,55a5.76,5.76,0,0,1-4.82,8.89h-3.05a5.84,5.84,0,0,1-4.91-2.76,6.42,6.42,0,0,0-1.41-1.54A8.27,8.27,0,0,0,183.52,58a7.28,7.28,0,0,0-4.3,1.08,3.42,3.42,0,0,0-1.5,2.94,3.6,3.6,0,0,0,2.39,3.37,38.13,38.13,0,0,0,7.44,2.25,80.76,80.76,0,0,1,9.45,3,16.18,16.18,0,0,1,6.41,4.68,13.28,13.28,0,0,1,2.86,8.65,13.71,13.71,0,0,1-2.58,8.19,17,17,0,0,1-7.39,5.66,28.18,28.18,0,0,1-11.19,2.06A30,30,0,0,1,173,97.45Z"/><path class="cls-1" d="M213.5,41.46a8,8,0,0,1-2.67-6.13,8.15,8.15,0,0,1,2.67-6.23,9.72,9.72,0,0,1,6.88-2.48,9.59,9.59,0,0,1,6.78,2.48,8.15,8.15,0,0,1,2.67,6.23,8,8,0,0,1-2.67,6.13,9.59,9.59,0,0,1-6.78,2.48A9.72,9.72,0,0,1,213.5,41.46Zm14.83,15.91V93.59a8,8,0,0,1-8,8h0a8,8,0,0,1-8-8V57.37a8,8,0,0,1,8-8h0A8,8,0,0,1,228.33,57.37Z"/><path class="cls-1" d="M105.06,50.68a22.68,22.68,0,0,1,8.28-9.36A21.6,21.6,0,0,1,125,38a20.1,20.1,0,0,1,9.69,2.25,16.57,16.57,0,0,1,6.41,5.89h0a7.39,7.39,0,0,1,7.39-7.39h1.22a7.39,7.39,0,0,1,7.39,7.39V83.62A7.39,7.39,0,0,1,149.75,91h-1.22a7.39,7.39,0,0,1-7.39-7.39h0a17.38,17.38,0,0,1-6.5,5.9A20.21,20.21,0,0,1,125,91.76a21.23,21.23,0,0,1-11.61-3.32A22.94,22.94,0,0,1,105.06,79a31.48,31.48,0,0,1-3-14.18A31.14,31.14,0,0,1,105.06,50.68Zm32.76,4.77a11.26,11.26,0,0,0-16.19-.05q-3.33,3.42-3.32,9.41t3.32,9.5a10.71,10.71,0,0,0,8.09,3.51,10.83,10.83,0,0,0,8.1-3.46q3.31-3.47,3.32-9.46T137.82,55.45Z"/><path class="cls-1" d="M172.45,97A20.63,20.63,0,0,1,164,90.54l-.07-.08a5.69,5.69,0,0,1,4.62-9h3.85a5.8,5.8,0,0,1,4.87,2.71,6.58,6.58,0,0,0,1.61,1.69,8.92,8.92,0,0,0,5.52,1.68,7.88,7.88,0,0,0,4.63-1.17,3.58,3.58,0,0,0,1.64-3A3.5,3.5,0,0,0,188.36,80a46.71,46.71,0,0,0-7.58-2.39,69.69,69.69,0,0,1-9.36-2.76A16.19,16.19,0,0,1,165,70.23q-2.72-3.14-2.71-8.47a14.36,14.36,0,0,1,2.48-8.19,16.62,16.62,0,0,1,7.3-5.84,27.83,27.83,0,0,1,11.46-2.16q9.82,0,15.49,4.87a18.59,18.59,0,0,1,3.52,4,5.76,5.76,0,0,1-4.82,8.89h-3.05a5.84,5.84,0,0,1-4.91-2.76,6.42,6.42,0,0,0-1.41-1.54A8.27,8.27,0,0,0,183,57.46a7.28,7.28,0,0,0-4.3,1.08,3.42,3.42,0,0,0-1.5,2.94,3.6,3.6,0,0,0,2.39,3.37,38.13,38.13,0,0,0,7.44,2.25,80.76,80.76,0,0,1,9.45,3,16.18,16.18,0,0,1,6.41,4.68,13.28,13.28,0,0,1,2.86,8.65,13.71,13.71,0,0,1-2.58,8.19,17,17,0,0,1-7.39,5.66,28.18,28.18,0,0,1-11.19,2.06A30,30,0,0,1,172.45,97Z"/><path class="cls-1" d="M213,41a8,8,0,0,1-2.67-6.13A8.15,8.15,0,0,1,213,28.6a9.72,9.72,0,0,1,6.88-2.48,9.59,9.59,0,0,1,6.78,2.48,8.15,8.15,0,0,1,2.67,6.23A8,8,0,0,1,226.66,41a9.59,9.59,0,0,1-6.78,2.48A9.72,9.72,0,0,1,213,41Zm14.83,15.91V93.09a8,8,0,0,1-8,8h0a8,8,0,0,1-8-8V56.87a8,8,0,0,1,8-8h0A8,8,0,0,1,227.83,56.87Z"/><path class="cls-1" d="M104.56,50.18a22.68,22.68,0,0,1,8.28-9.36,21.6,21.6,0,0,1,11.7-3.28,20.1,20.1,0,0,1,9.69,2.25,16.57,16.57,0,0,1,6.41,5.89h0A7.39,7.39,0,0,1,148,38.29h1.22a7.39,7.39,0,0,1,7.39,7.39V83.12a7.39,7.39,0,0,1-7.39,7.39H148a7.39,7.39,0,0,1-7.39-7.39h0a17.38,17.38,0,0,1-6.5,5.9,20.21,20.21,0,0,1-9.69,2.24,21.23,21.23,0,0,1-11.61-3.32,22.94,22.94,0,0,1-8.28-9.45,31.48,31.48,0,0,1-3-14.18A31.14,31.14,0,0,1,104.56,50.18ZM137.32,55a11.26,11.26,0,0,0-16.19-.05q-3.33,3.42-3.32,9.41t3.32,9.5a10.71,10.71,0,0,0,8.09,3.51,10.83,10.83,0,0,0,8.1-3.46q3.31-3.47,3.32-9.46T137.32,55Z"/><path class="cls-1" d="M172,96.45A20.63,20.63,0,0,1,163.53,90l-.07-.08a5.69,5.69,0,0,1,4.62-9h3.85a5.8,5.8,0,0,1,4.87,2.71,6.58,6.58,0,0,0,1.61,1.69A8.92,8.92,0,0,0,183.93,87a7.88,7.88,0,0,0,4.63-1.17,3.58,3.58,0,0,0,1.64-3,3.5,3.5,0,0,0-2.34-3.32,46.71,46.71,0,0,0-7.58-2.39,69.69,69.69,0,0,1-9.36-2.76,16.19,16.19,0,0,1-6.46-4.59q-2.72-3.14-2.71-8.47a14.36,14.36,0,0,1,2.48-8.19,16.62,16.62,0,0,1,7.3-5.84A27.83,27.83,0,0,1,183,45.07q9.82,0,15.49,4.87A18.59,18.59,0,0,1,202,54a5.76,5.76,0,0,1-4.82,8.89h-3.05a5.84,5.84,0,0,1-4.91-2.76,6.42,6.42,0,0,0-1.41-1.54A8.27,8.27,0,0,0,182.52,57a7.28,7.28,0,0,0-4.3,1.08,3.42,3.42,0,0,0-1.5,2.94,3.6,3.6,0,0,0,2.39,3.37,38.13,38.13,0,0,0,7.44,2.25,80.76,80.76,0,0,1,9.45,3,16.18,16.18,0,0,1,6.41,4.68,13.28,13.28,0,0,1,2.86,8.65,13.71,13.71,0,0,1-2.58,8.19,17,17,0,0,1-7.39,5.66,28.18,28.18,0,0,1-11.19,2.06A30,30,0,0,1,172,96.45Z"/><path class="cls-1" d="M212.5,40.46a8,8,0,0,1-2.67-6.13,8.15,8.15,0,0,1,2.67-6.23,9.72,9.72,0,0,1,6.88-2.48,9.59,9.59,0,0,1,6.78,2.48,8.15,8.15,0,0,1,2.67,6.23,8,8,0,0,1-2.67,6.13,9.59,9.59,0,0,1-6.78,2.48A9.72,9.72,0,0,1,212.5,40.46Zm14.83,15.91V92.59a8,8,0,0,1-8,8h0a8,8,0,0,1-8-8V56.37a8,8,0,0,1,8-8h0A8,8,0,0,1,227.33,56.37Z"/><path class="cls-1" d="M104.06,49.68a22.68,22.68,0,0,1,8.28-9.36A21.6,21.6,0,0,1,124,37a20.1,20.1,0,0,1,9.69,2.25,16.57,16.57,0,0,1,6.41,5.89h0a7.39,7.39,0,0,1,7.39-7.39h1.22a7.39,7.39,0,0,1,7.39,7.39V82.62A7.39,7.39,0,0,1,148.75,90h-1.22a7.39,7.39,0,0,1-7.39-7.39h0a17.38,17.38,0,0,1-6.5,5.9A20.21,20.21,0,0,1,124,90.76a21.23,21.23,0,0,1-11.61-3.32A22.94,22.94,0,0,1,104.06,78a31.48,31.48,0,0,1-3-14.18A31.14,31.14,0,0,1,104.06,49.68Zm32.76,4.77a11.26,11.26,0,0,0-16.19-.05q-3.33,3.42-3.32,9.41t3.32,9.5a10.71,10.71,0,0,0,8.09,3.51,10.83,10.83,0,0,0,8.1-3.46q3.31-3.47,3.32-9.46T136.82,54.45Z"/><path class="cls-1" d="M171.45,96A20.63,20.63,0,0,1,163,89.54l-.07-.08a5.69,5.69,0,0,1,4.62-9h3.85a5.8,5.8,0,0,1,4.87,2.71,6.58,6.58,0,0,0,1.61,1.69,8.92,8.92,0,0,0,5.52,1.68,7.88,7.88,0,0,0,4.63-1.17,3.58,3.58,0,0,0,1.64-3A3.5,3.5,0,0,0,187.36,79a46.71,46.71,0,0,0-7.58-2.39,69.69,69.69,0,0,1-9.36-2.76A16.19,16.19,0,0,1,164,69.23q-2.72-3.14-2.71-8.47a14.36,14.36,0,0,1,2.48-8.19,16.62,16.62,0,0,1,7.3-5.84,27.83,27.83,0,0,1,11.46-2.16q9.82,0,15.49,4.87a18.59,18.59,0,0,1,3.52,4,5.76,5.76,0,0,1-4.82,8.89h-3.05a5.84,5.84,0,0,1-4.91-2.76,6.42,6.42,0,0,0-1.41-1.54A8.27,8.27,0,0,0,182,56.46a7.28,7.28,0,0,0-4.3,1.08,3.42,3.42,0,0,0-1.5,2.94,3.6,3.6,0,0,0,2.39,3.37,38.13,38.13,0,0,0,7.44,2.25,80.76,80.76,0,0,1,9.45,3,16.18,16.18,0,0,1,6.41,4.68,13.28,13.28,0,0,1,2.86,8.65,13.71,13.71,0,0,1-2.58,8.19,17,17,0,0,1-7.39,5.66,28.18,28.18,0,0,1-11.19,2.06A30,30,0,0,1,171.45,96Z"/><path class="cls-1" d="M212,40a8,8,0,0,1-2.67-6.13A8.15,8.15,0,0,1,212,27.6a9.72,9.72,0,0,1,6.88-2.48,9.59,9.59,0,0,1,6.78,2.48,8.15,8.15,0,0,1,2.67,6.23A8,8,0,0,1,225.66,40a9.59,9.59,0,0,1-6.78,2.48A9.72,9.72,0,0,1,212,40Zm14.83,15.91V92.09a8,8,0,0,1-8,8h0a8,8,0,0,1-8-8V55.87a8,8,0,0,1,8-8h0A8,8,0,0,1,226.83,55.87Z"/><path class="cls-1" d="M103.56,49.18a22.68,22.68,0,0,1,8.28-9.36,21.6,21.6,0,0,1,11.7-3.28,20.1,20.1,0,0,1,9.69,2.25,16.57,16.57,0,0,1,6.41,5.89h0A7.39,7.39,0,0,1,147,37.29h1.22a7.39,7.39,0,0,1,7.39,7.39V82.12a7.39,7.39,0,0,1-7.39,7.39H147a7.39,7.39,0,0,1-7.39-7.39h0a17.38,17.38,0,0,1-6.5,5.9,20.21,20.21,0,0,1-9.69,2.24,21.23,21.23,0,0,1-11.61-3.32,22.94,22.94,0,0,1-8.28-9.45,31.48,31.48,0,0,1-3-14.18A31.14,31.14,0,0,1,103.56,49.18ZM136.32,54a11.26,11.26,0,0,0-16.19-.05q-3.33,3.42-3.32,9.41t3.32,9.5a10.71,10.71,0,0,0,8.09,3.51,10.83,10.83,0,0,0,8.1-3.46q3.31-3.47,3.32-9.46T136.32,54Z"/><path class="cls-1" d="M171,95.45A20.63,20.63,0,0,1,162.53,89l-.07-.08a5.69,5.69,0,0,1,4.62-9h3.85a5.8,5.8,0,0,1,4.87,2.71,6.58,6.58,0,0,0,1.61,1.69A8.92,8.92,0,0,0,182.93,86a7.88,7.88,0,0,0,4.63-1.17,3.58,3.58,0,0,0,1.64-3,3.5,3.5,0,0,0-2.34-3.32,46.71,46.71,0,0,0-7.58-2.39,69.69,69.69,0,0,1-9.36-2.76,16.19,16.19,0,0,1-6.46-4.59q-2.72-3.14-2.71-8.47a14.36,14.36,0,0,1,2.48-8.19,16.62,16.62,0,0,1,7.3-5.84A27.83,27.83,0,0,1,182,44.07q9.82,0,15.49,4.87A18.59,18.59,0,0,1,201,53a5.76,5.76,0,0,1-4.82,8.89h-3.05a5.84,5.84,0,0,1-4.91-2.76,6.42,6.42,0,0,0-1.41-1.54A8.27,8.27,0,0,0,181.52,56a7.28,7.28,0,0,0-4.3,1.08,3.42,3.42,0,0,0-1.5,2.94,3.6,3.6,0,0,0,2.39,3.37,38.13,38.13,0,0,0,7.44,2.25,80.76,80.76,0,0,1,9.45,3,16.18,16.18,0,0,1,6.41,4.68,13.28,13.28,0,0,1,2.86,8.65,13.71,13.71,0,0,1-2.58,8.19,17,17,0,0,1-7.39,5.66,28.18,28.18,0,0,1-11.19,2.06A30,30,0,0,1,171,95.45Z"/><path class="cls-1" d="M211.5,39.46a8,8,0,0,1-2.67-6.13,8.15,8.15,0,0,1,2.67-6.23,9.72,9.72,0,0,1,6.88-2.48,9.59,9.59,0,0,1,6.78,2.48,8.15,8.15,0,0,1,2.67,6.23,8,8,0,0,1-2.67,6.13,9.59,9.59,0,0,1-6.78,2.48A9.72,9.72,0,0,1,211.5,39.46Zm14.83,15.91V91.59a8,8,0,0,1-8,8h0a8,8,0,0,1-8-8V55.37a8,8,0,0,1,8-8h0A8,8,0,0,1,226.33,55.37Z"/><path class="cls-1" d="M103.06,48.68a22.68,22.68,0,0,1,8.28-9.36A21.6,21.6,0,0,1,123,36a20.1,20.1,0,0,1,9.69,2.25,16.57,16.57,0,0,1,6.41,5.89h0a7.39,7.39,0,0,1,7.39-7.39h1.22a7.39,7.39,0,0,1,7.39,7.39V81.62A7.39,7.39,0,0,1,147.75,89h-1.22a7.39,7.39,0,0,1-7.39-7.39h0a17.38,17.38,0,0,1-6.5,5.9A20.21,20.21,0,0,1,123,89.76a21.23,21.23,0,0,1-11.61-3.32A22.94,22.94,0,0,1,103.06,77a31.48,31.48,0,0,1-3-14.18A31.14,31.14,0,0,1,103.06,48.68Zm32.76,4.77a11.26,11.26,0,0,0-16.19-.05q-3.33,3.42-3.32,9.41t3.32,9.5a10.71,10.71,0,0,0,8.09,3.51,10.83,10.83,0,0,0,8.1-3.46q3.31-3.47,3.32-9.46T135.82,53.45Z"/><path class="cls-1" d="M170.45,95A20.63,20.63,0,0,1,162,88.54l-.07-.08a5.69,5.69,0,0,1,4.62-9h3.85a5.8,5.8,0,0,1,4.87,2.71,6.58,6.58,0,0,0,1.61,1.69,8.92,8.92,0,0,0,5.52,1.68,7.88,7.88,0,0,0,4.63-1.17,3.58,3.58,0,0,0,1.64-3A3.5,3.5,0,0,0,186.36,78a46.71,46.71,0,0,0-7.58-2.39,69.69,69.69,0,0,1-9.36-2.76A16.19,16.19,0,0,1,163,68.23q-2.72-3.14-2.71-8.47a14.36,14.36,0,0,1,2.48-8.19,16.62,16.62,0,0,1,7.3-5.84,27.83,27.83,0,0,1,11.46-2.16q9.82,0,15.49,4.87a18.59,18.59,0,0,1,3.52,4,5.76,5.76,0,0,1-4.82,8.89h-3.05a5.84,5.84,0,0,1-4.91-2.76,6.42,6.42,0,0,0-1.41-1.54A8.27,8.27,0,0,0,181,55.46a7.28,7.28,0,0,0-4.3,1.08,3.42,3.42,0,0,0-1.5,2.94,3.6,3.6,0,0,0,2.39,3.37,38.13,38.13,0,0,0,7.44,2.25,80.76,80.76,0,0,1,9.45,3,16.18,16.18,0,0,1,6.41,4.68,13.28,13.28,0,0,1,2.86,8.65,13.71,13.71,0,0,1-2.58,8.19,17,17,0,0,1-7.39,5.66,28.18,28.18,0,0,1-11.19,2.06A30,30,0,0,1,170.45,95Z"/><path class="cls-1" d="M211,39a8,8,0,0,1-2.67-6.13A8.15,8.15,0,0,1,211,26.6a9.72,9.72,0,0,1,6.88-2.48,9.59,9.59,0,0,1,6.78,2.48,8.15,8.15,0,0,1,2.67,6.23A8,8,0,0,1,224.66,39a9.59,9.59,0,0,1-6.78,2.48A9.72,9.72,0,0,1,211,39Zm14.83,15.91V91.09a8,8,0,0,1-8,8h0a8,8,0,0,1-8-8V54.87a8,8,0,0,1,8-8h0A8,8,0,0,1,225.83,54.87Z"/><path class="cls-1" d="M102.56,48.18a22.68,22.68,0,0,1,8.28-9.36,21.6,21.6,0,0,1,11.7-3.28,20.1,20.1,0,0,1,9.69,2.25,16.57,16.57,0,0,1,6.41,5.89h0A7.39,7.39,0,0,1,146,36.29h1.22a7.39,7.39,0,0,1,7.39,7.39V81.12a7.39,7.39,0,0,1-7.39,7.39H146a7.39,7.39,0,0,1-7.39-7.39h0a17.38,17.38,0,0,1-6.5,5.9,20.21,20.21,0,0,1-9.69,2.24,21.23,21.23,0,0,1-11.61-3.32,22.94,22.94,0,0,1-8.28-9.45,31.48,31.48,0,0,1-3-14.18A31.14,31.14,0,0,1,102.56,48.18ZM135.32,53a11.26,11.26,0,0,0-16.19-.05q-3.33,3.42-3.32,9.41t3.32,9.5a10.71,10.71,0,0,0,8.09,3.51,10.83,10.83,0,0,0,8.1-3.46q3.31-3.47,3.32-9.46T135.32,53Z"/><path class="cls-1" d="M170,94.45A20.63,20.63,0,0,1,161.53,88l-.07-.08a5.69,5.69,0,0,1,4.62-9h3.85a5.8,5.8,0,0,1,4.87,2.71,6.58,6.58,0,0,0,1.61,1.69A8.92,8.92,0,0,0,181.93,85a7.88,7.88,0,0,0,4.63-1.17,3.58,3.58,0,0,0,1.64-3,3.5,3.5,0,0,0-2.34-3.32,46.71,46.71,0,0,0-7.58-2.39,69.69,69.69,0,0,1-9.36-2.76,16.19,16.19,0,0,1-6.46-4.59q-2.72-3.14-2.71-8.47a14.36,14.36,0,0,1,2.48-8.19,16.62,16.62,0,0,1,7.3-5.84A27.83,27.83,0,0,1,181,43.07q9.82,0,15.49,4.87A18.59,18.59,0,0,1,200,52a5.76,5.76,0,0,1-4.82,8.89h-3.05a5.84,5.84,0,0,1-4.91-2.76,6.42,6.42,0,0,0-1.41-1.54A8.27,8.27,0,0,0,180.52,55a7.28,7.28,0,0,0-4.3,1.08,3.42,3.42,0,0,0-1.5,2.94,3.6,3.6,0,0,0,2.39,3.37,38.13,38.13,0,0,0,7.44,2.25,80.76,80.76,0,0,1,9.45,3,16.18,16.18,0,0,1,6.41,4.68,13.28,13.28,0,0,1,2.86,8.65,13.71,13.71,0,0,1-2.58,8.19,17,17,0,0,1-7.39,5.66,28.18,28.18,0,0,1-11.19,2.06A30,30,0,0,1,170,94.45Z"/><path class="cls-1" d="M210.5,38.46a8,8,0,0,1-2.67-6.13,8.15,8.15,0,0,1,2.67-6.23,9.72,9.72,0,0,1,6.88-2.48,9.59,9.59,0,0,1,6.78,2.48,8.15,8.15,0,0,1,2.67,6.23,8,8,0,0,1-2.67,6.13,9.59,9.59,0,0,1-6.78,2.48A9.72,9.72,0,0,1,210.5,38.46Zm14.83,15.91V90.59a8,8,0,0,1-8,8h0a8,8,0,0,1-8-8V54.37a8,8,0,0,1,8-8h0A8,8,0,0,1,225.33,54.37Z"/><path class="cls-1" d="M102.06,47.68a22.68,22.68,0,0,1,8.28-9.36A21.6,21.6,0,0,1,122,35a20.1,20.1,0,0,1,9.69,2.25,16.57,16.57,0,0,1,6.41,5.89h0a7.39,7.39,0,0,1,7.39-7.39h1.22a7.39,7.39,0,0,1,7.39,7.39V80.62A7.39,7.39,0,0,1,146.75,88h-1.22a7.39,7.39,0,0,1-7.39-7.39h0a17.38,17.38,0,0,1-6.5,5.9A20.21,20.21,0,0,1,122,88.76a21.23,21.23,0,0,1-11.61-3.32A22.94,22.94,0,0,1,102.06,76a31.48,31.48,0,0,1-3-14.18A31.14,31.14,0,0,1,102.06,47.68Zm32.76,4.77a11.26,11.26,0,0,0-16.19-.05q-3.33,3.42-3.32,9.41t3.32,9.5a10.71,10.71,0,0,0,8.09,3.51,10.83,10.83,0,0,0,8.1-3.46q3.31-3.47,3.32-9.46T134.82,52.45Z"/><path class="cls-1" d="M169.45,94A20.63,20.63,0,0,1,161,87.54l-.07-.08a5.69,5.69,0,0,1,4.62-9h3.85a5.8,5.8,0,0,1,4.87,2.71,6.58,6.58,0,0,0,1.61,1.69,8.92,8.92,0,0,0,5.52,1.68,7.88,7.88,0,0,0,4.63-1.17,3.58,3.58,0,0,0,1.64-3A3.5,3.5,0,0,0,185.36,77a46.71,46.71,0,0,0-7.58-2.39,69.69,69.69,0,0,1-9.36-2.76A16.19,16.19,0,0,1,162,67.23q-2.72-3.14-2.71-8.47a14.36,14.36,0,0,1,2.48-8.19,16.62,16.62,0,0,1,7.3-5.84,27.83,27.83,0,0,1,11.46-2.16q9.82,0,15.49,4.87a18.59,18.59,0,0,1,3.52,4,5.76,5.76,0,0,1-4.82,8.89h-3.05a5.84,5.84,0,0,1-4.91-2.76,6.42,6.42,0,0,0-1.41-1.54A8.27,8.27,0,0,0,180,54.46a7.28,7.28,0,0,0-4.3,1.08,3.42,3.42,0,0,0-1.5,2.94,3.6,3.6,0,0,0,2.39,3.37,38.13,38.13,0,0,0,7.44,2.25,80.76,80.76,0,0,1,9.45,3,16.18,16.18,0,0,1,6.41,4.68,13.28,13.28,0,0,1,2.86,8.65,13.71,13.71,0,0,1-2.58,8.19,17,17,0,0,1-7.39,5.66,28.18,28.18,0,0,1-11.19,2.06A30,30,0,0,1,169.45,94Z"/><path class="cls-1" d="M210,38a8,8,0,0,1-2.67-6.13A8.15,8.15,0,0,1,210,25.6a9.72,9.72,0,0,1,6.88-2.48,9.59,9.59,0,0,1,6.78,2.48,8.15,8.15,0,0,1,2.67,6.23A8,8,0,0,1,223.66,38a9.59,9.59,0,0,1-6.78,2.48A9.72,9.72,0,0,1,210,38Zm14.83,15.91V90.09a8,8,0,0,1-8,8h0a8,8,0,0,1-8-8V53.87a8,8,0,0,1,8-8h0A8,8,0,0,1,224.83,53.87Z"/><path class="cls-4" d="M121.41,87.73a20.88,20.88,0,0,1-11.34-3.25,22.57,22.57,0,0,1-8.1-9.25,31.21,31.21,0,0,1-3-14,30.93,30.93,0,0,1,3-13.91,22.37,22.37,0,0,1,8.1-9.16A21.28,21.28,0,0,1,121.51,35,19.71,19.71,0,0,1,131,37.19a16.19,16.19,0,0,1,6.22,5.72l.92,1.5V42.65a6.91,6.91,0,0,1,6.9-6.9h1.21a6.91,6.91,0,0,1,6.9,6.9V80.08a6.91,6.91,0,0,1-6.9,6.9H145a6.91,6.91,0,0,1-6.9-6.9v-1.7l-.92,1.43a16.81,16.81,0,0,1-6.32,5.73A19.71,19.71,0,0,1,121.41,87.73ZM126.19,48a11.39,11.39,0,0,0-8.46,3.57c-2.3,2.36-3.46,5.64-3.46,9.75s1.16,7.42,3.46,9.84a11.63,11.63,0,0,0,16.91,0c2.3-2.39,3.46-5.69,3.46-9.8s-1.16-7.4-3.46-9.79A11.32,11.32,0,0,0,126.19,48Z"/><path class="cls-1" d="M121.51,35.5a19.24,19.24,0,0,1,9.21,2.13,15.73,15.73,0,0,1,6,5.54l1.85,3V42.65a6.41,6.41,0,0,1,6.4-6.4h1.21a6.41,6.41,0,0,1,6.4,6.4V80.08a6.41,6.41,0,0,1-6.4,6.4H145a6.41,6.41,0,0,1-6.4-6.4V76.67l-1.84,2.87a16.32,16.32,0,0,1-6.14,5.56,19.18,19.18,0,0,1-9.21,2.12,20.37,20.37,0,0,1-11.07-3.16,22.14,22.14,0,0,1-7.92-9,30.67,30.67,0,0,1-2.94-13.74,30.32,30.32,0,0,1,2.94-13.68,21.75,21.75,0,0,1,7.92-9,20.74,20.74,0,0,1,11.17-3.13m4.68,39.78A11.8,11.8,0,0,0,135,71.51c2.39-2.49,3.6-5.9,3.6-10.15s-1.21-7.65-3.6-10.14a12.25,12.25,0,0,0-17.63,0c-2.39,2.46-3.6,5.86-3.6,10.1s1.21,7.67,3.59,10.19a11.76,11.76,0,0,0,8.83,3.82M121.51,34.5a21.64,21.64,0,0,0-11.7,3.28,22.69,22.69,0,0,0-8.29,9.36,31.34,31.34,0,0,0-3,14.13,31.61,31.61,0,0,0,3,14.18,22.89,22.89,0,0,0,8.29,9.45,21.17,21.17,0,0,0,11.6,3.32A20.09,20.09,0,0,0,131.1,86a17.29,17.29,0,0,0,6.5-5.9h0a7.4,7.4,0,0,0,7.4,7.4h1.21a7.4,7.4,0,0,0,7.4-7.4V42.65a7.4,7.4,0,0,0-7.4-7.4H145a7.4,7.4,0,0,0-7.4,7.4h0a16.45,16.45,0,0,0-6.41-5.9,20,20,0,0,0-9.68-2.25Zm4.68,39.78a10.72,10.72,0,0,1-8.1-3.51q-3.33-3.51-3.32-9.5t3.32-9.4a11.24,11.24,0,0,1,16.19,0q3.32,3.47,3.32,9.45t-3.32,9.46a10.77,10.77,0,0,1-8.09,3.46Z"/><path class="cls-4" d="M181.08,95.25a29.72,29.72,0,0,1-12-2.29,20.28,20.28,0,0,1-8.22-6.26l-.07-.08a5,5,0,0,1-.46-5.33,5.21,5.21,0,0,1,4.69-2.91h3.84a5.32,5.32,0,0,1,4.46,2.48,6.87,6.87,0,0,0,1.72,1.82,9.5,9.5,0,0,0,5.82,1.78,8.37,8.37,0,0,0,4.92-1.26,4.08,4.08,0,0,0,1.85-3.45A4,4,0,0,0,185,76a47.83,47.83,0,0,0-7.67-2.42,70.63,70.63,0,0,1-9.3-2.75,15.69,15.69,0,0,1-6.26-4.44,12.08,12.08,0,0,1-2.59-8.14,14.08,14.08,0,0,1,2.39-7.92,16.37,16.37,0,0,1,7.09-5.67A27.63,27.63,0,0,1,180,42.54c6.4,0,11.5,1.59,15.17,4.74a18.06,18.06,0,0,1,3.42,3.91,5.22,5.22,0,0,1,.2,5.4,5.16,5.16,0,0,1-4.6,2.73h-3a5.35,5.35,0,0,1-4.49-2.54,6.82,6.82,0,0,0-1.52-1.66,8.76,8.76,0,0,0-5.59-1.7,7.8,7.8,0,0,0-4.6,1.17,3.93,3.93,0,0,0-1.71,3.35,4.08,4.08,0,0,0,2.68,3.83,39.19,39.19,0,0,0,7.54,2.28A82.22,82.22,0,0,1,192.78,67,15.93,15.93,0,0,1,199,71.51a12.81,12.81,0,0,1,2.74,8.34,13.33,13.33,0,0,1-2.48,7.89,16.6,16.6,0,0,1-7.19,5.5A27.87,27.87,0,0,1,181.08,95.25Z"/><path class="cls-1" d="M180,43c6.28,0,11.27,1.56,14.84,4.63a17.83,17.83,0,0,1,3.33,3.8,4.76,4.76,0,0,1-4,7.36h-3A4.84,4.84,0,0,1,187,56.51a7.23,7.23,0,0,0-1.63-1.78,9.25,9.25,0,0,0-5.9-1.81,8.26,8.26,0,0,0-4.89,1.27,4.46,4.46,0,0,0-1.92,3.75,4.57,4.57,0,0,0,3,4.28,39,39,0,0,0,7.62,2.31,79.35,79.35,0,0,1,9.33,2.91,15.31,15.31,0,0,1,6,4.4,12.31,12.31,0,0,1,2.62,8,12.82,12.82,0,0,1-2.39,7.61,16.21,16.21,0,0,1-7,5.33,27.51,27.51,0,0,1-10.79,2,29.11,29.11,0,0,1-11.77-2.26,19.86,19.86,0,0,1-8-6.1l-.05-.08a4.51,4.51,0,0,1-.42-4.81,4.72,4.72,0,0,1,4.24-2.63h3.84a4.81,4.81,0,0,1,4,2.25,7.36,7.36,0,0,0,1.84,2A10,10,0,0,0,180.89,85a8.83,8.83,0,0,0,5.21-1.35,4.61,4.61,0,0,0,2.06-3.86,4.49,4.49,0,0,0-2.92-4.23,48.12,48.12,0,0,0-7.77-2.45,71.24,71.24,0,0,1-9.23-2.72A15.16,15.16,0,0,1,162.18,66a11.57,11.57,0,0,1-2.47-7.81A13.52,13.52,0,0,1,162,50.59a15.79,15.79,0,0,1,6.88-5.49A27.1,27.1,0,0,1,180,43m0-1a27.83,27.83,0,0,0-11.46,2.16,16.57,16.57,0,0,0-7.3,5.85,14.39,14.39,0,0,0-2.48,8.19c0,3.55.9,6.38,2.71,8.47a16.17,16.17,0,0,0,6.46,4.58A70.59,70.59,0,0,0,177.24,74a47.74,47.74,0,0,1,7.58,2.39,3.51,3.51,0,0,1,2.34,3.32,3.58,3.58,0,0,1-1.64,3A7.86,7.86,0,0,1,180.89,84a8.94,8.94,0,0,1-5.52-1.68,6.54,6.54,0,0,1-1.6-1.69,5.83,5.83,0,0,0-4.88-2.71h-3.84a5.68,5.68,0,0,0-4.62,9l.06.08a20.72,20.72,0,0,0,8.42,6.42,30,30,0,0,0,12.17,2.34,28.3,28.3,0,0,0,11.18-2.06A17,17,0,0,0,199.65,88a13.71,13.71,0,0,0,2.58-8.19,13.23,13.23,0,0,0-2.86-8.65A16.31,16.31,0,0,0,193,66.51a80.76,80.76,0,0,0-9.45-3,38.13,38.13,0,0,1-7.44-2.25,3.59,3.59,0,0,1-2.39-3.37,3.43,3.43,0,0,1,1.5-2.94,7.29,7.29,0,0,1,4.31-1.08,8.26,8.26,0,0,1,5.28,1.59,6.22,6.22,0,0,1,1.41,1.54,5.85,5.85,0,0,0,4.91,2.77h3a5.76,5.76,0,0,0,4.82-8.9,18.56,18.56,0,0,0-3.52-4Q189.78,42,180,42Z"/><path class="cls-4" d="M216.29,97.05a7.51,7.51,0,0,1-7.5-7.5V53.33a7.5,7.5,0,0,1,15,0V89.55A7.5,7.5,0,0,1,216.29,97.05Zm.05-57.65a9.23,9.23,0,0,1-6.54-2.35,7.46,7.46,0,0,1-2.51-5.76,7.6,7.6,0,0,1,2.51-5.86,9.31,9.31,0,0,1,6.54-2.34,9.14,9.14,0,0,1,6.44,2.34,7.6,7.6,0,0,1,2.51,5.86,7.46,7.46,0,0,1-2.51,5.76A9.1,9.1,0,0,1,216.34,39.4Z"/><path class="cls-1" d="M216.34,23.59a8.53,8.53,0,0,1,6.1,2.21,7.13,7.13,0,0,1,2.35,5.49,7,7,0,0,1-2.35,5.4,8.51,8.51,0,0,1-6.1,2.21,8.66,8.66,0,0,1-6.2-2.21,7,7,0,0,1-2.35-5.4,7.13,7.13,0,0,1,2.35-5.49,8.66,8.66,0,0,1,6.2-2.21m-.05,22.74a7,7,0,0,1,7,7V89.55a7,7,0,0,1-14,0V53.33a7,7,0,0,1,7-7m.05-23.74a9.67,9.67,0,0,0-6.88,2.48,8.13,8.13,0,0,0-2.67,6.22,8,8,0,0,0,2.67,6.13,9.72,9.72,0,0,0,6.88,2.48,9.57,9.57,0,0,0,6.78-2.48,8,8,0,0,0,2.67-6.13,8.13,8.13,0,0,0-2.67-6.22,9.53,9.53,0,0,0-6.78-2.48Zm-.05,22.74h0a8,8,0,0,0-8,8V89.55a8,8,0,0,0,8,8h0a8,8,0,0,0,8-8V53.33a8,8,0,0,0-8-8Z"/></g></g></svg>